<?xml version="1.0" encoding="UTF-8" standalone="yes"?>
<svg version="1.2" width="1080.000000pt" height="1080.000000pt" viewBox="0 0 1080.000000 1080.000000" preserveAspectRatio="xMidYMid meet" baseProfile="tiny-ps" xmlns="http://www.w3.org/2000/svg">
  <title>bimi-svg-tiny-12-ps</title>
  <g transform="translate(0.000000,1080.000000) scale(0.100000,-0.100000)" fill="#000000" stroke="none">
    <path d="M5353 10685 c-13 -9 -29 -39 -38 -73 -9 -31 -32 -82 -50 -112 -18 -30 -39 -73 -45 -95 -7 -22 -23 -55 -37 -73 -13 -17 -35 -62 -48 -98 -13 -37 -35 -83 -49 -103 -14 -20 -32 -65 -41 -101 -9 -36 -27 -81 -40 -100 -13 -19 -34 -62 -46 -95 -12 -33 -33 -76 -45 -95 -13 -20 -31 -60 -40 -90 -9 -30 -31 -80 -50 -110 -18 -30 -40 -75 -49 -99 -8 -25 -26 -58 -38 -75 -13 -17 -34 -60 -46 -96 -13 -36 -32 -77 -42 -91 -10 -14 -33 -66 -50 -114 l-32 -88 22 -85 c12 -47 30 -100 39 -117 9 -17 28 -54 41 -81 13 -27 45 -93 72 -147 27 -54 49 -104 49 -111 0 -7 13 -31 28 -52 16 -22 39 -69 51 -105 12 -36 33 -81 47 -100 13 -18 31 -56 39 -83 8 -27 28 -73 44 -101 16 -29 36 -78 45 -110 8 -32 28 -79 44 -105 16 -26 37 -69 48 -96 10 -27 31 -69 46 -93 15 -24 35 -67 44 -95 9 -28 27 -67 40 -86 13 -19 32 -61 43 -94 11 -32 34 -81 50 -109 16 -29 34 -70 41 -92 7 -22 26 -61 42 -87 16 -26 38 -74 48 -107 10 -32 29 -74 43 -93 14 -18 35 -57 46 -87 11 -29 32 -72 47 -94 14 -22 34 -64 45 -94 10 -29 27 -66 37 -81 20 -27 52 -112 52 -135 0 -7 20 -52 45 -101 25 -48 45 -96 45 -106 0 -9 14 -36 31 -60 17 -24 40 -69 51 -101 11 -33 31 -75 45 -96 38 -56 46 -83 32 -115 -8 -20 -22 -31 -48 -37 -21 -6 -264 -9 -588 -8 -513 2 -554 3 -570 20 -29 28 -23 85 14 137 18 25 41 71 52 103 11 32 29 69 40 83 11 14 32 57 47 97 15 40 36 84 46 99 18 26 61 146 87 245 10 38 9 47 -13 90 -13 27 -29 69 -36 93 -6 25 -26 69 -42 99 -17 29 -38 72 -47 95 -25 63 -81 155 -104 171 -30 21 -53 4 -72 -54 -9 -28 -25 -61 -36 -75 -11 -14 -31 -57 -44 -96 -13 -39 -35 -84 -49 -100 -13 -16 -30 -46 -36 -67 -7 -21 -29 -69 -50 -108 -21 -38 -43 -88 -50 -110 -7 -22 -25 -60 -40 -85 -15 -25 -35 -70 -45 -100 -10 -30 -28 -69 -40 -85 -13 -17 -33 -65 -45 -105 -12 -41 -31 -87 -42 -102 -10 -15 -32 -59 -48 -98 -16 -39 -38 -83 -48 -98 -11 -15 -27 -49 -36 -76 -9 -27 -32 -77 -51 -110 -18 -34 -38 -79 -44 -102 -6 -22 -24 -61 -41 -85 -17 -24 -39 -73 -50 -107 -11 -35 -29 -76 -40 -92 -26 -36 -26 -86 -1 -100 27 -14 2895 -14 2922 0 26 14 25 64 -2 102 -12 16 -29 56 -39 89 -10 33 -32 81 -48 107 -16 26 -35 65 -42 87 -7 22 -27 67 -45 100 -18 33 -38 78 -45 100 -7 22 -28 65 -46 95 -18 30 -42 80 -54 112 -11 31 -27 62 -35 68 -8 7 -24 42 -35 79 -11 36 -35 98 -54 136 -89 185 -125 262 -132 285 -3 14 -22 52 -40 85 -18 34 -40 81 -49 105 -9 24 -29 65 -45 90 -17 26 -39 72 -50 104 -10 31 -28 70 -40 86 -11 16 -27 47 -35 70 -8 22 -30 68 -49 103 -18 34 -41 85 -50 114 -10 28 -26 63 -36 76 -11 14 -31 58 -46 98 -15 41 -35 86 -46 102 -11 15 -30 61 -42 101 -13 40 -34 89 -48 107 -14 19 -33 57 -42 85 -9 28 -30 72 -46 97 -16 26 -36 71 -45 100 -8 30 -26 69 -40 87 -13 18 -34 63 -46 99 -12 36 -33 80 -46 97 -12 17 -32 57 -43 89 -11 32 -33 79 -49 104 -16 25 -34 65 -40 88 -7 23 -23 56 -37 72 -13 16 -36 62 -49 100 -13 39 -35 86 -50 105 -16 21 -30 57 -37 96 -12 73 -2 120 42 190 16 25 33 63 39 85 6 22 23 61 39 86 16 25 39 75 51 112 28 83 54 105 109 91 34 -8 39 -14 67 -84 17 -42 39 -89 51 -105 12 -17 29 -55 39 -85 10 -30 30 -75 46 -99 15 -23 36 -66 45 -95 9 -28 29 -71 44 -96 16 -25 36 -74 45 -110 9 -36 29 -85 45 -110 16 -25 36 -65 46 -90 10 -25 32 -67 49 -95 18 -27 39 -62 49 -77 27 -45 43 -34 85 56 21 46 43 86 49 90 6 3 18 30 27 59 10 28 30 72 45 97 33 53 84 223 77 260 -7 41 -53 157 -74 187 -11 15 -29 53 -41 83 -11 30 -54 120 -94 200 -41 80 -81 163 -88 185 -7 22 -28 67 -46 100 -18 34 -41 81 -49 105 -9 25 -27 61 -40 80 -13 19 -31 64 -40 100 -9 36 -29 85 -45 110 -15 25 -35 68 -45 97 -9 29 -28 69 -42 90 -15 21 -35 61 -45 88 -11 28 -32 70 -48 95 -16 25 -36 71 -45 102 -18 62 -43 88 -85 88 -14 0 -35 -7 -47 -15z"/>
    <path d="M4248 8258 c-28 -24 -68 -84 -83 -129 -14 -42 -40 -97 -141 -304 -25 -49 -44 -95 -44 -101 0 -5 -15 -36 -34 -67 -19 -31 -44 -82 -55 -112 -12 -31 -30 -68 -41 -83 -11 -15 -29 -54 -40 -86 -11 -33 -33 -80 -49 -105 -16 -25 -36 -71 -45 -101 -8 -30 -26 -70 -40 -89 -14 -19 -35 -64 -47 -100 -12 -36 -32 -82 -44 -101 -12 -19 -30 -60 -40 -90 -9 -30 -28 -72 -42 -92 -14 -21 -36 -67 -49 -104 -14 -37 -33 -79 -44 -94 -10 -14 -30 -57 -44 -94 -14 -37 -35 -80 -46 -96 -12 -16 -30 -55 -40 -86 -11 -32 -32 -77 -46 -101 -14 -24 -34 -70 -45 -101 -11 -31 -30 -73 -43 -93 -13 -19 -34 -60 -47 -90 -13 -30 -33 -70 -46 -89 -12 -19 -32 -62 -43 -95 -11 -33 -31 -76 -45 -96 -13 -20 -33 -64 -43 -97 -11 -33 -32 -77 -46 -98 -14 -22 -33 -68 -42 -104 -9 -36 -23 -78 -31 -93 -8 -15 -11 -36 -8 -46 11 -37 52 -42 283 -39 253 3 252 3 286 98 10 28 30 67 43 88 14 20 34 62 45 92 10 30 30 71 43 92 13 20 34 67 46 105 12 37 32 84 44 103 12 19 30 60 39 90 10 30 30 73 45 95 15 22 33 56 40 75 14 37 81 181 137 295 19 39 41 90 50 115 8 25 25 61 38 80 13 20 34 65 46 100 13 36 32 78 43 93 11 16 31 56 46 90 14 34 39 83 54 108 15 25 34 68 42 95 8 27 26 65 39 83 14 19 37 69 51 112 14 43 32 83 40 89 8 7 26 49 39 93 14 45 36 97 50 116 14 19 32 57 40 85 9 28 32 78 53 111 36 57 38 64 38 145 0 81 -2 89 -41 160 -23 41 -47 93 -54 115 -7 22 -24 56 -37 77 -14 20 -31 62 -40 94 -8 33 -19 67 -24 76 -11 21 -48 24 -71 6z"/>
    <path d="M6485 8260 c-3 -5 -13 -33 -21 -62 -9 -29 -28 -75 -43 -103 -16 -27 -34 -68 -41 -90 -7 -22 -30 -73 -52 -113 -64 -118 -65 -215 -3 -312 19 -30 42 -77 51 -104 9 -28 27 -67 40 -87 14 -20 35 -70 48 -112 13 -41 33 -88 45 -103 11 -14 30 -56 41 -93 11 -37 31 -82 44 -100 14 -19 33 -57 42 -85 9 -28 29 -72 45 -97 16 -25 38 -72 49 -104 11 -33 29 -68 40 -80 10 -11 31 -53 45 -93 14 -40 37 -89 50 -108 13 -19 31 -59 39 -87 8 -29 28 -73 44 -98 16 -25 35 -63 42 -85 6 -21 27 -64 45 -94 18 -30 40 -81 49 -112 9 -31 28 -71 42 -88 15 -17 35 -58 45 -92 11 -34 32 -84 48 -112 16 -28 34 -69 41 -91 7 -22 27 -67 45 -100 18 -33 38 -78 45 -100 7 -22 22 -55 34 -74 11 -19 35 -66 51 -105 20 -46 39 -75 55 -84 36 -18 480 -13 503 7 19 15 23 56 7 66 -5 3 -17 32 -26 63 -9 31 -31 86 -49 122 -18 36 -36 76 -40 90 -6 25 -51 121 -146 315 -27 55 -49 105 -49 111 0 6 -14 31 -30 56 -17 25 -39 71 -49 101 -11 31 -31 76 -45 100 -14 24 -34 68 -45 98 -10 30 -30 71 -45 93 -14 21 -31 57 -37 80 -5 22 -26 67 -45 98 -19 31 -41 78 -48 103 -8 25 -28 67 -44 93 -16 26 -35 65 -42 87 -7 22 -27 67 -45 100 -18 33 -40 85 -49 116 -9 31 -25 68 -36 82 -12 15 -32 58 -45 97 -13 38 -35 84 -48 102 -13 18 -34 63 -46 99 -12 36 -33 81 -46 99 -14 18 -31 56 -40 84 -8 28 -28 71 -45 94 -16 24 -38 68 -50 98 -11 30 -29 67 -40 82 -11 15 -31 60 -44 100 -14 40 -34 84 -45 98 -11 14 -29 53 -40 87 -35 103 -128 192 -156 147z"/>
    <path d="M4585 3960 c-60 -13 -86 -25 -128 -58 -21 -17 -53 -36 -70 -41 -33 -11 -113 -95 -178 -186 -22 -30 -52 -96 -75 -165 -38 -113 -39 -117 -39 -265 0 -139 2 -155 26 -215 15 -36 34 -86 42 -112 27 -83 179 -247 257 -278 29 -12 72 -35 95 -51 30 -22 76 -39 160 -59 64 -16 132 -38 152 -50 19 -11 69 -32 112 -45 68 -22 87 -34 142 -88 49 -49 70 -78 89 -127 33 -86 30 -127 -19 -233 l-41 -88 -88 -42 c-83 -40 -91 -42 -182 -42 -78 0 -109 5 -170 27 -41 15 -93 32 -115 37 -22 6 -62 29 -89 51 -26 22 -53 40 -59 40 -5 0 -34 24 -63 54 -56 59 -112 83 -145 65 -11 -5 -30 -31 -43 -57 -14 -27 -32 -55 -42 -63 -24 -19 -64 -108 -64 -142 0 -31 90 -137 148 -174 19 -11 51 -37 71 -56 20 -20 61 -45 91 -57 30 -12 83 -37 116 -56 77 -42 160 -56 349 -56 182 -1 271 14 327 55 24 17 64 43 89 57 51 28 146 127 201 210 29 43 45 87 74 199 33 129 36 154 32 235 -7 119 -58 304 -102 365 -58 82 -172 190 -222 212 -27 11 -62 31 -79 43 -47 36 -84 52 -165 71 -41 10 -100 30 -130 45 -30 15 -93 39 -140 54 -74 22 -94 34 -153 87 -96 87 -122 135 -121 225 1 61 5 79 34 130 45 80 64 100 129 131 45 21 75 27 151 30 85 4 109 1 229 -32 74 -19 142 -41 150 -48 9 -6 37 -29 62 -49 92 -76 157 -42 228 118 57 127 55 135 -29 192 -25 16 -56 42 -69 56 -15 16 -51 34 -90 46 -37 11 -87 33 -113 49 -26 16 -64 35 -85 41 -46 15 -392 22 -448 10z"/>
    <path d="M9885 3964 c-74 -11 -121 -27 -156 -55 -20 -16 -55 -37 -78 -47 -47 -22 -144 -117 -184 -182 -15 -25 -39 -60 -52 -78 -13 -18 -26 -51 -30 -75 -3 -23 -22 -74 -41 -114 -24 -51 -38 -100 -49 -175 -9 -56 -25 -152 -38 -213 -18 -93 -22 -144 -22 -325 0 -192 3 -231 27 -360 15 -80 32 -178 38 -218 7 -40 23 -94 37 -119 13 -26 33 -80 43 -120 11 -44 29 -85 44 -104 15 -17 34 -45 43 -63 30 -57 126 -156 173 -177 25 -11 62 -34 83 -50 21 -17 52 -35 70 -40 91 -28 408 -27 494 2 17 5 49 24 70 40 21 17 54 37 73 45 46 19 163 140 194 201 14 27 34 62 46 78 11 17 29 59 41 95 25 80 44 110 69 110 20 0 20 9 20 675 0 554 -2 675 -13 675 -25 0 -54 44 -76 114 -47 147 -178 320 -286 377 -33 17 -69 40 -80 50 -46 42 -93 51 -265 54 -91 2 -178 1 -195 -1z m301 -382 c32 -21 78 -51 101 -65 29 -18 51 -44 69 -79 15 -29 37 -68 50 -88 12 -19 34 -84 48 -145 14 -60 33 -135 41 -165 37 -130 34 -556 -4 -692 -12 -41 -30 -116 -41 -168 -14 -64 -31 -113 -54 -150 -18 -30 -41 -71 -50 -90 -15 -31 -115 -109 -192 -148 -68 -35 -214 -21 -279 28 -22 17 -56 39 -76 50 -21 11 -51 42 -70 71 -19 29 -42 64 -51 78 -10 14 -23 50 -29 81 -6 30 -24 88 -40 128 -42 107 -49 169 -49 457 0 284 14 425 48 491 11 22 30 76 41 118 12 48 29 89 44 105 13 14 34 44 47 67 15 28 40 52 78 74 129 76 140 80 227 80 78 0 85 -2 141 -38z"/>
    <path d="M8100 3948 c-19 -5 -49 -20 -66 -33 -18 -14 -56 -35 -85 -49 -69 -31 -221 -185 -250 -252 -11 -26 -32 -61 -48 -79 -17 -20 -34 -58 -45 -100 -9 -37 -26 -84 -36 -105 -28 -55 -38 -106 -60 -318 -24 -223 -26 -506 -6 -654 8 -57 20 -143 26 -193 6 -49 23 -117 36 -150 14 -33 34 -89 45 -125 10 -35 32 -83 48 -105 15 -22 36 -56 46 -75 16 -31 35 -54 110 -131 21 -22 122 -90 184 -124 33 -18 55 -20 241 -20 201 0 206 0 246 25 23 14 66 40 96 57 95 57 246 248 273 346 9 34 28 96 42 137 22 66 25 93 27 225 1 159 0 164 -79 411 -26 83 -181 283 -248 319 -65 36 -233 86 -292 88 -85 1 -295 -70 -345 -117 -37 -36 -89 -66 -113 -66 -47 0 -51 96 -8 231 16 52 35 119 41 149 7 30 17 63 22 73 22 43 132 188 148 197 57 31 190 64 255 64 91 -1 231 -49 286 -99 22 -19 47 -35 57 -35 47 0 103 61 127 140 4 14 18 41 31 60 13 19 24 42 24 51 0 30 -130 147 -188 169 -28 11 -70 32 -92 46 -22 15 -66 33 -97 40 -67 16 -300 17 -353 2z m300 -1309 c20 -7 63 -41 102 -81 60 -62 70 -78 94 -151 38 -120 42 -206 14 -308 -36 -138 -74 -187 -211 -274 -62 -40 -64 -40 -160 -40 -86 0 -101 3 -126 23 -15 12 -51 36 -79 52 -42 25 -60 45 -98 109 -57 97 -70 159 -64 307 4 91 10 121 30 165 29 61 116 162 159 185 64 33 258 41 339 13z"/>
    <path d="M865 3906 c-40 -17 -52 -33 -75 -101 -11 -31 -29 -72 -40 -91 -12 -18 -30 -77 -41 -131 -11 -53 -31 -117 -44 -141 -14 -25 -34 -79 -44 -122 -11 -42 -33 -103 -49 -136 -16 -32 -35 -81 -41 -109 -7 -27 -25 -79 -41 -115 -16 -36 -38 -100 -49 -142 -11 -42 -30 -92 -41 -111 -12 -20 -32 -77 -46 -128 -13 -51 -33 -106 -44 -123 -10 -18 -29 -67 -40 -111 -12 -44 -33 -99 -46 -122 -14 -24 -34 -80 -45 -125 -11 -46 -30 -99 -41 -118 -12 -19 -33 -80 -47 -135 -23 -89 -29 -102 -58 -120 l-32 -20 -1 -133 0 -134 134 4 c169 4 180 10 214 119 13 41 37 101 52 134 16 33 36 91 45 128 19 87 36 119 82 154 l36 28 448 0 447 0 26 -24 c14 -14 26 -29 26 -34 0 -5 14 -37 31 -70 17 -34 40 -97 51 -141 11 -44 30 -98 43 -121 12 -22 30 -64 40 -92 25 -78 37 -83 187 -83 117 0 130 2 149 21 28 28 22 85 -19 170 -17 35 -38 93 -47 129 -9 36 -26 87 -39 115 -13 27 -33 85 -45 128 -12 43 -32 99 -46 126 -14 26 -34 80 -45 120 -12 40 -32 95 -45 122 -14 27 -32 79 -41 116 -8 38 -28 93 -43 123 -16 31 -38 93 -49 138 -12 46 -30 96 -41 111 -11 15 -31 71 -45 123 -13 52 -34 110 -45 130 -12 19 -30 77 -41 127 -11 51 -33 118 -49 149 -15 31 -36 88 -45 126 -9 37 -27 89 -40 115 -13 25 -33 82 -45 126 -37 133 -84 165 -243 165 -62 -1 -115 -6 -133 -14z m178 -613 c8 -16 19 -50 26 -76 6 -27 25 -72 40 -100 16 -29 36 -85 45 -125 8 -40 27 -92 40 -115 14 -23 32 -74 41 -112 9 -39 32 -104 51 -146 39 -87 49 -128 40 -163 -14 -56 -14 -56 -312 -56 -259 0 -275 1 -294 20 -11 11 -22 30 -25 43 -9 32 29 196 58 254 14 26 34 83 46 126 12 43 32 99 45 125 12 26 31 76 40 112 16 56 79 189 109 228 16 20 36 14 50 -15z"/>
    <path d="M2044 3910 c-31 -12 -64 -59 -64 -89 0 -14 9 -43 20 -63 11 -20 27 -70 36 -110 9 -40 29 -104 46 -141 16 -38 37 -110 47 -160 10 -51 29 -114 43 -142 14 -27 34 -88 43 -135 10 -47 30 -110 45 -140 15 -30 35 -89 43 -131 9 -42 29 -103 46 -135 16 -33 34 -92 41 -133 7 -41 25 -97 42 -129 16 -31 39 -97 50 -147 11 -49 31 -108 44 -131 13 -23 33 -81 43 -130 11 -49 31 -111 45 -139 14 -27 33 -85 42 -128 15 -76 81 -234 112 -269 13 -16 34 -18 158 -18 l142 0 27 31 c42 50 73 122 95 216 12 48 29 101 40 118 10 17 30 80 45 139 14 60 34 123 44 140 11 17 30 72 42 121 12 50 32 111 45 136 13 26 34 92 48 147 14 56 34 119 45 141 11 21 32 87 46 145 13 59 32 120 40 136 8 16 27 78 40 136 14 59 36 125 50 148 13 22 33 83 44 133 11 51 31 112 44 135 14 24 34 87 45 141 12 54 30 111 42 127 39 55 39 131 0 170 -18 18 -34 20 -138 20 -116 0 -119 0 -144 -27 -46 -51 -97 -156 -114 -239 -9 -43 -29 -104 -45 -134 -16 -30 -36 -91 -45 -135 -9 -44 -29 -105 -44 -135 -15 -30 -35 -89 -45 -130 -10 -41 -29 -97 -42 -123 -13 -27 -35 -91 -47 -142 -13 -51 -33 -109 -45 -128 -12 -19 -30 -76 -42 -127 -11 -50 -31 -114 -44 -141 -14 -27 -32 -79 -40 -116 -28 -123 -49 -152 -97 -134 -43 16 -60 49 -84 156 -13 58 -34 124 -48 148 -13 23 -32 78 -41 122 -10 44 -30 110 -46 146 -16 37 -36 98 -44 135 -8 38 -29 96 -45 129 -16 33 -36 92 -45 132 -8 39 -28 98 -44 130 -17 32 -37 91 -46 132 -8 41 -26 96 -40 124 -15 27 -35 90 -46 140 -21 101 -51 154 -108 193 -31 21 -47 24 -126 23 -49 0 -100 -4 -111 -9z"/>
    <path d="M5955 3898 c-43 -33 -55 -76 -55 -188 0 -117 13 -152 61 -169 20 -7 128 -11 294 -11 241 0 263 -1 278 -18 25 -28 21 -67 -12 -104 -15 -18 -38 -51 -49 -73 -17 -33 -144 -213 -230 -325 -91 -119 -112 -367 -34 -409 13 -7 60 -8 129 -5 105 6 111 5 208 -29 135 -47 149 -54 168 -87 9 -15 28 -38 42 -51 40 -37 53 -68 65 -156 14 -106 -1 -247 -30 -283 -11 -14 -33 -42 -48 -62 -30 -41 -160 -111 -240 -129 -52 -11 -166 2 -212 26 -15 8 -59 23 -98 34 -87 24 -106 34 -159 82 -47 43 -53 45 -91 25 -39 -20 -70 -66 -98 -149 -45 -128 -45 -128 27 -200 49 -49 75 -66 113 -77 27 -7 71 -28 98 -47 67 -46 79 -50 214 -63 87 -9 152 -9 240 -2 130 12 177 26 227 68 18 15 50 35 72 44 44 19 136 108 171 165 11 19 28 43 38 54 19 21 66 145 97 256 17 59 20 93 16 225 -3 141 -6 160 -29 211 -14 31 -33 82 -42 112 -18 63 -51 109 -156 217 -67 68 -81 78 -130 90 -69 16 -126 44 -140 69 -5 11 -10 40 -10 66 0 39 5 51 38 85 55 58 96 109 127 160 16 25 37 51 47 58 10 7 28 32 39 55 12 23 36 58 53 79 17 20 48 63 69 96 37 59 38 60 40 173 2 94 -1 120 -16 147 -34 62 -35 62 -575 62 -487 0 -489 0 -517 -22z"/>
    <path d="M4010 769 c-59 -8 -69 -12 -105 -51 -22 -24 -50 -50 -63 -58 -15 -10 -34 -49 -58 -115 -46 -129 -44 -199 7 -325 29 -71 40 -89 76 -112 33 -23 43 -36 48 -68 l7 -40 149 0 149 0 0 31 c0 30 25 62 79 99 49 34 73 241 48 400 -15 90 -18 97 -55 130 -22 19 -45 46 -52 58 -23 45 -117 66 -230 51z m143 -131 c36 -19 85 -84 99 -132 16 -53 15 -180 0 -231 -7 -23 -34 -64 -63 -94 -47 -50 -55 -55 -103 -59 -63 -5 -87 6 -144 69 -32 35 -46 62 -62 123 -19 68 -20 84 -10 129 14 57 52 141 78 171 41 46 142 58 205 24z"/>
    <path d="M6070 774 c-8 -1 -36 -5 -61 -9 -63 -8 -140 -82 -200 -190 l-44 -80 0 -105 c1 -104 1 -105 44 -185 23 -44 52 -87 64 -95 42 -29 57 -50 57 -80 l0 -30 150 0 150 0 0 28 c0 15 11 45 25 67 27 44 31 75 13 93 -21 21 -54 13 -85 -23 -29 -33 -35 -35 -92 -35 -56 0 -64 3 -102 37 -75 68 -126 182 -114 258 9 61 98 193 142 211 18 8 59 14 92 14 53 0 65 -4 96 -31 29 -26 38 -29 50 -19 20 17 20 99 0 127 -24 34 -126 60 -185 47z"/>
    <path d="M1057 761 c-71 -15 -72 -17 -75 -249 -2 -114 -1 -276 3 -359 l7 -153 38 0 37 0 6 75 c4 42 12 85 17 95 16 30 67 52 134 57 151 14 209 89 209 273 0 141 -28 206 -107 247 -34 18 -209 27 -269 14z m235 -128 c20 -24 49 -101 50 -133 1 -37 -31 -122 -55 -143 -38 -34 -134 -14 -174 37 -24 30 -37 122 -25 176 11 51 59 80 132 80 42 0 61 -5 72 -17z"/>
    <path d="M2575 756 c-36 -16 -151 -145 -174 -196 -11 -26 -15 -69 -16 -165 0 -157 14 -197 100 -280 34 -34 58 -66 61 -85 l7 -30 137 0 138 0 6 35 c5 23 18 43 42 62 20 14 47 47 60 72 14 25 35 62 47 81 19 31 22 49 22 145 l0 110 -43 75 c-43 74 -100 143 -144 174 -29 20 -198 22 -243 2z m181 -107 c38 -10 48 -18 66 -53 11 -22 32 -57 47 -76 22 -29 27 -48 30 -112 3 -71 1 -82 -25 -124 -16 -26 -41 -68 -55 -93 -34 -60 -59 -73 -138 -68 -54 3 -67 7 -80 26 -9 13 -36 45 -59 72 -39 42 -45 56 -52 113 -4 36 -5 93 -1 126 6 50 13 66 35 83 15 12 37 40 49 62 30 53 90 67 183 44z"/>
    <path d="M3198 754 c-33 -17 -37 -53 -10 -76 9 -8 38 -22 63 -32 26 -9 54 -25 63 -35 21 -24 36 -189 28 -321 -3 -52 1 -135 8 -191 l13 -99 32 0 33 0 7 98 c4 53 8 186 9 294 1 228 6 242 90 266 79 22 84 81 8 102 -59 16 -311 12 -344 -6z"/>
    <path d="M7740 758 c-46 -25 -50 -45 -50 -319 0 -141 3 -297 6 -347 l7 -92 198 0 199 0 0 25 c0 14 -13 39 -29 57 -28 32 -31 33 -132 38 -57 3 -109 8 -116 13 -16 10 -37 109 -29 140 12 49 30 57 124 57 97 0 132 14 132 54 0 42 -29 56 -119 56 -45 0 -91 5 -102 11 -29 15 -41 57 -34 112 11 77 28 87 140 87 88 0 98 2 120 25 31 30 31 46 4 71 -18 16 -40 19 -158 22 -96 2 -143 -1 -161 -10z"/>
    <path d="M8382 763 c-12 -2 -30 -16 -40 -31 -15 -22 -17 -60 -21 -266 -2 -132 0 -291 4 -353 l7 -113 38 0 c37 0 37 1 44 46 3 26 6 115 6 199 0 152 10 215 35 215 7 0 22 -21 31 -47 10 -27 33 -64 51 -83 22 -26 36 -56 48 -105 19 -82 28 -95 67 -95 43 0 83 45 103 116 29 105 35 115 83 135 70 30 72 28 72 -118 0 -162 21 -263 55 -263 19 0 23 8 31 53 5 28 9 189 9 355 l0 304 -28 24 c-31 26 -83 32 -109 12 -35 -29 -88 -127 -103 -193 -21 -90 -27 -100 -79 -130 -66 -39 -75 -32 -101 83 -9 37 -26 83 -39 103 -13 19 -34 58 -46 87 -17 38 -29 53 -52 61 -17 6 -34 10 -37 10 -3 -1 -16 -4 -29 -6z"/>
    <path d="M6910 740 c-19 -19 -20 -33 -20 -297 0 -153 3 -315 7 -360 l6 -83 37 0 37 0 6 68 c4 37 7 128 7 202 0 108 3 140 16 158 24 35 55 25 79 -25 11 -23 32 -55 47 -70 14 -15 31 -45 38 -66 6 -21 23 -50 36 -66 31 -37 84 -150 84 -178 0 -21 4 -23 64 -23 l63 0 7 77 c3 42 6 200 6 352 0 234 -2 280 -16 299 -19 28 -36 28 -60 1 -16 -18 -19 -43 -24 -209 -3 -132 -9 -193 -18 -202 -19 -19 -106 72 -148 155 -19 37 -38 67 -43 67 -5 0 -19 21 -32 48 -12 26 -37 65 -55 87 -80 96 -88 101 -124 65z"/>
    <path d="M9453 745 c-41 -18 -52 -40 -69 -142 -10 -63 -22 -98 -45 -135 -19 -29 -39 -82 -51 -130 -10 -44 -27 -92 -37 -107 -23 -32 -38 -85 -47 -169 l-7 -62 47 0 c44 0 46 1 46 29 0 54 21 89 77 133 55 42 58 43 132 42 42 0 86 -5 97 -12 23 -12 89 -123 100 -167 5 -21 12 -25 45 -25 43 0 49 13 28 67 -5 15 -17 66 -25 113 -9 52 -28 112 -49 155 -18 39 -41 101 -49 138 -9 38 -27 87 -40 110 -13 23 -32 65 -41 92 -28 77 -55 95 -112 70z m86 -253 c27 -51 25 -127 -5 -156 -41 -42 -134 -1 -134 58 0 29 8 40 53 74 59 46 72 50 86 24z"/>
    <path d="M1689 734 c-11 -13 -15 -70 -17 -263 -2 -135 -1 -297 3 -359 l7 -112 39 0 c37 0 39 2 40 33 3 139 16 259 31 274 31 31 200 26 240 -7 19 -15 23 -31 29 -136 4 -66 8 -129 8 -141 1 -17 7 -23 25 -23 28 0 28 1 46 248 14 196 0 436 -27 464 -35 35 -48 9 -53 -111 -7 -150 -13 -156 -151 -156 -134 0 -139 6 -139 149 0 109 -12 149 -46 154 -11 2 -27 -5 -35 -14z"/>
    <path d="M6562 731 c-7 -4 -18 -26 -22 -47 -14 -57 -12 -492 2 -595 l12 -89 31 0 c31 0 33 2 39 46 3 26 6 182 6 348 0 257 -2 305 -16 324 -16 23 -31 27 -52 13z"/>
    <path d="M5066 618 c-8 -13 -21 -49 -30 -81 -8 -33 -27 -77 -41 -99 l-27 -40 29 -30 c15 -16 39 -52 53 -80 14 -29 30 -54 37 -56 6 -2 31 36 54 84 39 81 41 89 29 118 -7 17 -21 65 -32 106 -27 103 -44 121 -72 78z"/>
  </g>
</svg>