<?xml version="1.0" encoding="UTF-8" standalone="yes"?>
<svg viewBox="0 0 1080 1080" width="1080" height="1080" version="1.2" baseProfile="tiny-ps" xmlns="http://www.w3.org/2000/svg">
  <title>bimi-svg-tiny-12-ps</title>
  <g fill="None" fill-opacity="0.0" stroke="#3A3836" stroke-opacity="1.00" stroke-width="0.3">
    <path d="&#xA;M 0.00 1080.00 &#xA;L 1080.00 1080.00&#xA;L 1080.00 0.00&#xA;L 0.00 0.00&#xA;L 0.00 1080.00&#xA;M 841.00 412.00 &#xA;C 836.24 421.01 831.62 430.41 826.23 439.23 C 820.84 448.05 815.99 456.76 810.75 465.75 C 805.50 474.73 800.86 483.50 795.70 492.69 C 790.53 501.89 785.32 509.61 780.23 519.23 C 775.14 528.85 770.20 535.65 765.08 546.08 C 759.96 556.50 741.16 553.00 730.00 553.00&#xA;C 698.00 553.00 666.00 553.00 634.00 553.00&#xA;C 616.67 553.00 599.33 552.97 582.00 553.00&#xA;C 581.50 553.00 581.00 553.00 581.00 553.00&#xA;C 557.00 553.00 533.00 553.00 509.00 553.00&#xA;C 489.67 553.00 470.33 553.00 451.00 553.00&#xA;C 426.33 553.00 401.67 553.00 377.00 553.00&#xA;C 348.67 553.00 320.33 553.00 292.00 553.00&#xA;C 289.00 553.00 286.00 553.00 283.00 553.00&#xA;C 203.95 411.16 120.69 271.06 42.00 129.00&#xA;C 137.67 129.00 233.33 129.00 329.00 129.00&#xA;C 368.00 129.00 407.00 129.00 446.00 129.00&#xA;C 501.33 129.00 556.67 129.00 612.00 129.00&#xA;C 651.33 129.00 690.67 129.00 730.00 129.00&#xA;C 767.00 129.00 804.00 129.00 841.00 129.00&#xA;C 895.00 129.00 949.00 129.00 1003.00 129.00&#xA;C 949.71 223.50 895.50 318.28 841.00 412.00&#xA;M 313.00 619.00 &#xA;C 322.24 621.20 334.66 636.78 320.92 641.92 C 307.18 647.07 295.69 642.81 284.00 638.00&#xA;C 294.68 635.74 309.71 647.46 321.22 639.22 C 332.74 630.99 310.40 619.03 302.00 621.00&#xA;C 299.90 626.61 299.60 633.82 295.00 638.00&#xA;C 292.49 631.95 305.63 618.98 293.00 618.00&#xA;C 293.10 614.33 298.58 616.68 301.00 616.00&#xA;C 302.90 610.45 303.31 603.38 307.00 599.00&#xA;C 308.28 604.36 300.53 618.41 310.00 617.00 C 319.47 615.59 325.44 615.40 331.75 608.75 C 338.06 602.10 332.29 592.81 324.78 591.22 C 317.26 589.64 305.97 589.85 298.98 592.98 C 291.98 596.11 284.23 599.54 284.00 608.00&#xA;C 289.88 609.77 294.16 602.92 299.00 604.00&#xA;C 294.19 615.08 275.75 609.82 283.92 599.92 C 292.09 590.02 301.20 589.78 312.00 588.00 C 322.80 586.22 337.83 590.88 337.00 603.00 C 336.16 615.12 322.15 617.73 313.00 619.00&#xA;M 609.00 641.00 &#xA;C 622.46 642.41 635.08 639.87 646.00 633.00&#xA;C 641.87 641.05 631.45 642.62 622.99 643.99 C 614.53 645.36 601.16 639.81 593.98 644.98 C 586.79 650.14 568.03 643.14 576.08 637.08 C 584.13 631.02 597.06 642.17 605.07 638.07 C 613.08 633.97 618.27 628.82 624.00 622.00&#xA;C 616.54 620.99 604.99 620.04 603.08 610.92 C 601.16 601.81 607.91 593.31 616.00 591.00&#xA;C 607.33 597.78 599.93 612.38 613.68 617.32 C 627.43 622.27 634.77 611.89 641.25 601.25 C 647.73 590.61 666.89 586.59 661.23 599.23 C 655.57 611.87 645.67 615.54 634.93 619.93 C 624.19 624.31 616.73 632.66 609.00 641.00&#xA;M 746.00 605.00 &#xA;C 750.59 616.89 734.22 624.86 737.00 636.00 C 739.79 647.14 760.03 637.95 765.00 633.00&#xA;C 761.69 643.24 739.86 649.90 735.00 637.00&#xA;C 731.25 641.10 719.35 649.70 721.00 637.00&#xA;C 713.11 642.96 701.25 647.42 694.00 638.00&#xA;C 692.82 645.05 681.01 646.23 684.00 637.00&#xA;C 678.79 640.17 672.87 642.75 666.98 643.98 C 661.08 645.20 650.63 643.51 649.03 637.97 C 647.43 632.43 656.24 623.70 661.22 627.78 C 666.20 631.86 654.01 637.45 651.00 638.00&#xA;C 666.31 649.14 681.73 632.10 696.00 628.00&#xA;C 693.08 638.18 704.68 643.00 712.07 639.07 C 719.47 635.15 726.31 626.22 733.00 633.00&#xA;C 733.57 623.15 733.95 606.90 746.00 605.00&#xA;M 379.00 623.00 &#xA;C 380.14 626.21 375.67 627.08 376.00 630.00&#xA;C 380.12 632.12 382.03 636.34 383.00 640.00&#xA;C 388.93 637.77 394.51 633.18 400.00 630.00&#xA;C 394.04 640.92 407.68 643.25 413.69 639.69 C 419.71 636.14 428.74 626.44 427.00 637.00&#xA;C 436.44 627.61 436.76 638.33 446.01 639.99 C 455.26 641.65 458.19 634.75 466.08 629.08 C 473.97 623.41 478.24 638.51 464.00 636.00&#xA;C 467.19 645.82 481.51 640.90 489.02 638.02 C 496.54 635.15 502.10 626.66 509.00 623.00&#xA;C 510.07 626.50 504.91 627.48 506.00 631.00&#xA;C 509.91 631.65 513.05 636.39 511.00 640.00&#xA;C 521.76 637.92 529.30 628.74 538.00 623.00&#xA;C 539.14 626.20 534.67 627.09 535.00 630.00&#xA;C 539.12 632.12 541.03 636.34 542.00 640.00&#xA;C 547.45 637.85 552.76 633.75 558.00 631.00&#xA;C 554.61 640.91 531.04 649.98 527.00 636.00&#xA;C 533.89 643.15 542.91 635.29 532.00 631.00&#xA;C 524.70 639.19 501.89 650.69 498.00 636.00&#xA;C 505.28 644.41 513.48 633.90 502.00 631.00&#xA;C 493.85 641.92 470.93 650.95 461.00 638.00&#xA;C 455.81 640.07 445.69 648.18 440.25 640.75 C 434.82 633.31 429.42 637.99 424.00 644.00&#xA;C 421.67 641.49 424.82 638.90 424.00 636.00&#xA;C 417.10 643.33 399.47 649.62 396.00 636.00&#xA;C 388.80 641.65 371.32 648.86 368.00 636.00&#xA;C 374.44 642.55 383.62 636.46 374.00 631.00&#xA;C 364.60 637.85 347.55 652.18 339.00 638.00&#xA;C 332.54 648.95 323.40 634.14 334.00 631.00&#xA;C 334.42 634.31 331.08 636.52 332.00 640.00&#xA;C 337.27 638.55 338.66 632.55 343.00 630.00&#xA;C 344.62 636.52 340.17 643.21 351.22 641.22 C 362.28 639.23 369.95 628.71 379.00 623.00&#xA;M 401.00 624.00 &#xA;C 401.90 627.23 398.66 628.62 396.00 628.00&#xA;C 397.19 626.30 398.65 623.88 401.00 624.00&#xA;M 652.00 745.00 &#xA;C 663.42 745.00 675.67 744.94 687.00 745.00 C 698.33 745.06 710.97 744.84 722.00 745.00 C 733.03 745.16 745.06 744.79 755.00 743.00 C 764.95 741.21 771.76 738.02 779.75 732.75 C 787.73 727.47 790.68 721.23 795.30 713.31 C 799.93 705.38 800.09 694.55 803.00 686.00 C 805.90 677.44 801.91 660.19 812.00 659.00&#xA;C 812.37 689.59 809.82 719.45 810.00 750.00&#xA;C 756.00 750.00 702.00 750.00 648.00 750.00&#xA;C 648.04 750.00 648.00 751.00 648.00 751.00&#xA;C 638.05 767.00 629.39 783.69 620.00 800.00&#xA;C 587.39 856.69 555.29 914.06 522.00 970.00&#xA;C 500.13 931.25 477.17 892.97 456.00 854.00&#xA;C 452.77 848.33 449.31 842.81 446.08 836.92 C 442.85 831.04 438.97 825.20 435.70 819.30 C 432.43 813.41 428.96 807.20 425.69 801.31 C 422.43 795.41 418.96 790.21 415.70 784.30 C 412.44 778.40 408.88 772.27 405.70 766.31 C 402.51 760.34 398.39 754.73 395.23 748.77 C 392.07 742.81 388.39 736.65 385.23 730.77 C 382.07 724.89 378.25 719.59 375.23 713.77 C 372.21 707.95 367.96 701.51 365.23 695.77 C 362.50 690.03 356.69 683.63 355.08 677.92 C 353.46 672.22 344.07 665.62 345.00 660.00&#xA;C 345.45 657.27 361.69 659.55 368.00 659.00 C 374.31 658.45 387.34 659.26 395.00 659.00 C 402.66 658.74 412.67 659.11 421.00 659.00 C 429.33 658.89 439.39 659.05 448.00 659.00 C 456.61 658.95 465.25 659.02 474.00 659.00 C 482.75 658.98 492.19 659.01 501.00 659.00 C 509.81 658.99 518.13 659.00 527.00 659.00 C 535.87 659.00 545.07 659.00 554.00 659.00 C 562.93 659.00 572.05 659.00 581.00 659.00&#xA;C 598.67 659.00 616.33 659.00 634.00 659.00&#xA;C 656.00 659.00 678.00 659.00 700.00 659.00&#xA;C 684.92 687.97 666.73 715.82 652.00 745.00&#xA;M 263.00 688.00 &#xA;C 259.47 688.49 254.77 683.60 252.25 688.25 C 249.73 692.90 255.64 696.87 259.00 694.00&#xA;C 252.28 691.22 259.76 688.80 264.00 690.00&#xA;C 264.27 698.48 251.25 701.53 248.23 692.77 C 245.21 684.01 260.83 678.40 263.00 688.00&#xA;M 283.00 698.00 &#xA;C 281.05 696.64 281.12 684.32 283.00 683.00&#xA;C 284.79 681.75 288.99 683.94 291.00 683.00&#xA;C 292.44 687.32 287.18 684.81 286.00 687.00&#xA;C 285.25 690.84 291.72 687.06 291.00 691.00&#xA;C 282.30 693.23 289.49 693.71 291.00 698.00&#xA;C 288.33 698.00 285.67 698.00 283.00 698.00&#xA;M 318.00 690.00 &#xA;C 317.94 686.77 316.94 681.57 322.00 683.00&#xA;C 322.00 688.00 322.00 693.00 322.00 698.00&#xA;C 317.02 699.46 317.08 692.96 314.00 691.00&#xA;C 314.06 694.23 315.06 699.44 310.00 698.00&#xA;C 310.00 693.00 310.00 688.00 310.00 683.00&#xA;C 314.87 681.62 315.37 687.77 318.00 690.00&#xA;M 350.00 683.00 &#xA;C 351.44 687.32 346.18 684.81 345.00 687.00&#xA;C 344.25 690.84 350.72 687.06 350.00 691.00&#xA;C 341.30 693.23 348.49 693.71 350.00 698.00&#xA;C 347.00 698.00 344.00 698.00 341.00 698.00&#xA;C 341.00 693.00 341.00 688.00 341.00 683.00&#xA;C 344.00 683.00 347.00 683.00 350.00 683.00&#xA;M 307.00 709.00 &#xA;C 304.10 709.90 302.94 706.08 300.00 707.00&#xA;C 301.02 710.12 310.96 712.05 307.22 717.22 C 303.48 722.39 295.09 718.94 295.00 714.00&#xA;C 298.52 712.65 302.68 720.93 304.00 714.00&#xA;C 299.82 713.87 293.68 710.28 296.78 705.78 C 299.88 701.28 307.67 704.13 307.00 709.00&#xA;M 335.00 704.00 &#xA;C 336.44 708.32 331.18 705.81 330.00 708.00&#xA;C 329.25 711.84 335.72 708.06 335.00 712.00&#xA;C 326.30 714.24 333.49 714.71 335.00 719.00&#xA;C 332.00 719.00 329.00 719.00 326.00 719.00&#xA;C 326.00 714.00 326.00 709.00 326.00 704.00&#xA;C 329.00 704.00 332.00 704.00 335.00 704.00&#xA;M 365.00 719.00 &#xA;C 362.34 719.65 358.89 718.02 359.00 715.00&#xA;C 357.76 717.01 357.85 720.21 354.00 719.00&#xA;C 354.00 714.00 354.00 709.00 354.00 704.00&#xA;C 367.89 700.60 360.54 713.18 365.00 719.00 Z"/>
  </g>
  <g fill="None" fill-opacity="0.0" stroke="#4E4874" stroke-opacity="1.00" stroke-width="0.3">
    <path d="&#xA;M 292.00 553.00 &#xA;C 297.44 524.22 294.62 491.94 295.00 462.00 C 295.38 432.06 295.12 397.32 295.00 368.00 C 294.88 338.68 295.69 301.36 295.00 274.00 C 294.31 246.64 304.15 207.32 270.00 205.00&#xA;C 262.37 204.48 254.64 205.39 247.00 205.00&#xA;C 247.00 203.33 247.00 201.67 247.00 200.00&#xA;C 250.75 196.09 260.22 200.04 266.00 199.00 C 271.78 197.96 280.66 199.48 287.00 199.00 C 293.34 198.52 300.39 199.17 307.00 199.00 C 313.61 198.83 321.29 199.00 328.00 199.00&#xA;C 330.45 197.79 327.86 188.25 328.60 185.25 C 329.35 182.24 328.09 174.93 328.60 171.25 C 329.11 167.57 327.99 160.95 328.60 157.25 C 329.22 153.55 327.48 146.33 328.60 143.25 C 329.73 140.17 326.05 130.46 329.00 129.00&#xA;C 233.33 129.00 137.67 129.00 42.00 129.00&#xA;C 120.69 271.06 203.95 411.16 283.00 553.00&#xA;C 286.00 553.00 289.00 553.00 292.00 553.00 Z"/>
  </g>
  <g fill="None" fill-opacity="0.0" stroke="#454F6A" stroke-opacity="1.00" stroke-width="0.3">
    <path d="&#xA;M 328.00 199.00 &#xA;C 354.40 199.00 382.46 197.53 408.00 200.00&#xA;C 421.01 200.00 433.38 200.51 446.00 202.00&#xA;C 443.13 199.78 446.33 190.80 445.60 187.25 C 444.88 183.70 445.41 176.76 445.20 172.75 C 444.99 168.75 445.53 162.15 445.40 158.25 C 445.26 154.34 445.09 146.94 445.80 143.75 C 446.51 140.56 443.10 130.44 446.00 129.00&#xA;C 407.00 129.00 368.00 129.00 329.00 129.00&#xA;C 326.05 130.46 329.73 140.17 328.60 143.25 C 327.48 146.33 329.22 153.55 328.60 157.25 C 327.99 160.95 329.11 167.57 328.60 171.25 C 328.09 174.93 329.35 182.24 328.60 185.25 C 327.86 188.25 330.45 197.79 328.00 199.00 Z"/>
  </g>
  <g fill="None" fill-opacity="0.0" stroke="#3D5661" stroke-opacity="1.00" stroke-width="0.3">
    <path d="&#xA;M 446.00 202.00 &#xA;C 495.60 207.84 547.42 235.71 546.00 293.00 C 544.58 350.29 484.54 374.12 434.00 373.00&#xA;C 477.92 374.84 535.59 385.51 554.77 431.23 C 573.96 476.95 555.03 533.88 509.00 553.00&#xA;C 533.00 553.00 557.00 553.00 581.00 553.00&#xA;C 579.00 531.07 581.90 509.07 581.00 487.00 C 580.10 464.93 581.44 442.14 581.00 420.00&#xA;C 580.47 393.38 555.87 383.98 532.00 386.00&#xA;C 532.95 376.92 546.56 381.90 555.00 381.00 C 563.44 380.10 574.01 381.45 583.00 381.00 C 591.99 380.55 602.84 381.34 612.00 381.00&#xA;C 609.04 379.53 612.80 370.12 611.66 366.32 C 610.52 362.52 612.16 357.12 611.93 351.92 C 611.71 346.72 611.29 343.81 611.40 337.25 C 611.50 330.69 611.62 331.21 611.60 322.25 C 611.59 313.28 611.50 301.37 611.60 292.25 C 611.71 283.12 611.18 286.27 611.40 277.26 C 611.62 268.25 611.67 257.44 611.40 248.26 C 611.13 239.07 611.87 242.22 611.66 233.32 C 611.45 224.42 611.70 213.16 611.40 204.25 C 611.09 195.34 611.61 197.26 611.60 189.25 C 611.59 181.24 611.16 183.33 611.40 174.25 C 611.63 165.17 611.68 153.47 611.40 144.26 C 611.13 135.04 611.62 137.58 612.00 129.00&#xA;C 556.67 129.00 501.33 129.00 446.00 129.00&#xA;C 443.10 130.44 446.51 140.56 445.80 143.75 C 445.09 146.94 445.26 154.34 445.40 158.25 C 445.53 162.15 444.99 168.75 445.20 172.75 C 445.41 176.76 444.88 183.70 445.60 187.25 C 446.33 190.80 443.13 199.78 446.00 202.00 Z"/>
  </g>
  <g fill="None" fill-opacity="0.0" stroke="#365B59" stroke-opacity="1.00" stroke-width="0.3">
    <path d="&#xA;M 612.00 381.00 &#xA;C 635.67 381.00 659.33 381.00 683.00 381.00&#xA;C 682.50 391.05 666.35 384.61 659.00 388.00 C 651.64 391.39 644.44 393.19 639.75 400.75 C 635.05 408.30 633.54 416.20 634.00 426.00 C 634.46 435.80 633.78 447.81 634.00 458.00 C 634.22 468.20 633.90 478.60 634.00 489.00 C 634.10 499.40 633.95 510.47 634.00 521.00 C 634.05 531.53 633.96 542.44 634.00 553.00&#xA;C 666.00 553.00 698.00 553.00 730.00 553.00&#xA;C 727.11 551.57 730.44 541.84 729.60 538.25 C 728.77 534.65 729.67 528.67 729.20 523.75 C 728.73 518.83 730.12 515.56 729.40 509.25 C 728.67 502.94 730.40 503.42 729.80 494.75 C 729.20 486.08 729.70 473.96 729.40 465.25 C 729.10 456.54 729.83 457.94 729.80 450.75 C 729.78 443.56 729.07 443.49 729.60 436.25 C 730.14 429.01 728.62 430.63 729.20 421.75 C 729.78 412.87 729.23 401.67 729.80 392.75 C 730.37 383.83 728.92 387.06 729.20 377.75 C 729.48 368.45 729.72 358.12 729.80 348.75 C 729.88 339.38 729.26 328.99 729.20 319.75 C 729.14 310.52 729.31 314.47 729.40 305.25 C 729.49 296.03 729.66 284.96 729.20 275.75 C 728.74 266.54 729.43 270.27 729.40 261.25 C 729.36 252.22 729.47 240.51 729.80 231.75 C 730.13 223.00 729.24 223.79 729.60 217.25 C 729.96 210.71 729.30 207.89 729.40 202.25 C 729.49 196.61 729.64 192.83 729.80 187.75 C 729.97 182.68 728.96 177.92 729.60 173.25 C 730.25 168.58 728.52 162.90 729.20 158.75 C 729.88 154.60 728.52 147.42 729.40 144.25 C 730.27 141.07 727.32 130.33 730.00 129.00&#xA;C 690.67 129.00 651.33 129.00 612.00 129.00&#xA;C 611.62 137.58 611.13 135.04 611.40 144.26 C 611.68 153.47 611.63 165.17 611.40 174.25 C 611.16 183.33 611.59 181.24 611.60 189.25 C 611.61 197.26 611.09 195.34 611.40 204.25 C 611.70 213.16 611.45 224.42 611.66 233.32 C 611.87 242.22 611.13 239.07 611.40 248.26 C 611.67 257.44 611.62 268.25 611.40 277.26 C 611.18 286.27 611.71 283.12 611.60 292.25 C 611.50 301.37 611.59 313.28 611.60 322.25 C 611.62 331.21 611.50 330.69 611.40 337.25 C 611.29 343.81 611.71 346.72 611.93 351.92 C 612.16 357.12 610.52 362.52 611.66 366.32 C 612.80 370.12 609.04 379.53 612.00 381.00 Z"/>
  </g>
  <g fill="None" fill-opacity="0.0" stroke="#305F53" stroke-opacity="1.00" stroke-width="0.3">
    <path d="&#xA;M 730.00 553.00 &#xA;C 741.16 553.00 759.96 556.50 765.08 546.08 C 770.20 535.65 775.14 528.85 780.23 519.23 C 785.32 509.61 790.53 501.89 795.70 492.69 C 800.86 483.50 805.50 474.73 810.75 465.75 C 815.99 456.76 820.84 448.05 826.23 439.23 C 831.62 430.41 836.24 421.01 841.00 412.00&#xA;C 841.38 402.68 839.24 390.93 840.39 381.25 C 841.55 371.56 840.39 374.72 840.39 365.25 C 840.40 355.78 839.98 343.50 840.59 334.25 C 841.20 325.00 840.23 325.41 840.59 318.25 C 840.95 311.09 840.43 308.86 840.76 302.75 C 841.09 296.64 839.98 292.30 840.76 286.75 C 841.53 281.20 839.50 276.55 840.27 271.25 C 841.03 265.94 840.06 261.12 839.81 255.75 C 839.55 250.39 841.29 244.55 840.60 239.25 C 839.92 233.95 841.03 229.06 840.80 223.75 C 840.57 218.44 840.31 212.98 840.80 207.75 C 841.29 202.53 839.62 197.39 840.39 192.25 C 841.17 187.10 839.57 181.73 840.19 176.75 C 840.82 171.77 839.68 165.28 840.19 160.75 C 840.71 156.22 839.37 148.83 840.59 145.25 C 841.81 141.66 837.25 130.72 841.00 129.00&#xA;C 804.00 129.00 767.00 129.00 730.00 129.00&#xA;C 727.32 130.33 730.27 141.07 729.40 144.25 C 728.52 147.42 729.88 154.60 729.20 158.75 C 728.52 162.90 730.25 168.58 729.60 173.25 C 728.96 177.92 729.97 182.68 729.80 187.75 C 729.64 192.83 729.49 196.61 729.40 202.25 C 729.30 207.89 729.96 210.71 729.60 217.25 C 729.24 223.79 730.13 223.00 729.80 231.75 C 729.47 240.51 729.36 252.22 729.40 261.25 C 729.43 270.27 728.74 266.54 729.20 275.75 C 729.66 284.96 729.49 296.03 729.40 305.25 C 729.31 314.47 729.14 310.52 729.20 319.75 C 729.26 328.99 729.88 339.38 729.80 348.75 C 729.72 358.12 729.48 368.45 729.20 377.75 C 728.92 387.06 730.37 383.83 729.80 392.75 C 729.23 401.67 729.78 412.87 729.20 421.75 C 728.62 430.63 730.14 429.01 729.60 436.25 C 729.07 443.49 729.78 443.56 729.80 450.75 C 729.83 457.94 729.10 456.54 729.40 465.25 C 729.70 473.96 729.20 486.08 729.80 494.75 C 730.40 503.42 728.67 502.94 729.40 509.25 C 730.12 515.56 728.73 518.83 729.20 523.75 C 729.67 528.67 728.77 534.65 729.60 538.25 C 730.44 541.84 727.11 551.57 730.00 553.00 Z"/>
  </g>
  <g fill="None" fill-opacity="0.0" stroke="#2A644C" stroke-opacity="1.00" stroke-width="0.3">
    <path d="&#xA;M 841.00 412.00 &#xA;C 895.50 318.28 949.71 223.50 1003.00 129.00&#xA;C 949.00 129.00 895.00 129.00 841.00 129.00&#xA;C 837.25 130.72 841.81 141.66 840.59 145.25 C 839.37 148.83 840.71 156.22 840.19 160.75 C 839.68 165.28 840.82 171.77 840.19 176.75 C 839.57 181.73 841.17 187.10 840.39 192.25 C 839.62 197.39 841.29 202.53 840.80 207.75 C 840.31 212.98 840.57 218.44 840.80 223.75 C 841.03 229.06 839.92 233.95 840.60 239.25 C 841.29 244.55 839.55 250.39 839.81 255.75 C 840.06 261.12 841.03 265.94 840.27 271.25 C 839.50 276.55 841.53 281.20 840.76 286.75 C 839.98 292.30 841.09 296.64 840.76 302.75 C 840.43 308.86 840.95 311.09 840.59 318.25 C 840.23 325.41 841.20 325.00 840.59 334.25 C 839.98 343.50 840.40 355.78 840.39 365.25 C 840.39 374.72 841.55 371.56 840.39 381.25 C 839.24 390.93 841.38 402.68 841.00 412.00 Z"/>
  </g>
  <g fill="None" fill-opacity="0.0" stroke="#9D9FB0" stroke-opacity="1.00" stroke-width="0.3">
    <path d="&#xA;M 247.00 200.00 &#xA;C 247.04 199.86 248.00 200.00 248.00 200.00&#xA;C 301.33 200.00 354.67 200.00 408.00 200.00&#xA;C 382.46 197.53 354.40 199.00 328.00 199.00&#xA;C 321.29 199.00 313.61 198.83 307.00 199.00 C 300.39 199.17 293.34 198.52 287.00 199.00 C 280.66 199.48 271.78 197.96 266.00 199.00 C 260.22 200.04 250.75 196.09 247.00 200.00 Z"/>
  </g>
  <g fill="None" fill-opacity="0.0" stroke="#CACAD3" stroke-opacity="1.00" stroke-width="0.3">
    <path d="&#xA;M 270.00 205.00 &#xA;C 263.38 203.81 255.32 203.81 248.00 204.00&#xA;C 248.00 202.67 248.00 201.33 248.00 200.00&#xA;C 248.00 200.00 247.04 199.86 247.00 200.00&#xA;C 247.00 201.67 247.00 203.33 247.00 205.00&#xA;C 254.64 205.39 262.37 204.48 270.00 205.00 Z"/>
  </g>
  <g fill="None" fill-opacity="0.0" stroke="#F3F3F3" stroke-opacity="1.00" stroke-width="0.3">
    <path d="&#xA;M 270.00 205.00 &#xA;C 304.15 207.32 294.31 246.64 295.00 274.00 C 295.69 301.36 294.88 338.68 295.00 368.00 C 295.12 397.32 295.38 432.06 295.00 462.00 C 294.62 491.94 297.44 524.22 292.00 553.00&#xA;C 320.33 553.00 348.67 553.00 377.00 553.00&#xA;C 377.00 494.67 377.00 436.33 377.00 378.00&#xA;C 401.96 378.80 432.86 373.43 452.25 390.75 C 471.64 408.08 471.94 433.07 474.00 457.00&#xA;C 474.76 464.87 474.75 474.20 474.00 482.00&#xA;C 474.00 490.73 472.90 502.38 471.22 510.22 C 469.54 518.06 468.38 528.26 464.23 534.23 C 460.07 540.20 458.14 550.36 451.00 553.00&#xA;C 470.33 553.00 489.67 553.00 509.00 553.00&#xA;C 555.03 533.88 573.96 476.95 554.77 431.23 C 535.59 385.51 477.92 374.84 434.00 373.00&#xA;C 484.54 374.12 544.58 350.29 546.00 293.00 C 547.42 235.71 495.60 207.84 446.00 202.00&#xA;C 433.38 200.51 421.01 200.00 408.00 200.00&#xA;C 354.67 200.00 301.33 200.00 248.00 200.00&#xA;C 248.00 201.33 248.00 202.67 248.00 204.00&#xA;C 255.32 203.81 263.38 203.81 270.00 205.00&#xA;M 377.00 373.00 &#xA;C 377.00 317.00 377.00 261.00 377.00 205.00&#xA;C 406.82 201.79 442.92 207.72 452.32 239.68 C 461.73 271.64 461.08 305.22 452.23 337.23 C 443.38 369.24 407.25 376.56 377.00 373.00 Z"/>
  </g>
  <g fill="None" fill-opacity="0.0" stroke="#445169" stroke-opacity="1.00" stroke-width="0.3">
    <path d="&#xA;M 377.00 373.00 &#xA;C 407.25 376.56 443.38 369.24 452.23 337.23 C 461.08 305.22 461.73 271.64 452.32 239.68 C 442.92 207.72 406.82 201.79 377.00 205.00&#xA;C 377.00 261.00 377.00 317.00 377.00 373.00 Z"/>
  </g>
  <g fill="None" fill-opacity="0.0" stroke="#435168" stroke-opacity="1.00" stroke-width="0.3">
    <path d="&#xA;M 377.00 553.00 &#xA;C 401.67 553.00 426.33 553.00 451.00 553.00&#xA;C 458.14 550.36 460.07 540.20 464.23 534.23 C 468.38 528.26 469.54 518.06 471.22 510.22 C 472.90 502.38 474.00 490.73 474.00 482.00&#xA;C 474.00 473.67 474.00 465.33 474.00 457.00&#xA;C 471.94 433.07 471.64 408.08 452.25 390.75 C 432.86 373.43 401.96 378.80 377.00 378.00&#xA;C 377.00 436.33 377.00 494.67 377.00 553.00 Z"/>
  </g>
  <g fill="None" fill-opacity="0.0" stroke="#FDFDFD" stroke-opacity="1.00" stroke-width="0.3">
    <path d="&#xA;M 581.00 420.00 &#xA;C 583.54 440.99 582.33 464.14 582.00 486.00 C 581.67 507.86 583.97 531.18 582.00 553.00&#xA;C 599.33 552.97 616.67 553.00 634.00 553.00&#xA;C 633.96 542.44 634.05 531.53 634.00 521.00 C 633.95 510.47 634.10 499.40 634.00 489.00 C 633.90 478.60 634.22 468.20 634.00 458.00 C 633.78 447.81 634.46 435.80 634.00 426.00 C 633.54 416.20 635.05 408.30 639.75 400.75 C 644.44 393.19 651.64 391.39 659.00 388.00 C 666.35 384.61 682.50 391.05 683.00 381.00&#xA;C 659.33 381.00 635.67 381.00 612.00 381.00&#xA;C 602.84 381.34 591.99 380.55 583.00 381.00 C 574.01 381.45 563.44 380.10 555.00 381.00 C 546.56 381.90 532.95 376.92 532.00 386.00&#xA;C 555.87 383.98 580.47 393.38 581.00 420.00 Z"/>
  </g>
  <g fill="None" fill-opacity="0.0" stroke="#A8B5B8" stroke-opacity="1.00" stroke-width="0.3">
    <path d="&#xA;M 581.00 553.00 &#xA;C 581.00 553.00 581.50 553.00 582.00 553.00&#xA;C 583.97 531.18 581.67 507.86 582.00 486.00 C 582.33 464.14 583.54 440.99 581.00 420.00&#xA;C 581.44 442.14 580.10 464.93 581.00 487.00 C 581.90 509.07 579.00 531.07 581.00 553.00 Z"/>
  </g>
  <g fill="None" fill-opacity="0.0" stroke="#949DA7" stroke-opacity="1.00" stroke-width="0.3">
    <path d="&#xA;M 474.00 482.00 &#xA;C 474.75 474.20 474.76 464.87 474.00 457.00&#xA;C 474.00 465.33 474.00 473.67 474.00 482.00 Z"/>
  </g>
  <g fill="None" fill-opacity="0.0" stroke="#D9D9D9" stroke-opacity="1.00" stroke-width="0.3">
    <path d="&#xA;M 313.00 619.00 &#xA;C 322.15 617.73 336.16 615.12 337.00 603.00 C 337.83 590.88 322.80 586.22 312.00 588.00 C 301.20 589.78 292.09 590.02 283.92 599.92 C 275.75 609.82 294.19 615.08 299.00 604.00&#xA;C 294.16 602.92 289.88 609.77 284.00 608.00&#xA;C 284.23 599.54 291.98 596.11 298.98 592.98 C 305.97 589.85 317.26 589.64 324.78 591.22 C 332.29 592.81 338.06 602.10 331.75 608.75 C 325.44 615.40 319.47 615.59 310.00 617.00 C 300.53 618.41 308.28 604.36 307.00 599.00&#xA;C 303.31 603.38 302.90 610.45 301.00 616.00&#xA;C 298.58 616.68 293.10 614.33 293.00 618.00&#xA;C 305.63 618.98 292.49 631.95 295.00 638.00&#xA;C 299.60 633.82 299.90 626.61 302.00 621.00&#xA;C 310.40 619.03 332.74 630.99 321.22 639.22 C 309.71 647.46 294.68 635.74 284.00 638.00&#xA;C 295.69 642.81 307.18 647.07 320.92 641.92 C 334.66 636.78 322.24 621.20 313.00 619.00 Z"/>
  </g>
  <g fill="None" fill-opacity="0.0" stroke="#DADADA" stroke-opacity="1.00" stroke-width="0.3">
    <path d="&#xA;M 609.00 641.00 &#xA;C 616.73 632.66 624.19 624.31 634.93 619.93 C 645.67 615.54 655.57 611.87 661.23 599.23 C 666.89 586.59 647.73 590.61 641.25 601.25 C 634.77 611.89 627.43 622.27 613.68 617.32 C 599.93 612.38 607.33 597.78 616.00 591.00&#xA;C 607.91 593.31 601.16 601.81 603.08 610.92 C 604.99 620.04 616.54 620.99 624.00 622.00&#xA;C 618.27 628.82 613.08 633.97 605.07 638.07 C 597.06 642.17 584.13 631.02 576.08 637.08 C 568.03 643.14 586.79 650.14 593.98 644.98 C 601.16 639.81 614.53 645.36 622.99 643.99 C 631.45 642.62 641.87 641.05 646.00 633.00&#xA;C 635.08 639.87 622.46 642.41 609.00 641.00&#xA;M 661.00 593.00 &#xA;C 657.70 605.50 644.20 616.44 632.00 617.00&#xA;C 640.57 608.24 647.16 593.12 661.00 593.00&#xA;M 596.00 641.00 &#xA;C 590.70 644.67 581.79 643.47 576.00 641.00&#xA;C 579.78 635.46 590.04 639.65 596.00 641.00 Z"/>
  </g>
  <g fill="None" fill-opacity="0.0" stroke="#3F3D3B" stroke-opacity="1.00" stroke-width="0.3">
    <path d="&#xA;M 661.00 593.00 &#xA;C 647.16 593.12 640.57 608.24 632.00 617.00&#xA;C 644.20 616.44 657.70 605.50 661.00 593.00 Z"/>
  </g>
  <g fill="None" fill-opacity="0.0" stroke="#DADAD9" stroke-opacity="1.00" stroke-width="0.3">
    <path d="&#xA;M 746.00 605.00 &#xA;C 733.95 606.90 733.57 623.15 733.00 633.00&#xA;C 726.31 626.22 719.47 635.15 712.07 639.07 C 704.68 643.00 693.08 638.18 696.00 628.00&#xA;C 681.73 632.10 666.31 649.14 651.00 638.00&#xA;C 654.01 637.45 666.20 631.86 661.22 627.78 C 656.24 623.70 647.43 632.43 649.03 637.97 C 650.63 643.51 661.08 645.20 666.98 643.98 C 672.87 642.75 678.79 640.17 684.00 637.00&#xA;C 681.01 646.23 692.82 645.05 694.00 638.00&#xA;C 701.25 647.42 713.11 642.96 721.00 637.00&#xA;C 719.35 649.70 731.25 641.10 735.00 637.00&#xA;C 739.86 649.90 761.69 643.24 765.00 633.00&#xA;C 760.03 637.95 739.79 647.14 737.00 636.00 C 734.22 624.86 750.59 616.89 746.00 605.00&#xA;M 736.00 626.00 &#xA;C 737.45 619.75 738.25 612.90 743.00 608.00&#xA;C 744.10 613.45 739.90 621.50 736.00 626.00&#xA;M 660.00 630.00 &#xA;C 658.80 632.92 655.64 633.38 653.00 634.00&#xA;C 654.41 631.42 656.84 629.25 660.00 630.00&#xA;M 694.00 631.00 &#xA;C 691.86 634.75 690.53 639.40 687.00 642.00&#xA;C 684.23 637.61 690.14 632.24 694.00 631.00&#xA;M 730.00 633.00 &#xA;C 733.09 634.87 727.40 642.71 724.32 640.66 C 721.25 638.61 726.02 630.59 730.00 633.00 Z"/>
  </g>
  <g fill="None" fill-opacity="0.0" stroke="#494745" stroke-opacity="1.00" stroke-width="0.3">
    <path d="&#xA;M 736.00 626.00 &#xA;C 739.90 621.50 744.10 613.45 743.00 608.00&#xA;C 738.25 612.90 737.45 619.75 736.00 626.00 Z"/>
  </g>
  <g fill="None" fill-opacity="0.0" stroke="#DADADA" stroke-opacity="1.00" stroke-width="0.3">
    <path d="&#xA;M 379.00 623.00 &#xA;C 369.95 628.71 362.28 639.23 351.22 641.22 C 340.17 643.21 344.62 636.52 343.00 630.00&#xA;C 338.66 632.55 337.27 638.55 332.00 640.00&#xA;C 331.08 636.52 334.42 634.31 334.00 631.00&#xA;C 323.40 634.14 332.54 648.95 339.00 638.00&#xA;C 347.55 652.18 364.60 637.85 374.00 631.00&#xA;C 383.62 636.46 374.44 642.55 368.00 636.00&#xA;C 371.32 648.86 388.80 641.65 396.00 636.00&#xA;C 399.47 649.62 417.10 643.33 424.00 636.00&#xA;C 424.82 638.90 421.67 641.49 424.00 644.00&#xA;C 429.42 637.99 434.82 633.31 440.25 640.75 C 445.69 648.18 455.81 640.07 461.00 638.00&#xA;C 470.93 650.95 493.85 641.92 502.00 631.00&#xA;C 513.48 633.90 505.28 644.41 498.00 636.00&#xA;C 501.89 650.69 524.70 639.19 532.00 631.00&#xA;C 542.91 635.29 533.89 643.15 527.00 636.00&#xA;C 531.04 649.98 554.61 640.91 558.00 631.00&#xA;C 552.76 633.75 547.45 637.85 542.00 640.00&#xA;C 541.03 636.34 539.12 632.12 535.00 630.00&#xA;C 534.67 627.09 539.14 626.20 538.00 623.00&#xA;C 529.30 628.74 521.76 637.92 511.00 640.00&#xA;C 513.05 636.39 509.91 631.65 506.00 631.00&#xA;C 504.91 627.48 510.07 626.50 509.00 623.00&#xA;C 502.10 626.66 496.54 635.15 489.02 638.02 C 481.51 640.90 467.19 645.82 464.00 636.00&#xA;C 478.24 638.51 473.97 623.41 466.08 629.08 C 458.19 634.75 455.26 641.65 446.01 639.99 C 436.76 638.33 436.44 627.61 427.00 637.00&#xA;C 428.74 626.44 419.71 636.14 413.69 639.69 C 407.68 643.25 394.04 640.92 400.00 630.00&#xA;C 394.51 633.18 388.93 637.77 383.00 640.00&#xA;C 382.03 636.34 380.12 632.12 376.00 630.00&#xA;C 375.67 627.08 380.14 626.21 379.00 623.00&#xA;M 472.00 630.00 &#xA;C 471.70 632.78 467.57 633.91 465.00 634.00&#xA;C 466.41 631.42 468.84 629.25 472.00 630.00 Z"/>
  </g>
  <g fill="None" fill-opacity="0.0" stroke="#D3D3D2" stroke-opacity="1.00" stroke-width="0.3">
    <path d="&#xA;M 401.00 624.00 &#xA;C 398.65 623.88 397.19 626.30 396.00 628.00&#xA;C 398.66 628.62 401.90 627.23 401.00 624.00 Z"/>
  </g>
  <g fill="None" fill-opacity="0.0" stroke="#4C4A48" stroke-opacity="1.00" stroke-width="0.3">
    <path d="&#xA;M 472.00 630.00 &#xA;C 468.84 629.25 466.41 631.42 465.00 634.00&#xA;C 467.57 633.91 471.70 632.78 472.00 630.00 Z"/>
  </g>
  <g fill="None" fill-opacity="0.0" stroke="#434140" stroke-opacity="1.00" stroke-width="0.3">
    <path d="&#xA;M 660.00 630.00 &#xA;C 656.84 629.25 654.41 631.42 653.00 634.00&#xA;C 655.64 633.38 658.80 632.92 660.00 630.00 Z"/>
  </g>
  <g fill="None" fill-opacity="0.0" stroke="#484644" stroke-opacity="1.00" stroke-width="0.3">
    <path d="&#xA;M 694.00 631.00 &#xA;C 690.14 632.24 684.23 637.61 687.00 642.00&#xA;C 690.53 639.40 691.86 634.75 694.00 631.00 Z"/>
  </g>
  <g fill="None" fill-opacity="0.0" stroke="#413F3D" stroke-opacity="1.00" stroke-width="0.3">
    <path d="&#xA;M 730.00 633.00 &#xA;C 726.02 630.59 721.25 638.61 724.32 640.66 C 727.40 642.71 733.09 634.87 730.00 633.00 Z"/>
  </g>
  <g fill="None" fill-opacity="0.0" stroke="#444240" stroke-opacity="1.00" stroke-width="0.3">
    <path d="&#xA;M 596.00 641.00 &#xA;C 590.04 639.65 579.78 635.46 576.00 641.00&#xA;C 581.79 643.47 590.70 644.67 596.00 641.00 Z"/>
  </g>
  <g fill="None" fill-opacity="0.0" stroke="#3D434B" stroke-opacity="1.00" stroke-width="0.3">
    <path d="&#xA;M 345.00 660.00 &#xA;C 356.24 663.68 370.03 658.45 382.00 660.00 C 393.97 661.55 407.70 659.42 420.00 660.00 C 432.30 660.58 445.61 660.00 458.00 660.00&#xA;C 478.38 660.00 498.60 660.71 519.00 660.00 C 539.40 659.29 560.65 661.85 581.00 660.00&#xA;C 580.75 659.75 581.00 659.00 581.00 659.00&#xA;C 572.05 659.00 562.93 659.00 554.00 659.00 C 545.07 659.00 535.87 659.00 527.00 659.00 C 518.13 659.00 509.81 658.99 501.00 659.00 C 492.19 659.01 482.75 658.98 474.00 659.00 C 465.25 659.02 456.61 658.95 448.00 659.00 C 439.39 659.05 429.33 658.89 421.00 659.00 C 412.67 659.11 402.66 658.74 395.00 659.00 C 387.34 659.26 374.31 658.45 368.00 659.00 C 361.69 659.55 345.45 657.27 345.00 660.00 Z"/>
  </g>
  <g fill="None" fill-opacity="0.0" stroke="#908F8E" stroke-opacity="1.00" stroke-width="0.3">
    <path d="&#xA;M 581.00 660.00 &#xA;C 581.25 660.25 582.00 660.00 582.00 660.00&#xA;C 599.09 660.00 616.99 661.55 634.00 660.00&#xA;C 634.00 659.50 634.00 659.00 634.00 659.00&#xA;C 616.33 659.00 598.67 659.00 581.00 659.00&#xA;C 581.00 659.00 580.75 659.75 581.00 660.00 Z"/>
  </g>
  <g fill="None" fill-opacity="0.0" stroke="#375A5A" stroke-opacity="1.00" stroke-width="0.3">
    <path d="&#xA;M 634.00 660.00 &#xA;C 634.00 688.33 634.00 716.67 634.00 745.00&#xA;C 640.00 745.00 646.00 745.00 652.00 745.00&#xA;C 666.73 715.82 684.92 687.97 700.00 659.00&#xA;C 678.00 659.00 656.00 659.00 634.00 659.00&#xA;C 634.00 659.00 634.00 659.50 634.00 660.00 Z"/>
  </g>
  <g fill="None" fill-opacity="0.0" stroke="#FCFCFC" stroke-opacity="1.00" stroke-width="0.3">
    <path d="&#xA;M 652.00 745.00 &#xA;C 646.00 745.00 640.00 745.00 634.00 745.00&#xA;C 634.00 716.67 634.00 688.33 634.00 660.00&#xA;C 616.99 661.55 599.09 660.00 582.00 660.00&#xA;C 583.45 676.08 582.48 694.71 581.00 710.00&#xA;C 581.00 736.19 556.36 748.70 532.00 745.00&#xA;C 532.00 746.67 532.00 748.33 532.00 750.00&#xA;C 570.67 750.00 609.33 750.00 648.00 750.00&#xA;C 702.00 750.00 756.00 750.00 810.00 750.00&#xA;C 809.82 719.45 812.37 689.59 812.00 659.00&#xA;C 801.91 660.19 805.90 677.44 803.00 686.00 C 800.09 694.55 799.93 705.38 795.30 713.31 C 790.68 721.23 787.73 727.47 779.75 732.75 C 771.76 738.02 764.95 741.21 755.00 743.00 C 745.06 744.79 733.03 745.16 722.00 745.00 C 710.97 744.84 698.33 745.06 687.00 745.00 C 675.67 744.94 663.42 745.00 652.00 745.00 Z"/>
  </g>
  <g fill="None" fill-opacity="0.0" stroke="#445169" stroke-opacity="1.00" stroke-width="0.3">
    <path d="&#xA;M 456.00 854.00 &#xA;C 455.37 837.88 458.82 819.41 457.60 802.25 C 456.39 785.09 457.90 767.55 457.60 750.25 C 457.31 732.95 457.00 715.47 458.00 698.00&#xA;C 458.26 693.42 457.35 688.54 458.00 684.00&#xA;C 457.89 681.64 456.68 674.72 457.60 672.25 C 458.53 669.78 455.42 661.28 458.00 660.00&#xA;C 445.61 660.00 432.30 660.58 420.00 660.00 C 407.70 659.42 393.97 661.55 382.00 660.00 C 370.03 658.45 356.24 663.68 345.00 660.00&#xA;C 344.07 665.62 353.46 672.22 355.08 677.92 C 356.69 683.63 362.50 690.03 365.23 695.77 C 367.96 701.51 372.21 707.95 375.23 713.77 C 378.25 719.59 382.07 724.89 385.23 730.77 C 388.39 736.65 392.07 742.81 395.23 748.77 C 398.39 754.73 402.51 760.34 405.70 766.31 C 408.88 772.27 412.44 778.40 415.70 784.30 C 418.96 790.21 422.43 795.41 425.69 801.31 C 428.96 807.20 432.43 813.41 435.70 819.30 C 438.97 825.20 442.85 831.04 446.08 836.92 C 449.31 842.81 452.77 848.33 456.00 854.00&#xA;M 377.00 692.00 &#xA;C 377.03 694.37 379.50 695.72 380.00 698.00&#xA;C 377.34 698.65 373.89 697.02 374.00 694.00&#xA;C 372.76 696.01 372.85 699.21 369.00 698.00&#xA;C 369.00 693.00 369.00 688.00 369.00 683.00&#xA;C 375.02 680.28 384.14 687.41 377.00 692.00&#xA;M 406.00 683.00 &#xA;C 407.69 688.08 409.70 693.09 412.00 698.00&#xA;C 405.80 695.42 402.59 694.60 397.00 698.00&#xA;C 399.85 693.28 399.36 683.72 406.00 683.00&#xA;M 440.00 683.00 &#xA;C 436.67 686.44 434.83 691.18 436.00 698.00&#xA;C 430.49 698.46 433.99 690.40 433.00 687.00&#xA;C 431.09 685.41 426.97 686.95 428.00 683.00&#xA;C 432.00 683.00 436.00 683.00 440.00 683.00&#xA;M 389.00 713.00 &#xA;C 392.32 710.43 390.55 702.33 397.00 704.00&#xA;C 393.58 708.74 394.20 719.09 387.00 719.00&#xA;C 386.48 713.67 382.85 709.29 382.00 704.00&#xA;C 387.41 702.73 386.81 709.84 389.00 713.00&#xA;M 418.00 704.00 &#xA;C 418.00 709.00 418.00 714.00 418.00 719.00&#xA;C 413.23 719.05 413.12 703.96 418.00 704.00&#xA;M 451.00 709.00 &#xA;C 447.63 708.18 439.38 705.13 440.03 712.03 C 440.67 718.92 448.47 713.68 452.00 714.00&#xA;C 448.49 721.57 437.48 720.39 437.01 711.99 C 436.54 703.60 448.89 700.50 451.00 709.00 Z"/>
  </g>
  <g fill="None" fill-opacity="0.0" stroke="#3E5562" stroke-opacity="1.00" stroke-width="0.3">
    <path d="&#xA;M 458.00 684.00 &#xA;C 458.05 683.65 458.65 683.07 459.00 683.00&#xA;C 459.97 682.82 461.03 683.15 462.00 683.00&#xA;C 462.00 688.00 462.00 693.00 462.00 698.00&#xA;C 461.00 698.00 460.00 698.00 459.00 698.00&#xA;C 458.51 697.94 458.00 698.00 458.00 698.00&#xA;C 457.00 715.47 457.31 732.95 457.60 750.25 C 457.90 767.55 456.39 785.09 457.60 802.25 C 458.82 819.41 455.37 837.88 456.00 854.00&#xA;C 477.17 892.97 500.13 931.25 522.00 970.00&#xA;C 555.29 914.06 587.39 856.69 620.00 800.00&#xA;C 619.99 800.06 615.66 793.71 621.00 793.00&#xA;C 618.95 790.94 620.03 789.10 618.00 787.00&#xA;C 622.35 785.20 619.36 781.76 618.00 779.00&#xA;C 622.35 777.20 619.36 773.76 618.00 771.00&#xA;C 622.71 768.51 618.20 764.88 618.40 761.25 C 618.59 757.61 620.44 754.62 620.00 751.00&#xA;C 613.00 751.00 604.89 751.22 598.00 751.00 C 591.11 750.78 582.49 751.59 576.00 751.00 C 569.51 750.41 559.53 752.35 554.00 751.00 C 548.47 749.65 534.75 754.34 532.00 750.00&#xA;C 532.00 748.33 532.00 746.67 532.00 745.00&#xA;C 556.36 748.70 581.00 736.19 581.00 710.00&#xA;C 581.00 693.56 579.52 676.36 581.00 660.00&#xA;C 560.65 661.85 539.40 659.29 519.00 660.00 C 498.60 660.71 478.38 660.00 458.00 660.00&#xA;C 455.42 661.28 458.53 669.78 457.60 672.25 C 456.68 674.72 457.89 681.64 458.00 684.00&#xA;M 491.00 683.00 &#xA;C 500.48 685.55 494.74 701.67 485.33 697.67 C 475.92 693.67 481.42 680.43 491.00 683.00&#xA;M 515.00 698.00 &#xA;C 513.02 697.04 513.22 684.04 515.00 683.00&#xA;C 518.80 680.77 520.59 689.37 522.00 691.00&#xA;C 524.03 689.22 522.53 685.52 523.00 683.00&#xA;C 529.07 683.54 524.65 693.50 526.00 698.00&#xA;C 521.24 699.21 520.19 693.28 519.00 690.00&#xA;C 516.97 691.77 518.47 695.48 518.00 698.00&#xA;C 517.00 698.00 516.00 698.00 515.00 698.00&#xA;M 479.00 704.00 &#xA;C 480.44 708.32 475.18 705.81 474.00 708.00&#xA;C 473.25 711.84 479.72 708.06 479.00 712.00&#xA;C 470.30 714.23 477.49 714.71 479.00 719.00&#xA;C 476.00 719.00 473.00 719.00 470.00 719.00&#xA;C 470.00 714.00 470.00 709.00 470.00 704.00&#xA;C 473.00 704.00 476.00 704.00 479.00 704.00 Z"/>
  </g>
  <g fill="None" fill-opacity="0.0" stroke="#A8B5B8" stroke-opacity="1.00" stroke-width="0.3">
    <path d="&#xA;M 581.00 710.00 &#xA;C 582.48 694.71 583.45 676.08 582.00 660.00&#xA;C 582.00 660.00 581.25 660.25 581.00 660.00&#xA;C 579.52 676.36 581.00 693.56 581.00 710.00 Z"/>
  </g>
  <g fill="None" fill-opacity="0.0" stroke="#E7E7E7" stroke-opacity="1.00" stroke-width="0.3">
    <path d="&#xA;M 263.00 688.00 &#xA;C 260.83 678.40 245.21 684.01 248.23 692.77 C 251.25 701.53 264.27 698.48 264.00 690.00&#xA;C 259.76 688.80 252.28 691.22 259.00 694.00&#xA;C 255.64 696.87 249.73 692.90 252.25 688.25 C 254.77 683.60 259.47 688.49 263.00 688.00 Z"/>
  </g>
  <g fill="None" fill-opacity="0.0" stroke="#9B9A99" stroke-opacity="1.00" stroke-width="0.3">
    <path d="&#xA;M 283.00 698.00 &#xA;C 283.00 693.00 283.00 688.00 283.00 683.00&#xA;C 281.12 684.32 281.05 696.64 283.00 698.00 Z"/>
  </g>
  <g fill="None" fill-opacity="0.0" stroke="#F8F8F8" stroke-opacity="1.00" stroke-width="0.3">
    <path d="&#xA;M 283.00 698.00 &#xA;C 285.67 698.00 288.33 698.00 291.00 698.00&#xA;C 289.49 693.71 282.30 693.23 291.00 691.00&#xA;C 291.72 687.06 285.25 690.84 286.00 687.00&#xA;C 287.18 684.81 292.44 687.32 291.00 683.00&#xA;C 288.99 683.94 284.79 681.75 283.00 683.00&#xA;C 283.00 688.00 283.00 693.00 283.00 698.00 Z"/>
  </g>
  <g fill="None" fill-opacity="0.0" stroke="#E4E4E4" stroke-opacity="1.00" stroke-width="0.3">
    <path d="&#xA;M 318.00 690.00 &#xA;C 315.37 687.77 314.87 681.62 310.00 683.00&#xA;C 310.00 688.00 310.00 693.00 310.00 698.00&#xA;C 315.06 699.44 314.06 694.23 314.00 691.00&#xA;C 317.08 692.96 317.02 699.46 322.00 698.00&#xA;C 322.00 693.00 322.00 688.00 322.00 683.00&#xA;C 316.94 681.57 317.94 686.77 318.00 690.00 Z"/>
  </g>
  <g fill="None" fill-opacity="0.0" stroke="#EDEDEC" stroke-opacity="1.00" stroke-width="0.3">
    <path d="&#xA;M 350.00 683.00 &#xA;C 347.00 683.00 344.00 683.00 341.00 683.00&#xA;C 341.00 688.00 341.00 693.00 341.00 698.00&#xA;C 344.00 698.00 347.00 698.00 350.00 698.00&#xA;C 348.49 693.71 341.30 693.23 350.00 691.00&#xA;C 350.72 687.06 344.25 690.84 345.00 687.00&#xA;C 346.18 684.81 351.44 687.32 350.00 683.00 Z"/>
  </g>
  <g fill="None" fill-opacity="0.0" stroke="#E8E9ED" stroke-opacity="1.00" stroke-width="0.3">
    <path d="&#xA;M 377.00 692.00 &#xA;C 384.14 687.41 375.02 680.28 369.00 683.00&#xA;C 369.00 688.00 369.00 693.00 369.00 698.00&#xA;C 372.85 699.21 372.76 696.01 374.00 694.00&#xA;C 373.89 697.02 377.34 698.65 380.00 698.00&#xA;C 379.50 695.72 377.03 694.37 377.00 692.00&#xA;M 376.00 686.00 &#xA;C 377.31 687.31 375.29 691.40 373.32 689.66 C 371.34 687.91 374.53 684.53 376.00 686.00 Z"/>
  </g>
  <g fill="None" fill-opacity="0.0" stroke="#E2E4E8" stroke-opacity="1.00" stroke-width="0.3">
    <path d="&#xA;M 406.00 683.00 &#xA;C 399.36 683.72 399.85 693.28 397.00 698.00&#xA;C 402.59 694.60 405.80 695.42 412.00 698.00&#xA;C 409.70 693.09 407.69 688.08 406.00 683.00 Z"/>
  </g>
  <g fill="None" fill-opacity="0.0" stroke="#F2F3F5" stroke-opacity="1.00" stroke-width="0.3">
    <path d="&#xA;M 440.00 683.00 &#xA;C 436.00 683.00 432.00 683.00 428.00 683.00&#xA;C 426.97 686.95 431.09 685.41 433.00 687.00&#xA;C 433.99 690.40 430.49 698.46 436.00 698.00&#xA;C 434.83 691.18 436.67 686.44 440.00 683.00 Z"/>
  </g>
  <g fill="None" fill-opacity="0.0" stroke="#9EA7B1" stroke-opacity="1.00" stroke-width="0.3">
    <path d="&#xA;M 458.00 684.00 &#xA;C 457.35 688.54 458.26 693.42 458.00 698.00&#xA;C 458.00 698.00 458.51 697.94 459.00 698.00&#xA;C 459.36 694.07 460.20 686.73 459.00 683.00&#xA;C 458.65 683.07 458.05 683.65 458.00 684.00 Z"/>
  </g>
  <g fill="None" fill-opacity="0.0" stroke="#F3F4F5" stroke-opacity="1.00" stroke-width="0.3">
    <path d="&#xA;M 459.00 698.00 &#xA;C 460.00 698.00 461.00 698.00 462.00 698.00&#xA;C 462.00 693.00 462.00 688.00 462.00 683.00&#xA;C 461.03 683.15 459.97 682.82 459.00 683.00&#xA;C 460.20 686.73 459.36 694.07 459.00 698.00 Z"/>
  </g>
  <g fill="None" fill-opacity="0.0" stroke="#E7E9EC" stroke-opacity="1.00" stroke-width="0.3">
    <path d="&#xA;M 491.00 683.00 &#xA;C 481.42 680.43 475.92 693.67 485.33 697.67 C 494.74 701.67 500.48 685.55 491.00 683.00&#xA;M 491.00 687.00 &#xA;C 494.64 689.41 490.36 697.11 485.92 694.07 C 481.49 691.03 486.36 683.92 491.00 687.00 Z"/>
  </g>
  <g fill="None" fill-opacity="0.0" stroke="#9DA8AF" stroke-opacity="1.00" stroke-width="0.3">
    <path d="&#xA;M 515.00 698.00 &#xA;C 515.00 693.00 515.00 688.00 515.00 683.00&#xA;C 513.22 684.04 513.02 697.04 515.00 698.00 Z"/>
  </g>
  <g fill="None" fill-opacity="0.0" stroke="#F4F5F6" stroke-opacity="1.00" stroke-width="0.3">
    <path d="&#xA;M 515.00 698.00 &#xA;C 516.00 698.00 517.00 698.00 518.00 698.00&#xA;C 518.47 695.48 516.97 691.77 519.00 690.00&#xA;C 520.19 693.28 521.24 699.21 526.00 698.00&#xA;C 524.65 693.50 529.07 683.54 523.00 683.00&#xA;C 522.53 685.52 524.03 689.22 522.00 691.00&#xA;C 520.59 689.37 518.80 680.77 515.00 683.00&#xA;C 515.00 688.00 515.00 693.00 515.00 698.00 Z"/>
  </g>
  <g fill="None" fill-opacity="0.0" stroke="#4F5873" stroke-opacity="1.00" stroke-width="0.3">
    <path d="&#xA;M 376.00 686.00 &#xA;C 374.53 684.53 371.34 687.91 373.32 689.66 C 375.29 691.40 377.31 687.31 376.00 686.00 Z"/>
  </g>
  <g fill="None" fill-opacity="0.0" stroke="#46596A" stroke-opacity="1.00" stroke-width="0.3">
    <path d="&#xA;M 491.00 687.00 &#xA;C 486.36 683.92 481.49 691.03 485.92 694.07 C 490.36 697.11 494.64 689.41 491.00 687.00 Z"/>
  </g>
  <g fill="None" fill-opacity="0.0" stroke="#E7E7E6" stroke-opacity="1.00" stroke-width="0.3">
    <path d="&#xA;M 307.00 709.00 &#xA;C 307.67 704.13 299.88 701.28 296.78 705.78 C 293.68 710.28 299.82 713.87 304.00 714.00&#xA;C 302.68 720.93 298.52 712.65 295.00 714.00&#xA;C 295.09 718.94 303.48 722.39 307.22 717.22 C 310.96 712.05 301.02 710.12 300.00 707.00&#xA;C 302.94 706.08 304.10 709.90 307.00 709.00 Z"/>
  </g>
  <g fill="None" fill-opacity="0.0" stroke="#EDEDEC" stroke-opacity="1.00" stroke-width="0.3">
    <path d="&#xA;M 335.00 704.00 &#xA;C 332.00 704.00 329.00 704.00 326.00 704.00&#xA;C 326.00 709.00 326.00 714.00 326.00 719.00&#xA;C 329.00 719.00 332.00 719.00 335.00 719.00&#xA;C 333.49 714.71 326.30 714.24 335.00 712.00&#xA;C 335.72 708.06 329.25 711.84 330.00 708.00&#xA;C 331.18 705.81 336.44 708.32 335.00 704.00 Z"/>
  </g>
  <g fill="None" fill-opacity="0.0" stroke="#E8E8E8" stroke-opacity="1.00" stroke-width="0.3">
    <path d="&#xA;M 365.00 719.00 &#xA;C 360.54 713.18 367.89 700.60 354.00 704.00&#xA;C 354.00 709.00 354.00 714.00 354.00 719.00&#xA;C 357.85 720.21 357.76 717.01 359.00 715.00&#xA;C 358.89 718.02 362.34 719.65 365.00 719.00&#xA;M 361.00 707.00 &#xA;C 362.31 708.31 360.29 712.40 358.32 710.66 C 356.34 708.91 359.53 705.53 361.00 707.00 Z"/>
  </g>
  <g fill="None" fill-opacity="0.0" stroke="#E6E7EB" stroke-opacity="1.00" stroke-width="0.3">
    <path d="&#xA;M 389.00 713.00 &#xA;C 386.81 709.84 387.41 702.73 382.00 704.00&#xA;C 382.85 709.29 386.48 713.67 387.00 719.00&#xA;C 394.20 719.09 393.58 708.74 397.00 704.00&#xA;C 390.55 702.33 392.32 710.43 389.00 713.00 Z"/>
  </g>
  <g fill="None" fill-opacity="0.0" stroke="#FCFDFD" stroke-opacity="1.00" stroke-width="0.3">
    <path d="&#xA;M 418.00 704.00 &#xA;C 413.12 703.96 413.23 719.05 418.00 719.00&#xA;C 418.00 714.00 418.00 709.00 418.00 704.00 Z"/>
  </g>
  <g fill="None" fill-opacity="0.0" stroke="#EDEFF1" stroke-opacity="1.00" stroke-width="0.3">
    <path d="&#xA;M 451.00 709.00 &#xA;C 448.89 700.50 436.54 703.60 437.01 711.99 C 437.48 720.39 448.49 721.57 452.00 714.00&#xA;C 448.47 713.68 440.67 718.92 440.03 712.03 C 439.38 705.13 447.63 708.18 451.00 709.00 Z"/>
  </g>
  <g fill="None" fill-opacity="0.0" stroke="#EDEFF1" stroke-opacity="1.00" stroke-width="0.3">
    <path d="&#xA;M 479.00 704.00 &#xA;C 476.00 704.00 473.00 704.00 470.00 704.00&#xA;C 470.00 709.00 470.00 714.00 470.00 719.00&#xA;C 473.00 719.00 476.00 719.00 479.00 719.00&#xA;C 477.49 714.71 470.30 714.23 479.00 712.00&#xA;C 479.72 708.06 473.25 711.84 474.00 708.00&#xA;C 475.18 705.81 480.44 708.32 479.00 704.00 Z"/>
  </g>
  <g fill="None" fill-opacity="0.0" stroke="#454341" stroke-opacity="1.00" stroke-width="0.3">
    <path d="&#xA;M 361.00 707.00 &#xA;C 359.53 705.53 356.34 708.91 358.32 710.66 C 360.29 712.40 362.31 708.31 361.00 707.00 Z"/>
  </g>
  <g fill="None" fill-opacity="0.0" stroke="#6C8287" stroke-opacity="1.00" stroke-width="0.3">
    <path d="&#xA;M 620.00 751.00 &#xA;C 629.21 751.00 638.84 751.83 648.00 751.00&#xA;C 648.00 751.00 648.04 750.00 648.00 750.00&#xA;C 609.33 750.00 570.67 750.00 532.00 750.00&#xA;C 534.75 754.34 548.47 749.65 554.00 751.00 C 559.53 752.35 569.51 750.41 576.00 751.00 C 582.49 751.59 591.11 750.78 598.00 751.00 C 604.89 751.22 613.00 751.00 620.00 751.00 Z"/>
  </g>
  <g fill="None" fill-opacity="0.0" stroke="#38595C" stroke-opacity="1.00" stroke-width="0.3">
    <path d="&#xA;M 620.00 800.00 &#xA;C 629.39 783.69 638.05 767.00 648.00 751.00&#xA;C 638.84 751.83 629.21 751.00 620.00 751.00&#xA;C 620.44 754.62 618.59 757.61 618.40 761.25 C 618.20 764.88 622.71 768.51 618.00 771.00&#xA;C 619.36 773.76 622.35 777.20 618.00 779.00&#xA;C 619.36 781.76 622.35 785.20 618.00 787.00&#xA;C 620.03 789.10 618.95 790.94 621.00 793.00&#xA;C 615.66 793.71 619.99 800.06 620.00 800.00 Z"/>
  </g>
  <g fill="#3A3836" fill-opacity="1.00" stroke="None">
    <path d="&#xA;M 0.00 1080.00 &#xA;L 1080.00 1080.00&#xA;L 1080.00 0.00&#xA;L 0.00 0.00&#xA;L 0.00 1080.00&#xA;M 841.00 412.00 &#xA;C 836.24 421.01 831.62 430.41 826.23 439.23 C 820.84 448.05 815.99 456.76 810.75 465.75 C 805.50 474.73 800.86 483.50 795.70 492.69 C 790.53 501.89 785.32 509.61 780.23 519.23 C 775.14 528.85 770.20 535.65 765.08 546.08 C 759.96 556.50 741.16 553.00 730.00 553.00&#xA;C 698.00 553.00 666.00 553.00 634.00 553.00&#xA;C 616.67 553.00 599.33 552.97 582.00 553.00&#xA;C 581.50 553.00 581.00 553.00 581.00 553.00&#xA;C 557.00 553.00 533.00 553.00 509.00 553.00&#xA;C 489.67 553.00 470.33 553.00 451.00 553.00&#xA;C 426.33 553.00 401.67 553.00 377.00 553.00&#xA;C 348.67 553.00 320.33 553.00 292.00 553.00&#xA;C 289.00 553.00 286.00 553.00 283.00 553.00&#xA;C 203.95 411.16 120.69 271.06 42.00 129.00&#xA;C 137.67 129.00 233.33 129.00 329.00 129.00&#xA;C 368.00 129.00 407.00 129.00 446.00 129.00&#xA;C 501.33 129.00 556.67 129.00 612.00 129.00&#xA;C 651.33 129.00 690.67 129.00 730.00 129.00&#xA;C 767.00 129.00 804.00 129.00 841.00 129.00&#xA;C 895.00 129.00 949.00 129.00 1003.00 129.00&#xA;C 949.71 223.50 895.50 318.28 841.00 412.00&#xA;M 313.00 619.00 &#xA;C 322.24 621.20 334.66 636.78 320.92 641.92 C 307.18 647.07 295.69 642.81 284.00 638.00&#xA;C 294.68 635.74 309.71 647.46 321.22 639.22 C 332.74 630.99 310.40 619.03 302.00 621.00&#xA;C 299.90 626.61 299.60 633.82 295.00 638.00&#xA;C 292.49 631.95 305.63 618.98 293.00 618.00&#xA;C 293.10 614.33 298.58 616.68 301.00 616.00&#xA;C 302.90 610.45 303.31 603.38 307.00 599.00&#xA;C 308.28 604.36 300.53 618.41 310.00 617.00 C 319.47 615.59 325.44 615.40 331.75 608.75 C 338.06 602.10 332.29 592.81 324.78 591.22 C 317.26 589.64 305.97 589.85 298.98 592.98 C 291.98 596.11 284.23 599.54 284.00 608.00&#xA;C 289.88 609.77 294.16 602.92 299.00 604.00&#xA;C 294.19 615.08 275.75 609.82 283.92 599.92 C 292.09 590.02 301.20 589.78 312.00 588.00 C 322.80 586.22 337.83 590.88 337.00 603.00 C 336.16 615.12 322.15 617.73 313.00 619.00&#xA;M 609.00 641.00 &#xA;C 622.46 642.41 635.08 639.87 646.00 633.00&#xA;C 641.87 641.05 631.45 642.62 622.99 643.99 C 614.53 645.36 601.16 639.81 593.98 644.98 C 586.79 650.14 568.03 643.14 576.08 637.08 C 584.13 631.02 597.06 642.17 605.07 638.07 C 613.08 633.97 618.27 628.82 624.00 622.00&#xA;C 616.54 620.99 604.99 620.04 603.08 610.92 C 601.16 601.81 607.91 593.31 616.00 591.00&#xA;C 607.33 597.78 599.93 612.38 613.68 617.32 C 627.43 622.27 634.77 611.89 641.25 601.25 C 647.73 590.61 666.89 586.59 661.23 599.23 C 655.57 611.87 645.67 615.54 634.93 619.93 C 624.19 624.31 616.73 632.66 609.00 641.00&#xA;M 746.00 605.00 &#xA;C 750.59 616.89 734.22 624.86 737.00 636.00 C 739.79 647.14 760.03 637.95 765.00 633.00&#xA;C 761.69 643.24 739.86 649.90 735.00 637.00&#xA;C 731.25 641.10 719.35 649.70 721.00 637.00&#xA;C 713.11 642.96 701.25 647.42 694.00 638.00&#xA;C 692.82 645.05 681.01 646.23 684.00 637.00&#xA;C 678.79 640.17 672.87 642.75 666.98 643.98 C 661.08 645.20 650.63 643.51 649.03 637.97 C 647.43 632.43 656.24 623.70 661.22 627.78 C 666.20 631.86 654.01 637.45 651.00 638.00&#xA;C 666.31 649.14 681.73 632.10 696.00 628.00&#xA;C 693.08 638.18 704.68 643.00 712.07 639.07 C 719.47 635.15 726.31 626.22 733.00 633.00&#xA;C 733.57 623.15 733.95 606.90 746.00 605.00&#xA;M 379.00 623.00 &#xA;C 380.14 626.21 375.67 627.08 376.00 630.00&#xA;C 380.12 632.12 382.03 636.34 383.00 640.00&#xA;C 388.93 637.77 394.51 633.18 400.00 630.00&#xA;C 394.04 640.92 407.68 643.25 413.69 639.69 C 419.71 636.14 428.74 626.44 427.00 637.00&#xA;C 436.44 627.61 436.76 638.33 446.01 639.99 C 455.26 641.65 458.19 634.75 466.08 629.08 C 473.97 623.41 478.24 638.51 464.00 636.00&#xA;C 467.19 645.82 481.51 640.90 489.02 638.02 C 496.54 635.15 502.10 626.66 509.00 623.00&#xA;C 510.07 626.50 504.91 627.48 506.00 631.00&#xA;C 509.91 631.65 513.05 636.39 511.00 640.00&#xA;C 521.76 637.92 529.30 628.74 538.00 623.00&#xA;C 539.14 626.20 534.67 627.09 535.00 630.00&#xA;C 539.12 632.12 541.03 636.34 542.00 640.00&#xA;C 547.45 637.85 552.76 633.75 558.00 631.00&#xA;C 554.61 640.91 531.04 649.98 527.00 636.00&#xA;C 533.89 643.15 542.91 635.29 532.00 631.00&#xA;C 524.70 639.19 501.89 650.69 498.00 636.00&#xA;C 505.28 644.41 513.48 633.90 502.00 631.00&#xA;C 493.85 641.92 470.93 650.95 461.00 638.00&#xA;C 455.81 640.07 445.69 648.18 440.25 640.75 C 434.82 633.31 429.42 637.99 424.00 644.00&#xA;C 421.67 641.49 424.82 638.90 424.00 636.00&#xA;C 417.10 643.33 399.47 649.62 396.00 636.00&#xA;C 388.80 641.65 371.32 648.86 368.00 636.00&#xA;C 374.44 642.55 383.62 636.46 374.00 631.00&#xA;C 364.60 637.85 347.55 652.18 339.00 638.00&#xA;C 332.54 648.95 323.40 634.14 334.00 631.00&#xA;C 334.42 634.31 331.08 636.52 332.00 640.00&#xA;C 337.27 638.55 338.66 632.55 343.00 630.00&#xA;C 344.62 636.52 340.17 643.21 351.22 641.22 C 362.28 639.23 369.95 628.71 379.00 623.00&#xA;M 401.00 624.00 &#xA;C 401.90 627.23 398.66 628.62 396.00 628.00&#xA;C 397.19 626.30 398.65 623.88 401.00 624.00&#xA;M 652.00 745.00 &#xA;C 663.42 745.00 675.67 744.94 687.00 745.00 C 698.33 745.06 710.97 744.84 722.00 745.00 C 733.03 745.16 745.06 744.79 755.00 743.00 C 764.95 741.21 771.76 738.02 779.75 732.75 C 787.73 727.47 790.68 721.23 795.30 713.31 C 799.93 705.38 800.09 694.55 803.00 686.00 C 805.90 677.44 801.91 660.19 812.00 659.00&#xA;C 812.37 689.59 809.82 719.45 810.00 750.00&#xA;C 756.00 750.00 702.00 750.00 648.00 750.00&#xA;C 648.04 750.00 648.00 751.00 648.00 751.00&#xA;C 638.05 767.00 629.39 783.69 620.00 800.00&#xA;C 587.39 856.69 555.29 914.06 522.00 970.00&#xA;C 500.13 931.25 477.17 892.97 456.00 854.00&#xA;C 452.77 848.33 449.31 842.81 446.08 836.92 C 442.85 831.04 438.97 825.20 435.70 819.30 C 432.43 813.41 428.96 807.20 425.69 801.31 C 422.43 795.41 418.96 790.21 415.70 784.30 C 412.44 778.40 408.88 772.27 405.70 766.31 C 402.51 760.34 398.39 754.73 395.23 748.77 C 392.07 742.81 388.39 736.65 385.23 730.77 C 382.07 724.89 378.25 719.59 375.23 713.77 C 372.21 707.95 367.96 701.51 365.23 695.77 C 362.50 690.03 356.69 683.63 355.08 677.92 C 353.46 672.22 344.07 665.62 345.00 660.00&#xA;C 345.45 657.27 361.69 659.55 368.00 659.00 C 374.31 658.45 387.34 659.26 395.00 659.00 C 402.66 658.74 412.67 659.11 421.00 659.00 C 429.33 658.89 439.39 659.05 448.00 659.00 C 456.61 658.95 465.25 659.02 474.00 659.00 C 482.75 658.98 492.19 659.01 501.00 659.00 C 509.81 658.99 518.13 659.00 527.00 659.00 C 535.87 659.00 545.07 659.00 554.00 659.00 C 562.93 659.00 572.05 659.00 581.00 659.00&#xA;C 598.67 659.00 616.33 659.00 634.00 659.00&#xA;C 656.00 659.00 678.00 659.00 700.00 659.00&#xA;C 684.92 687.97 666.73 715.82 652.00 745.00&#xA;M 263.00 688.00 &#xA;C 259.47 688.49 254.77 683.60 252.25 688.25 C 249.73 692.90 255.64 696.87 259.00 694.00&#xA;C 252.28 691.22 259.76 688.80 264.00 690.00&#xA;C 264.27 698.48 251.25 701.53 248.23 692.77 C 245.21 684.01 260.83 678.40 263.00 688.00&#xA;M 283.00 698.00 &#xA;C 281.05 696.64 281.12 684.32 283.00 683.00&#xA;C 284.79 681.75 288.99 683.94 291.00 683.00&#xA;C 292.44 687.32 287.18 684.81 286.00 687.00&#xA;C 285.25 690.84 291.72 687.06 291.00 691.00&#xA;C 282.30 693.23 289.49 693.71 291.00 698.00&#xA;C 288.33 698.00 285.67 698.00 283.00 698.00&#xA;M 318.00 690.00 &#xA;C 317.94 686.77 316.94 681.57 322.00 683.00&#xA;C 322.00 688.00 322.00 693.00 322.00 698.00&#xA;C 317.02 699.46 317.08 692.96 314.00 691.00&#xA;C 314.06 694.23 315.06 699.44 310.00 698.00&#xA;C 310.00 693.00 310.00 688.00 310.00 683.00&#xA;C 314.87 681.62 315.37 687.77 318.00 690.00&#xA;M 350.00 683.00 &#xA;C 351.44 687.32 346.18 684.81 345.00 687.00&#xA;C 344.25 690.84 350.72 687.06 350.00 691.00&#xA;C 341.30 693.23 348.49 693.71 350.00 698.00&#xA;C 347.00 698.00 344.00 698.00 341.00 698.00&#xA;C 341.00 693.00 341.00 688.00 341.00 683.00&#xA;C 344.00 683.00 347.00 683.00 350.00 683.00&#xA;M 307.00 709.00 &#xA;C 304.10 709.90 302.94 706.08 300.00 707.00&#xA;C 301.02 710.12 310.96 712.05 307.22 717.22 C 303.48 722.39 295.09 718.94 295.00 714.00&#xA;C 298.52 712.65 302.68 720.93 304.00 714.00&#xA;C 299.82 713.87 293.68 710.28 296.78 705.78 C 299.88 701.28 307.67 704.13 307.00 709.00&#xA;M 335.00 704.00 &#xA;C 336.44 708.32 331.18 705.81 330.00 708.00&#xA;C 329.25 711.84 335.72 708.06 335.00 712.00&#xA;C 326.30 714.24 333.49 714.71 335.00 719.00&#xA;C 332.00 719.00 329.00 719.00 326.00 719.00&#xA;C 326.00 714.00 326.00 709.00 326.00 704.00&#xA;C 329.00 704.00 332.00 704.00 335.00 704.00&#xA;M 365.00 719.00 &#xA;C 362.34 719.65 358.89 718.02 359.00 715.00&#xA;C 357.76 717.01 357.85 720.21 354.00 719.00&#xA;C 354.00 714.00 354.00 709.00 354.00 704.00&#xA;C 367.89 700.60 360.54 713.18 365.00 719.00 Z"/>
  </g>
  <g fill="#4E4874" fill-opacity="1.00" stroke="None">
    <path d="&#xA;M 292.00 553.00 &#xA;C 297.44 524.22 294.62 491.94 295.00 462.00 C 295.38 432.06 295.12 397.32 295.00 368.00 C 294.88 338.68 295.69 301.36 295.00 274.00 C 294.31 246.64 304.15 207.32 270.00 205.00&#xA;C 262.37 204.48 254.64 205.39 247.00 205.00&#xA;C 247.00 203.33 247.00 201.67 247.00 200.00&#xA;C 250.75 196.09 260.22 200.04 266.00 199.00 C 271.78 197.96 280.66 199.48 287.00 199.00 C 293.34 198.52 300.39 199.17 307.00 199.00 C 313.61 198.83 321.29 199.00 328.00 199.00&#xA;C 330.45 197.79 327.86 188.25 328.60 185.25 C 329.35 182.24 328.09 174.93 328.60 171.25 C 329.11 167.57 327.99 160.95 328.60 157.25 C 329.22 153.55 327.48 146.33 328.60 143.25 C 329.73 140.17 326.05 130.46 329.00 129.00&#xA;C 233.33 129.00 137.67 129.00 42.00 129.00&#xA;C 120.69 271.06 203.95 411.16 283.00 553.00&#xA;C 286.00 553.00 289.00 553.00 292.00 553.00 Z"/>
  </g>
  <g fill="#454F6A" fill-opacity="1.00" stroke="None">
    <path d="&#xA;M 328.00 199.00 &#xA;C 354.40 199.00 382.46 197.53 408.00 200.00&#xA;C 421.01 200.00 433.38 200.51 446.00 202.00&#xA;C 443.13 199.78 446.33 190.80 445.60 187.25 C 444.88 183.70 445.41 176.76 445.20 172.75 C 444.99 168.75 445.53 162.15 445.40 158.25 C 445.26 154.34 445.09 146.94 445.80 143.75 C 446.51 140.56 443.10 130.44 446.00 129.00&#xA;C 407.00 129.00 368.00 129.00 329.00 129.00&#xA;C 326.05 130.46 329.73 140.17 328.60 143.25 C 327.48 146.33 329.22 153.55 328.60 157.25 C 327.99 160.95 329.11 167.57 328.60 171.25 C 328.09 174.93 329.35 182.24 328.60 185.25 C 327.86 188.25 330.45 197.79 328.00 199.00 Z"/>
  </g>
  <g fill="#3D5661" fill-opacity="1.00" stroke="None">
    <path d="&#xA;M 446.00 202.00 &#xA;C 495.60 207.84 547.42 235.71 546.00 293.00 C 544.58 350.29 484.54 374.12 434.00 373.00&#xA;C 477.92 374.84 535.59 385.51 554.77 431.23 C 573.96 476.95 555.03 533.88 509.00 553.00&#xA;C 533.00 553.00 557.00 553.00 581.00 553.00&#xA;C 579.00 531.07 581.90 509.07 581.00 487.00 C 580.10 464.93 581.44 442.14 581.00 420.00&#xA;C 580.47 393.38 555.87 383.98 532.00 386.00&#xA;C 532.95 376.92 546.56 381.90 555.00 381.00 C 563.44 380.10 574.01 381.45 583.00 381.00 C 591.99 380.55 602.84 381.34 612.00 381.00&#xA;C 609.04 379.53 612.80 370.12 611.66 366.32 C 610.52 362.52 612.16 357.12 611.93 351.92 C 611.71 346.72 611.29 343.81 611.40 337.25 C 611.50 330.69 611.62 331.21 611.60 322.25 C 611.59 313.28 611.50 301.37 611.60 292.25 C 611.71 283.12 611.18 286.27 611.40 277.26 C 611.62 268.25 611.67 257.44 611.40 248.26 C 611.13 239.07 611.87 242.22 611.66 233.32 C 611.45 224.42 611.70 213.16 611.40 204.25 C 611.09 195.34 611.61 197.26 611.60 189.25 C 611.59 181.24 611.16 183.33 611.40 174.25 C 611.63 165.17 611.68 153.47 611.40 144.26 C 611.13 135.04 611.62 137.58 612.00 129.00&#xA;C 556.67 129.00 501.33 129.00 446.00 129.00&#xA;C 443.10 130.44 446.51 140.56 445.80 143.75 C 445.09 146.94 445.26 154.34 445.40 158.25 C 445.53 162.15 444.99 168.75 445.20 172.75 C 445.41 176.76 444.88 183.70 445.60 187.25 C 446.33 190.80 443.13 199.78 446.00 202.00 Z"/>
  </g>
  <g fill="#365B59" fill-opacity="1.00" stroke="None">
    <path d="&#xA;M 612.00 381.00 &#xA;C 635.67 381.00 659.33 381.00 683.00 381.00&#xA;C 682.50 391.05 666.35 384.61 659.00 388.00 C 651.64 391.39 644.44 393.19 639.75 400.75 C 635.05 408.30 633.54 416.20 634.00 426.00 C 634.46 435.80 633.78 447.81 634.00 458.00 C 634.22 468.20 633.90 478.60 634.00 489.00 C 634.10 499.40 633.95 510.47 634.00 521.00 C 634.05 531.53 633.96 542.44 634.00 553.00&#xA;C 666.00 553.00 698.00 553.00 730.00 553.00&#xA;C 727.11 551.57 730.44 541.84 729.60 538.25 C 728.77 534.65 729.67 528.67 729.20 523.75 C 728.73 518.83 730.12 515.56 729.40 509.25 C 728.67 502.94 730.40 503.42 729.80 494.75 C 729.20 486.08 729.70 473.96 729.40 465.25 C 729.10 456.54 729.83 457.94 729.80 450.75 C 729.78 443.56 729.07 443.49 729.60 436.25 C 730.14 429.01 728.62 430.63 729.20 421.75 C 729.78 412.87 729.23 401.67 729.80 392.75 C 730.37 383.83 728.92 387.06 729.20 377.75 C 729.48 368.45 729.72 358.12 729.80 348.75 C 729.88 339.38 729.26 328.99 729.20 319.75 C 729.14 310.52 729.31 314.47 729.40 305.25 C 729.49 296.03 729.66 284.96 729.20 275.75 C 728.74 266.54 729.43 270.27 729.40 261.25 C 729.36 252.22 729.47 240.51 729.80 231.75 C 730.13 223.00 729.24 223.79 729.60 217.25 C 729.96 210.71 729.30 207.89 729.40 202.25 C 729.49 196.61 729.64 192.83 729.80 187.75 C 729.97 182.68 728.96 177.92 729.60 173.25 C 730.25 168.58 728.52 162.90 729.20 158.75 C 729.88 154.60 728.52 147.42 729.40 144.25 C 730.27 141.07 727.32 130.33 730.00 129.00&#xA;C 690.67 129.00 651.33 129.00 612.00 129.00&#xA;C 611.62 137.58 611.13 135.04 611.40 144.26 C 611.68 153.47 611.63 165.17 611.40 174.25 C 611.16 183.33 611.59 181.24 611.60 189.25 C 611.61 197.26 611.09 195.34 611.40 204.25 C 611.70 213.16 611.45 224.42 611.66 233.32 C 611.87 242.22 611.13 239.07 611.40 248.26 C 611.67 257.44 611.62 268.25 611.40 277.26 C 611.18 286.27 611.71 283.12 611.60 292.25 C 611.50 301.37 611.59 313.28 611.60 322.25 C 611.62 331.21 611.50 330.69 611.40 337.25 C 611.29 343.81 611.71 346.72 611.93 351.92 C 612.16 357.12 610.52 362.52 611.66 366.32 C 612.80 370.12 609.04 379.53 612.00 381.00 Z"/>
  </g>
  <g fill="#305F53" fill-opacity="1.00" stroke="None">
    <path d="&#xA;M 730.00 553.00 &#xA;C 741.16 553.00 759.96 556.50 765.08 546.08 C 770.20 535.65 775.14 528.85 780.23 519.23 C 785.32 509.61 790.53 501.89 795.70 492.69 C 800.86 483.50 805.50 474.73 810.75 465.75 C 815.99 456.76 820.84 448.05 826.23 439.23 C 831.62 430.41 836.24 421.01 841.00 412.00&#xA;C 841.38 402.68 839.24 390.93 840.39 381.25 C 841.55 371.56 840.39 374.72 840.39 365.25 C 840.40 355.78 839.98 343.50 840.59 334.25 C 841.20 325.00 840.23 325.41 840.59 318.25 C 840.95 311.09 840.43 308.86 840.76 302.75 C 841.09 296.64 839.98 292.30 840.76 286.75 C 841.53 281.20 839.50 276.55 840.27 271.25 C 841.03 265.94 840.06 261.12 839.81 255.75 C 839.55 250.39 841.29 244.55 840.60 239.25 C 839.92 233.95 841.03 229.06 840.80 223.75 C 840.57 218.44 840.31 212.98 840.80 207.75 C 841.29 202.53 839.62 197.39 840.39 192.25 C 841.17 187.10 839.57 181.73 840.19 176.75 C 840.82 171.77 839.68 165.28 840.19 160.75 C 840.71 156.22 839.37 148.83 840.59 145.25 C 841.81 141.66 837.25 130.72 841.00 129.00&#xA;C 804.00 129.00 767.00 129.00 730.00 129.00&#xA;C 727.32 130.33 730.27 141.07 729.40 144.25 C 728.52 147.42 729.88 154.60 729.20 158.75 C 728.52 162.90 730.25 168.58 729.60 173.25 C 728.96 177.92 729.97 182.68 729.80 187.75 C 729.64 192.83 729.49 196.61 729.40 202.25 C 729.30 207.89 729.96 210.71 729.60 217.25 C 729.24 223.79 730.13 223.00 729.80 231.75 C 729.47 240.51 729.36 252.22 729.40 261.25 C 729.43 270.27 728.74 266.54 729.20 275.75 C 729.66 284.96 729.49 296.03 729.40 305.25 C 729.31 314.47 729.14 310.52 729.20 319.75 C 729.26 328.99 729.88 339.38 729.80 348.75 C 729.72 358.12 729.48 368.45 729.20 377.75 C 728.92 387.06 730.37 383.83 729.80 392.75 C 729.23 401.67 729.78 412.87 729.20 421.75 C 728.62 430.63 730.14 429.01 729.60 436.25 C 729.07 443.49 729.78 443.56 729.80 450.75 C 729.83 457.94 729.10 456.54 729.40 465.25 C 729.70 473.96 729.20 486.08 729.80 494.75 C 730.40 503.42 728.67 502.94 729.40 509.25 C 730.12 515.56 728.73 518.83 729.20 523.75 C 729.67 528.67 728.77 534.65 729.60 538.25 C 730.44 541.84 727.11 551.57 730.00 553.00 Z"/>
  </g>
  <g fill="#2A644C" fill-opacity="1.00" stroke="None">
    <path d="&#xA;M 841.00 412.00 &#xA;C 895.50 318.28 949.71 223.50 1003.00 129.00&#xA;C 949.00 129.00 895.00 129.00 841.00 129.00&#xA;C 837.25 130.72 841.81 141.66 840.59 145.25 C 839.37 148.83 840.71 156.22 840.19 160.75 C 839.68 165.28 840.82 171.77 840.19 176.75 C 839.57 181.73 841.17 187.10 840.39 192.25 C 839.62 197.39 841.29 202.53 840.80 207.75 C 840.31 212.98 840.57 218.44 840.80 223.75 C 841.03 229.06 839.92 233.95 840.60 239.25 C 841.29 244.55 839.55 250.39 839.81 255.75 C 840.06 261.12 841.03 265.94 840.27 271.25 C 839.50 276.55 841.53 281.20 840.76 286.75 C 839.98 292.30 841.09 296.64 840.76 302.75 C 840.43 308.86 840.95 311.09 840.59 318.25 C 840.23 325.41 841.20 325.00 840.59 334.25 C 839.98 343.50 840.40 355.78 840.39 365.25 C 840.39 374.72 841.55 371.56 840.39 381.25 C 839.24 390.93 841.38 402.68 841.00 412.00 Z"/>
  </g>
  <g fill="#9D9FB0" fill-opacity="1.00" stroke="None">
    <path d="&#xA;M 247.00 200.00 &#xA;C 247.04 199.86 248.00 200.00 248.00 200.00&#xA;C 301.33 200.00 354.67 200.00 408.00 200.00&#xA;C 382.46 197.53 354.40 199.00 328.00 199.00&#xA;C 321.29 199.00 313.61 198.83 307.00 199.00 C 300.39 199.17 293.34 198.52 287.00 199.00 C 280.66 199.48 271.78 197.96 266.00 199.00 C 260.22 200.04 250.75 196.09 247.00 200.00 Z"/>
  </g>
  <g fill="#CACAD3" fill-opacity="1.00" stroke="None">
    <path d="&#xA;M 270.00 205.00 &#xA;C 263.38 203.81 255.32 203.81 248.00 204.00&#xA;C 248.00 202.67 248.00 201.33 248.00 200.00&#xA;C 248.00 200.00 247.04 199.86 247.00 200.00&#xA;C 247.00 201.67 247.00 203.33 247.00 205.00&#xA;C 254.64 205.39 262.37 204.48 270.00 205.00 Z"/>
  </g>
  <g fill="#F3F3F3" fill-opacity="1.00" stroke="None">
    <path d="&#xA;M 270.00 205.00 &#xA;C 304.15 207.32 294.31 246.64 295.00 274.00 C 295.69 301.36 294.88 338.68 295.00 368.00 C 295.12 397.32 295.38 432.06 295.00 462.00 C 294.62 491.94 297.44 524.22 292.00 553.00&#xA;C 320.33 553.00 348.67 553.00 377.00 553.00&#xA;C 377.00 494.67 377.00 436.33 377.00 378.00&#xA;C 401.96 378.80 432.86 373.43 452.25 390.75 C 471.64 408.08 471.94 433.07 474.00 457.00&#xA;C 474.76 464.87 474.75 474.20 474.00 482.00&#xA;C 474.00 490.73 472.90 502.38 471.22 510.22 C 469.54 518.06 468.38 528.26 464.23 534.23 C 460.07 540.20 458.14 550.36 451.00 553.00&#xA;C 470.33 553.00 489.67 553.00 509.00 553.00&#xA;C 555.03 533.88 573.96 476.95 554.77 431.23 C 535.59 385.51 477.92 374.84 434.00 373.00&#xA;C 484.54 374.12 544.58 350.29 546.00 293.00 C 547.42 235.71 495.60 207.84 446.00 202.00&#xA;C 433.38 200.51 421.01 200.00 408.00 200.00&#xA;C 354.67 200.00 301.33 200.00 248.00 200.00&#xA;C 248.00 201.33 248.00 202.67 248.00 204.00&#xA;C 255.32 203.81 263.38 203.81 270.00 205.00&#xA;M 377.00 373.00 &#xA;C 377.00 317.00 377.00 261.00 377.00 205.00&#xA;C 406.82 201.79 442.92 207.72 452.32 239.68 C 461.73 271.64 461.08 305.22 452.23 337.23 C 443.38 369.24 407.25 376.56 377.00 373.00 Z"/>
  </g>
  <g fill="#445169" fill-opacity="1.00" stroke="None">
    <path d="&#xA;M 377.00 373.00 &#xA;C 407.25 376.56 443.38 369.24 452.23 337.23 C 461.08 305.22 461.73 271.64 452.32 239.68 C 442.92 207.72 406.82 201.79 377.00 205.00&#xA;C 377.00 261.00 377.00 317.00 377.00 373.00 Z"/>
  </g>
  <g fill="#435168" fill-opacity="1.00" stroke="None">
    <path d="&#xA;M 377.00 553.00 &#xA;C 401.67 553.00 426.33 553.00 451.00 553.00&#xA;C 458.14 550.36 460.07 540.20 464.23 534.23 C 468.38 528.26 469.54 518.06 471.22 510.22 C 472.90 502.38 474.00 490.73 474.00 482.00&#xA;C 474.00 473.67 474.00 465.33 474.00 457.00&#xA;C 471.94 433.07 471.64 408.08 452.25 390.75 C 432.86 373.43 401.96 378.80 377.00 378.00&#xA;C 377.00 436.33 377.00 494.67 377.00 553.00 Z"/>
  </g>
  <g fill="#FDFDFD" fill-opacity="1.00" stroke="None">
    <path d="&#xA;M 581.00 420.00 &#xA;C 583.54 440.99 582.33 464.14 582.00 486.00 C 581.67 507.86 583.97 531.18 582.00 553.00&#xA;C 599.33 552.97 616.67 553.00 634.00 553.00&#xA;C 633.96 542.44 634.05 531.53 634.00 521.00 C 633.95 510.47 634.10 499.40 634.00 489.00 C 633.90 478.60 634.22 468.20 634.00 458.00 C 633.78 447.81 634.46 435.80 634.00 426.00 C 633.54 416.20 635.05 408.30 639.75 400.75 C 644.44 393.19 651.64 391.39 659.00 388.00 C 666.35 384.61 682.50 391.05 683.00 381.00&#xA;C 659.33 381.00 635.67 381.00 612.00 381.00&#xA;C 602.84 381.34 591.99 380.55 583.00 381.00 C 574.01 381.45 563.44 380.10 555.00 381.00 C 546.56 381.90 532.95 376.92 532.00 386.00&#xA;C 555.87 383.98 580.47 393.38 581.00 420.00 Z"/>
  </g>
  <g fill="#A8B5B8" fill-opacity="1.00" stroke="None">
    <path d="&#xA;M 581.00 553.00 &#xA;C 581.00 553.00 581.50 553.00 582.00 553.00&#xA;C 583.97 531.18 581.67 507.86 582.00 486.00 C 582.33 464.14 583.54 440.99 581.00 420.00&#xA;C 581.44 442.14 580.10 464.93 581.00 487.00 C 581.90 509.07 579.00 531.07 581.00 553.00 Z"/>
  </g>
  <g fill="#949DA7" fill-opacity="1.00" stroke="None">
    <path d="&#xA;M 474.00 482.00 &#xA;C 474.75 474.20 474.76 464.87 474.00 457.00&#xA;C 474.00 465.33 474.00 473.67 474.00 482.00 Z"/>
  </g>
  <g fill="#D9D9D9" fill-opacity="1.00" stroke="None">
    <path d="&#xA;M 313.00 619.00 &#xA;C 322.15 617.73 336.16 615.12 337.00 603.00 C 337.83 590.88 322.80 586.22 312.00 588.00 C 301.20 589.78 292.09 590.02 283.92 599.92 C 275.75 609.82 294.19 615.08 299.00 604.00&#xA;C 294.16 602.92 289.88 609.77 284.00 608.00&#xA;C 284.23 599.54 291.98 596.11 298.98 592.98 C 305.97 589.85 317.26 589.64 324.78 591.22 C 332.29 592.81 338.06 602.10 331.75 608.75 C 325.44 615.40 319.47 615.59 310.00 617.00 C 300.53 618.41 308.28 604.36 307.00 599.00&#xA;C 303.31 603.38 302.90 610.45 301.00 616.00&#xA;C 298.58 616.68 293.10 614.33 293.00 618.00&#xA;C 305.63 618.98 292.49 631.95 295.00 638.00&#xA;C 299.60 633.82 299.90 626.61 302.00 621.00&#xA;C 310.40 619.03 332.74 630.99 321.22 639.22 C 309.71 647.46 294.68 635.74 284.00 638.00&#xA;C 295.69 642.81 307.18 647.07 320.92 641.92 C 334.66 636.78 322.24 621.20 313.00 619.00 Z"/>
  </g>
  <g fill="#DADADA" fill-opacity="1.00" stroke="None">
    <path d="&#xA;M 609.00 641.00 &#xA;C 616.73 632.66 624.19 624.31 634.93 619.93 C 645.67 615.54 655.57 611.87 661.23 599.23 C 666.89 586.59 647.73 590.61 641.25 601.25 C 634.77 611.89 627.43 622.27 613.68 617.32 C 599.93 612.38 607.33 597.78 616.00 591.00&#xA;C 607.91 593.31 601.16 601.81 603.08 610.92 C 604.99 620.04 616.54 620.99 624.00 622.00&#xA;C 618.27 628.82 613.08 633.97 605.07 638.07 C 597.06 642.17 584.13 631.02 576.08 637.08 C 568.03 643.14 586.79 650.14 593.98 644.98 C 601.16 639.81 614.53 645.36 622.99 643.99 C 631.45 642.62 641.87 641.05 646.00 633.00&#xA;C 635.08 639.87 622.46 642.41 609.00 641.00&#xA;M 661.00 593.00 &#xA;C 657.70 605.50 644.20 616.44 632.00 617.00&#xA;C 640.57 608.24 647.16 593.12 661.00 593.00&#xA;M 596.00 641.00 &#xA;C 590.70 644.67 581.79 643.47 576.00 641.00&#xA;C 579.78 635.46 590.04 639.65 596.00 641.00 Z"/>
  </g>
  <g fill="#3F3D3B" fill-opacity="1.00" stroke="None">
    <path d="&#xA;M 661.00 593.00 &#xA;C 647.16 593.12 640.57 608.24 632.00 617.00&#xA;C 644.20 616.44 657.70 605.50 661.00 593.00 Z"/>
  </g>
  <g fill="#DADAD9" fill-opacity="1.00" stroke="None">
    <path d="&#xA;M 746.00 605.00 &#xA;C 733.95 606.90 733.57 623.15 733.00 633.00&#xA;C 726.31 626.22 719.47 635.15 712.07 639.07 C 704.68 643.00 693.08 638.18 696.00 628.00&#xA;C 681.73 632.10 666.31 649.14 651.00 638.00&#xA;C 654.01 637.45 666.20 631.86 661.22 627.78 C 656.24 623.70 647.43 632.43 649.03 637.97 C 650.63 643.51 661.08 645.20 666.98 643.98 C 672.87 642.75 678.79 640.17 684.00 637.00&#xA;C 681.01 646.23 692.82 645.05 694.00 638.00&#xA;C 701.25 647.42 713.11 642.96 721.00 637.00&#xA;C 719.35 649.70 731.25 641.10 735.00 637.00&#xA;C 739.86 649.90 761.69 643.24 765.00 633.00&#xA;C 760.03 637.95 739.79 647.14 737.00 636.00 C 734.22 624.86 750.59 616.89 746.00 605.00&#xA;M 736.00 626.00 &#xA;C 737.45 619.75 738.25 612.90 743.00 608.00&#xA;C 744.10 613.45 739.90 621.50 736.00 626.00&#xA;M 660.00 630.00 &#xA;C 658.80 632.92 655.64 633.38 653.00 634.00&#xA;C 654.41 631.42 656.84 629.25 660.00 630.00&#xA;M 694.00 631.00 &#xA;C 691.86 634.75 690.53 639.40 687.00 642.00&#xA;C 684.23 637.61 690.14 632.24 694.00 631.00&#xA;M 730.00 633.00 &#xA;C 733.09 634.87 727.40 642.71 724.32 640.66 C 721.25 638.61 726.02 630.59 730.00 633.00 Z"/>
  </g>
  <g fill="#494745" fill-opacity="1.00" stroke="None">
    <path d="&#xA;M 736.00 626.00 &#xA;C 739.90 621.50 744.10 613.45 743.00 608.00&#xA;C 738.25 612.90 737.45 619.75 736.00 626.00 Z"/>
  </g>
  <g fill="#DADADA" fill-opacity="1.00" stroke="None">
    <path d="&#xA;M 379.00 623.00 &#xA;C 369.95 628.71 362.28 639.23 351.22 641.22 C 340.17 643.21 344.62 636.52 343.00 630.00&#xA;C 338.66 632.55 337.27 638.55 332.00 640.00&#xA;C 331.08 636.52 334.42 634.31 334.00 631.00&#xA;C 323.40 634.14 332.54 648.95 339.00 638.00&#xA;C 347.55 652.18 364.60 637.85 374.00 631.00&#xA;C 383.62 636.46 374.44 642.55 368.00 636.00&#xA;C 371.32 648.86 388.80 641.65 396.00 636.00&#xA;C 399.47 649.62 417.10 643.33 424.00 636.00&#xA;C 424.82 638.90 421.67 641.49 424.00 644.00&#xA;C 429.42 637.99 434.82 633.31 440.25 640.75 C 445.69 648.18 455.81 640.07 461.00 638.00&#xA;C 470.93 650.95 493.85 641.92 502.00 631.00&#xA;C 513.48 633.90 505.28 644.41 498.00 636.00&#xA;C 501.89 650.69 524.70 639.19 532.00 631.00&#xA;C 542.91 635.29 533.89 643.15 527.00 636.00&#xA;C 531.04 649.98 554.61 640.91 558.00 631.00&#xA;C 552.76 633.75 547.45 637.85 542.00 640.00&#xA;C 541.03 636.34 539.12 632.12 535.00 630.00&#xA;C 534.67 627.09 539.14 626.20 538.00 623.00&#xA;C 529.30 628.74 521.76 637.92 511.00 640.00&#xA;C 513.05 636.39 509.91 631.65 506.00 631.00&#xA;C 504.91 627.48 510.07 626.50 509.00 623.00&#xA;C 502.10 626.66 496.54 635.15 489.02 638.02 C 481.51 640.90 467.19 645.82 464.00 636.00&#xA;C 478.24 638.51 473.97 623.41 466.08 629.08 C 458.19 634.75 455.26 641.65 446.01 639.99 C 436.76 638.33 436.44 627.61 427.00 637.00&#xA;C 428.74 626.44 419.71 636.14 413.69 639.69 C 407.68 643.25 394.04 640.92 400.00 630.00&#xA;C 394.51 633.18 388.93 637.77 383.00 640.00&#xA;C 382.03 636.34 380.12 632.12 376.00 630.00&#xA;C 375.67 627.08 380.14 626.21 379.00 623.00&#xA;M 472.00 630.00 &#xA;C 471.70 632.78 467.57 633.91 465.00 634.00&#xA;C 466.41 631.42 468.84 629.25 472.00 630.00 Z"/>
  </g>
  <g fill="#D3D3D2" fill-opacity="1.00" stroke="None">
    <path d="&#xA;M 401.00 624.00 &#xA;C 398.65 623.88 397.19 626.30 396.00 628.00&#xA;C 398.66 628.62 401.90 627.23 401.00 624.00 Z"/>
  </g>
  <g fill="#4C4A48" fill-opacity="1.00" stroke="None">
    <path d="&#xA;M 472.00 630.00 &#xA;C 468.84 629.25 466.41 631.42 465.00 634.00&#xA;C 467.57 633.91 471.70 632.78 472.00 630.00 Z"/>
  </g>
  <g fill="#434140" fill-opacity="1.00" stroke="None">
    <path d="&#xA;M 660.00 630.00 &#xA;C 656.84 629.25 654.41 631.42 653.00 634.00&#xA;C 655.64 633.38 658.80 632.92 660.00 630.00 Z"/>
  </g>
  <g fill="#484644" fill-opacity="1.00" stroke="None">
    <path d="&#xA;M 694.00 631.00 &#xA;C 690.14 632.24 684.23 637.61 687.00 642.00&#xA;C 690.53 639.40 691.86 634.75 694.00 631.00 Z"/>
  </g>
  <g fill="#413F3D" fill-opacity="1.00" stroke="None">
    <path d="&#xA;M 730.00 633.00 &#xA;C 726.02 630.59 721.25 638.61 724.32 640.66 C 727.40 642.71 733.09 634.87 730.00 633.00 Z"/>
  </g>
  <g fill="#444240" fill-opacity="1.00" stroke="None">
    <path d="&#xA;M 596.00 641.00 &#xA;C 590.04 639.65 579.78 635.46 576.00 641.00&#xA;C 581.79 643.47 590.70 644.67 596.00 641.00 Z"/>
  </g>
  <g fill="#3D434B" fill-opacity="1.00" stroke="None">
    <path d="&#xA;M 345.00 660.00 &#xA;C 356.24 663.68 370.03 658.45 382.00 660.00 C 393.97 661.55 407.70 659.42 420.00 660.00 C 432.30 660.58 445.61 660.00 458.00 660.00&#xA;C 478.38 660.00 498.60 660.71 519.00 660.00 C 539.40 659.29 560.65 661.85 581.00 660.00&#xA;C 580.75 659.75 581.00 659.00 581.00 659.00&#xA;C 572.05 659.00 562.93 659.00 554.00 659.00 C 545.07 659.00 535.87 659.00 527.00 659.00 C 518.13 659.00 509.81 658.99 501.00 659.00 C 492.19 659.01 482.75 658.98 474.00 659.00 C 465.25 659.02 456.61 658.95 448.00 659.00 C 439.39 659.05 429.33 658.89 421.00 659.00 C 412.67 659.11 402.66 658.74 395.00 659.00 C 387.34 659.26 374.31 658.45 368.00 659.00 C 361.69 659.55 345.45 657.27 345.00 660.00 Z"/>
  </g>
  <g fill="#908F8E" fill-opacity="1.00" stroke="None">
    <path d="&#xA;M 581.00 660.00 &#xA;C 581.25 660.25 582.00 660.00 582.00 660.00&#xA;C 599.09 660.00 616.99 661.55 634.00 660.00&#xA;C 634.00 659.50 634.00 659.00 634.00 659.00&#xA;C 616.33 659.00 598.67 659.00 581.00 659.00&#xA;C 581.00 659.00 580.75 659.75 581.00 660.00 Z"/>
  </g>
  <g fill="#375A5A" fill-opacity="1.00" stroke="None">
    <path d="&#xA;M 634.00 660.00 &#xA;C 634.00 688.33 634.00 716.67 634.00 745.00&#xA;C 640.00 745.00 646.00 745.00 652.00 745.00&#xA;C 666.73 715.82 684.92 687.97 700.00 659.00&#xA;C 678.00 659.00 656.00 659.00 634.00 659.00&#xA;C 634.00 659.00 634.00 659.50 634.00 660.00 Z"/>
  </g>
  <g fill="#FCFCFC" fill-opacity="1.00" stroke="None">
    <path d="&#xA;M 652.00 745.00 &#xA;C 646.00 745.00 640.00 745.00 634.00 745.00&#xA;C 634.00 716.67 634.00 688.33 634.00 660.00&#xA;C 616.99 661.55 599.09 660.00 582.00 660.00&#xA;C 583.45 676.08 582.48 694.71 581.00 710.00&#xA;C 581.00 736.19 556.36 748.70 532.00 745.00&#xA;C 532.00 746.67 532.00 748.33 532.00 750.00&#xA;C 570.67 750.00 609.33 750.00 648.00 750.00&#xA;C 702.00 750.00 756.00 750.00 810.00 750.00&#xA;C 809.82 719.45 812.37 689.59 812.00 659.00&#xA;C 801.91 660.19 805.90 677.44 803.00 686.00 C 800.09 694.55 799.93 705.38 795.30 713.31 C 790.68 721.23 787.73 727.47 779.75 732.75 C 771.76 738.02 764.95 741.21 755.00 743.00 C 745.06 744.79 733.03 745.16 722.00 745.00 C 710.97 744.84 698.33 745.06 687.00 745.00 C 675.67 744.94 663.42 745.00 652.00 745.00 Z"/>
  </g>
  <g fill="#445169" fill-opacity="1.00" stroke="None">
    <path d="&#xA;M 456.00 854.00 &#xA;C 455.37 837.88 458.82 819.41 457.60 802.25 C 456.39 785.09 457.90 767.55 457.60 750.25 C 457.31 732.95 457.00 715.47 458.00 698.00&#xA;C 458.26 693.42 457.35 688.54 458.00 684.00&#xA;C 457.89 681.64 456.68 674.72 457.60 672.25 C 458.53 669.78 455.42 661.28 458.00 660.00&#xA;C 445.61 660.00 432.30 660.58 420.00 660.00 C 407.70 659.42 393.97 661.55 382.00 660.00 C 370.03 658.45 356.24 663.68 345.00 660.00&#xA;C 344.07 665.62 353.46 672.22 355.08 677.92 C 356.69 683.63 362.50 690.03 365.23 695.77 C 367.96 701.51 372.21 707.95 375.23 713.77 C 378.25 719.59 382.07 724.89 385.23 730.77 C 388.39 736.65 392.07 742.81 395.23 748.77 C 398.39 754.73 402.51 760.34 405.70 766.31 C 408.88 772.27 412.44 778.40 415.70 784.30 C 418.96 790.21 422.43 795.41 425.69 801.31 C 428.96 807.20 432.43 813.41 435.70 819.30 C 438.97 825.20 442.85 831.04 446.08 836.92 C 449.31 842.81 452.77 848.33 456.00 854.00&#xA;M 377.00 692.00 &#xA;C 377.03 694.37 379.50 695.72 380.00 698.00&#xA;C 377.34 698.65 373.89 697.02 374.00 694.00&#xA;C 372.76 696.01 372.85 699.21 369.00 698.00&#xA;C 369.00 693.00 369.00 688.00 369.00 683.00&#xA;C 375.02 680.28 384.14 687.41 377.00 692.00&#xA;M 406.00 683.00 &#xA;C 407.69 688.08 409.70 693.09 412.00 698.00&#xA;C 405.80 695.42 402.59 694.60 397.00 698.00&#xA;C 399.85 693.28 399.36 683.72 406.00 683.00&#xA;M 440.00 683.00 &#xA;C 436.67 686.44 434.83 691.18 436.00 698.00&#xA;C 430.49 698.46 433.99 690.40 433.00 687.00&#xA;C 431.09 685.41 426.97 686.95 428.00 683.00&#xA;C 432.00 683.00 436.00 683.00 440.00 683.00&#xA;M 389.00 713.00 &#xA;C 392.32 710.43 390.55 702.33 397.00 704.00&#xA;C 393.58 708.74 394.20 719.09 387.00 719.00&#xA;C 386.48 713.67 382.85 709.29 382.00 704.00&#xA;C 387.41 702.73 386.81 709.84 389.00 713.00&#xA;M 418.00 704.00 &#xA;C 418.00 709.00 418.00 714.00 418.00 719.00&#xA;C 413.23 719.05 413.12 703.96 418.00 704.00&#xA;M 451.00 709.00 &#xA;C 447.63 708.18 439.38 705.13 440.03 712.03 C 440.67 718.92 448.47 713.68 452.00 714.00&#xA;C 448.49 721.57 437.48 720.39 437.01 711.99 C 436.54 703.60 448.89 700.50 451.00 709.00 Z"/>
  </g>
  <g fill="#3E5562" fill-opacity="1.00" stroke="None">
    <path d="&#xA;M 458.00 684.00 &#xA;C 458.05 683.65 458.65 683.07 459.00 683.00&#xA;C 459.97 682.82 461.03 683.15 462.00 683.00&#xA;C 462.00 688.00 462.00 693.00 462.00 698.00&#xA;C 461.00 698.00 460.00 698.00 459.00 698.00&#xA;C 458.51 697.94 458.00 698.00 458.00 698.00&#xA;C 457.00 715.47 457.31 732.95 457.60 750.25 C 457.90 767.55 456.39 785.09 457.60 802.25 C 458.82 819.41 455.37 837.88 456.00 854.00&#xA;C 477.17 892.97 500.13 931.25 522.00 970.00&#xA;C 555.29 914.06 587.39 856.69 620.00 800.00&#xA;C 619.99 800.06 615.66 793.71 621.00 793.00&#xA;C 618.95 790.94 620.03 789.10 618.00 787.00&#xA;C 622.35 785.20 619.36 781.76 618.00 779.00&#xA;C 622.35 777.20 619.36 773.76 618.00 771.00&#xA;C 622.71 768.51 618.20 764.88 618.40 761.25 C 618.59 757.61 620.44 754.62 620.00 751.00&#xA;C 613.00 751.00 604.89 751.22 598.00 751.00 C 591.11 750.78 582.49 751.59 576.00 751.00 C 569.51 750.41 559.53 752.35 554.00 751.00 C 548.47 749.65 534.75 754.34 532.00 750.00&#xA;C 532.00 748.33 532.00 746.67 532.00 745.00&#xA;C 556.36 748.70 581.00 736.19 581.00 710.00&#xA;C 581.00 693.56 579.52 676.36 581.00 660.00&#xA;C 560.65 661.85 539.40 659.29 519.00 660.00 C 498.60 660.71 478.38 660.00 458.00 660.00&#xA;C 455.42 661.28 458.53 669.78 457.60 672.25 C 456.68 674.72 457.89 681.64 458.00 684.00&#xA;M 491.00 683.00 &#xA;C 500.48 685.55 494.74 701.67 485.33 697.67 C 475.92 693.67 481.42 680.43 491.00 683.00&#xA;M 515.00 698.00 &#xA;C 513.02 697.04 513.22 684.04 515.00 683.00&#xA;C 518.80 680.77 520.59 689.37 522.00 691.00&#xA;C 524.03 689.22 522.53 685.52 523.00 683.00&#xA;C 529.07 683.54 524.65 693.50 526.00 698.00&#xA;C 521.24 699.21 520.19 693.28 519.00 690.00&#xA;C 516.97 691.77 518.47 695.48 518.00 698.00&#xA;C 517.00 698.00 516.00 698.00 515.00 698.00&#xA;M 479.00 704.00 &#xA;C 480.44 708.32 475.18 705.81 474.00 708.00&#xA;C 473.25 711.84 479.72 708.06 479.00 712.00&#xA;C 470.30 714.23 477.49 714.71 479.00 719.00&#xA;C 476.00 719.00 473.00 719.00 470.00 719.00&#xA;C 470.00 714.00 470.00 709.00 470.00 704.00&#xA;C 473.00 704.00 476.00 704.00 479.00 704.00 Z"/>
  </g>
  <g fill="#A8B5B8" fill-opacity="1.00" stroke="None">
    <path d="&#xA;M 581.00 710.00 &#xA;C 582.48 694.71 583.45 676.08 582.00 660.00&#xA;C 582.00 660.00 581.25 660.25 581.00 660.00&#xA;C 579.52 676.36 581.00 693.56 581.00 710.00 Z"/>
  </g>
  <g fill="#E7E7E7" fill-opacity="1.00" stroke="None">
    <path d="&#xA;M 263.00 688.00 &#xA;C 260.83 678.40 245.21 684.01 248.23 692.77 C 251.25 701.53 264.27 698.48 264.00 690.00&#xA;C 259.76 688.80 252.28 691.22 259.00 694.00&#xA;C 255.64 696.87 249.73 692.90 252.25 688.25 C 254.77 683.60 259.47 688.49 263.00 688.00 Z"/>
  </g>
  <g fill="#9B9A99" fill-opacity="1.00" stroke="None">
    <path d="&#xA;M 283.00 698.00 &#xA;C 283.00 693.00 283.00 688.00 283.00 683.00&#xA;C 281.12 684.32 281.05 696.64 283.00 698.00 Z"/>
  </g>
  <g fill="#F8F8F8" fill-opacity="1.00" stroke="None">
    <path d="&#xA;M 283.00 698.00 &#xA;C 285.67 698.00 288.33 698.00 291.00 698.00&#xA;C 289.49 693.71 282.30 693.23 291.00 691.00&#xA;C 291.72 687.06 285.25 690.84 286.00 687.00&#xA;C 287.18 684.81 292.44 687.32 291.00 683.00&#xA;C 288.99 683.94 284.79 681.75 283.00 683.00&#xA;C 283.00 688.00 283.00 693.00 283.00 698.00 Z"/>
  </g>
  <g fill="#E4E4E4" fill-opacity="1.00" stroke="None">
    <path d="&#xA;M 318.00 690.00 &#xA;C 315.37 687.77 314.87 681.62 310.00 683.00&#xA;C 310.00 688.00 310.00 693.00 310.00 698.00&#xA;C 315.06 699.44 314.06 694.23 314.00 691.00&#xA;C 317.08 692.96 317.02 699.46 322.00 698.00&#xA;C 322.00 693.00 322.00 688.00 322.00 683.00&#xA;C 316.94 681.57 317.94 686.77 318.00 690.00 Z"/>
  </g>
  <g fill="#EDEDEC" fill-opacity="1.00" stroke="None">
    <path d="&#xA;M 350.00 683.00 &#xA;C 347.00 683.00 344.00 683.00 341.00 683.00&#xA;C 341.00 688.00 341.00 693.00 341.00 698.00&#xA;C 344.00 698.00 347.00 698.00 350.00 698.00&#xA;C 348.49 693.71 341.30 693.23 350.00 691.00&#xA;C 350.72 687.06 344.25 690.84 345.00 687.00&#xA;C 346.18 684.81 351.44 687.32 350.00 683.00 Z"/>
  </g>
  <g fill="#E8E9ED" fill-opacity="1.00" stroke="None">
    <path d="&#xA;M 377.00 692.00 &#xA;C 384.14 687.41 375.02 680.28 369.00 683.00&#xA;C 369.00 688.00 369.00 693.00 369.00 698.00&#xA;C 372.85 699.21 372.76 696.01 374.00 694.00&#xA;C 373.89 697.02 377.34 698.65 380.00 698.00&#xA;C 379.50 695.72 377.03 694.37 377.00 692.00&#xA;M 376.00 686.00 &#xA;C 377.31 687.31 375.29 691.40 373.32 689.66 C 371.34 687.91 374.53 684.53 376.00 686.00 Z"/>
  </g>
  <g fill="#E2E4E8" fill-opacity="1.00" stroke="None">
    <path d="&#xA;M 406.00 683.00 &#xA;C 399.36 683.72 399.85 693.28 397.00 698.00&#xA;C 402.59 694.60 405.80 695.42 412.00 698.00&#xA;C 409.70 693.09 407.69 688.08 406.00 683.00 Z"/>
  </g>
  <g fill="#F2F3F5" fill-opacity="1.00" stroke="None">
    <path d="&#xA;M 440.00 683.00 &#xA;C 436.00 683.00 432.00 683.00 428.00 683.00&#xA;C 426.97 686.95 431.09 685.41 433.00 687.00&#xA;C 433.99 690.40 430.49 698.46 436.00 698.00&#xA;C 434.83 691.18 436.67 686.44 440.00 683.00 Z"/>
  </g>
  <g fill="#9EA7B1" fill-opacity="1.00" stroke="None">
    <path d="&#xA;M 458.00 684.00 &#xA;C 457.35 688.54 458.26 693.42 458.00 698.00&#xA;C 458.00 698.00 458.51 697.94 459.00 698.00&#xA;C 459.36 694.07 460.20 686.73 459.00 683.00&#xA;C 458.65 683.07 458.05 683.65 458.00 684.00 Z"/>
  </g>
  <g fill="#F3F4F5" fill-opacity="1.00" stroke="None">
    <path d="&#xA;M 459.00 698.00 &#xA;C 460.00 698.00 461.00 698.00 462.00 698.00&#xA;C 462.00 693.00 462.00 688.00 462.00 683.00&#xA;C 461.03 683.15 459.97 682.82 459.00 683.00&#xA;C 460.20 686.73 459.36 694.07 459.00 698.00 Z"/>
  </g>
  <g fill="#E7E9EC" fill-opacity="1.00" stroke="None">
    <path d="&#xA;M 491.00 683.00 &#xA;C 481.42 680.43 475.92 693.67 485.33 697.67 C 494.74 701.67 500.48 685.55 491.00 683.00&#xA;M 491.00 687.00 &#xA;C 494.64 689.41 490.36 697.11 485.92 694.07 C 481.49 691.03 486.36 683.92 491.00 687.00 Z"/>
  </g>
  <g fill="#9DA8AF" fill-opacity="1.00" stroke="None">
    <path d="&#xA;M 515.00 698.00 &#xA;C 515.00 693.00 515.00 688.00 515.00 683.00&#xA;C 513.22 684.04 513.02 697.04 515.00 698.00 Z"/>
  </g>
  <g fill="#F4F5F6" fill-opacity="1.00" stroke="None">
    <path d="&#xA;M 515.00 698.00 &#xA;C 516.00 698.00 517.00 698.00 518.00 698.00&#xA;C 518.47 695.48 516.97 691.77 519.00 690.00&#xA;C 520.19 693.28 521.24 699.21 526.00 698.00&#xA;C 524.65 693.50 529.07 683.54 523.00 683.00&#xA;C 522.53 685.52 524.03 689.22 522.00 691.00&#xA;C 520.59 689.37 518.80 680.77 515.00 683.00&#xA;C 515.00 688.00 515.00 693.00 515.00 698.00 Z"/>
  </g>
  <g fill="#4F5873" fill-opacity="1.00" stroke="None">
    <path d="&#xA;M 376.00 686.00 &#xA;C 374.53 684.53 371.34 687.91 373.32 689.66 C 375.29 691.40 377.31 687.31 376.00 686.00 Z"/>
  </g>
  <g fill="#46596A" fill-opacity="1.00" stroke="None">
    <path d="&#xA;M 491.00 687.00 &#xA;C 486.36 683.92 481.49 691.03 485.92 694.07 C 490.36 697.11 494.64 689.41 491.00 687.00 Z"/>
  </g>
  <g fill="#E7E7E6" fill-opacity="1.00" stroke="None">
    <path d="&#xA;M 307.00 709.00 &#xA;C 307.67 704.13 299.88 701.28 296.78 705.78 C 293.68 710.28 299.82 713.87 304.00 714.00&#xA;C 302.68 720.93 298.52 712.65 295.00 714.00&#xA;C 295.09 718.94 303.48 722.39 307.22 717.22 C 310.96 712.05 301.02 710.12 300.00 707.00&#xA;C 302.94 706.08 304.10 709.90 307.00 709.00 Z"/>
  </g>
  <g fill="#EDEDEC" fill-opacity="1.00" stroke="None">
    <path d="&#xA;M 335.00 704.00 &#xA;C 332.00 704.00 329.00 704.00 326.00 704.00&#xA;C 326.00 709.00 326.00 714.00 326.00 719.00&#xA;C 329.00 719.00 332.00 719.00 335.00 719.00&#xA;C 333.49 714.71 326.30 714.24 335.00 712.00&#xA;C 335.72 708.06 329.25 711.84 330.00 708.00&#xA;C 331.18 705.81 336.44 708.32 335.00 704.00 Z"/>
  </g>
  <g fill="#E8E8E8" fill-opacity="1.00" stroke="None">
    <path d="&#xA;M 365.00 719.00 &#xA;C 360.54 713.18 367.89 700.60 354.00 704.00&#xA;C 354.00 709.00 354.00 714.00 354.00 719.00&#xA;C 357.85 720.21 357.76 717.01 359.00 715.00&#xA;C 358.89 718.02 362.34 719.65 365.00 719.00&#xA;M 361.00 707.00 &#xA;C 362.31 708.31 360.29 712.40 358.32 710.66 C 356.34 708.91 359.53 705.53 361.00 707.00 Z"/>
  </g>
  <g fill="#E6E7EB" fill-opacity="1.00" stroke="None">
    <path d="&#xA;M 389.00 713.00 &#xA;C 386.81 709.84 387.41 702.73 382.00 704.00&#xA;C 382.85 709.29 386.48 713.67 387.00 719.00&#xA;C 394.20 719.09 393.58 708.74 397.00 704.00&#xA;C 390.55 702.33 392.32 710.43 389.00 713.00 Z"/>
  </g>
  <g fill="#FCFDFD" fill-opacity="1.00" stroke="None">
    <path d="&#xA;M 418.00 704.00 &#xA;C 413.12 703.96 413.23 719.05 418.00 719.00&#xA;C 418.00 714.00 418.00 709.00 418.00 704.00 Z"/>
  </g>
  <g fill="#EDEFF1" fill-opacity="1.00" stroke="None">
    <path d="&#xA;M 451.00 709.00 &#xA;C 448.89 700.50 436.54 703.60 437.01 711.99 C 437.48 720.39 448.49 721.57 452.00 714.00&#xA;C 448.47 713.68 440.67 718.92 440.03 712.03 C 439.38 705.13 447.63 708.18 451.00 709.00 Z"/>
  </g>
  <g fill="#EDEFF1" fill-opacity="1.00" stroke="None">
    <path d="&#xA;M 479.00 704.00 &#xA;C 476.00 704.00 473.00 704.00 470.00 704.00&#xA;C 470.00 709.00 470.00 714.00 470.00 719.00&#xA;C 473.00 719.00 476.00 719.00 479.00 719.00&#xA;C 477.49 714.71 470.30 714.23 479.00 712.00&#xA;C 479.72 708.06 473.25 711.84 474.00 708.00&#xA;C 475.18 705.81 480.44 708.32 479.00 704.00 Z"/>
  </g>
  <g fill="#454341" fill-opacity="1.00" stroke="None">
    <path d="&#xA;M 361.00 707.00 &#xA;C 359.53 705.53 356.34 708.91 358.32 710.66 C 360.29 712.40 362.31 708.31 361.00 707.00 Z"/>
  </g>
  <g fill="#6C8287" fill-opacity="1.00" stroke="None">
    <path d="&#xA;M 620.00 751.00 &#xA;C 629.21 751.00 638.84 751.83 648.00 751.00&#xA;C 648.00 751.00 648.04 750.00 648.00 750.00&#xA;C 609.33 750.00 570.67 750.00 532.00 750.00&#xA;C 534.75 754.34 548.47 749.65 554.00 751.00 C 559.53 752.35 569.51 750.41 576.00 751.00 C 582.49 751.59 591.11 750.78 598.00 751.00 C 604.89 751.22 613.00 751.00 620.00 751.00 Z"/>
  </g>
  <g fill="#38595C" fill-opacity="1.00" stroke="None">
    <path d="&#xA;M 620.00 800.00 &#xA;C 629.39 783.69 638.05 767.00 648.00 751.00&#xA;C 638.84 751.83 629.21 751.00 620.00 751.00&#xA;C 620.44 754.62 618.59 757.61 618.40 761.25 C 618.20 764.88 622.71 768.51 618.00 771.00&#xA;C 619.36 773.76 622.35 777.20 618.00 779.00&#xA;C 619.36 781.76 622.35 785.20 618.00 787.00&#xA;C 620.03 789.10 618.95 790.94 621.00 793.00&#xA;C 615.66 793.71 619.99 800.06 620.00 800.00 Z"/>
  </g>
</svg>