<?xml version="1.0" encoding="UTF-8" standalone="yes"?>
<svg version="1.2" width="304" height="304" baseProfile="tiny-ps" xmlns="http://www.w3.org/2000/svg">
  <title>bimi-svg-tiny-12-ps</title>
  <path d="M0 0 C100.32 0 200.64 0 304 0 C304 100.32 304 200.64 304 304 C203.68 304 103.36 304 0 304 C0 203.68 0 103.36 0 0 Z " fill="#FEFEFE" transform="translate(0,0)"/>
  <path d="M0 0 C0.66 0.33 1.32 0.66 2 1 C1.7834375 2.299375 1.7834375 2.299375 1.5625 3.625 C2.11516236 7.88839532 3.3002914 8.92857873 6.609375 11.484375 C13.73908089 16.00451534 21.66002378 19.55654258 30 21 C30.495 20.505 30.495 20.505 31 20 C34.375 19.75 34.375 19.75 38 20 C38.46148437 20.49371094 38.92296875 20.98742187 39.3984375 21.49609375 C42.20051672 24.12731448 45.53502697 23.33054049 49.19140625 23.23828125 C52.7189473 22.93900447 55.67168617 22.18340047 59 21 C59.33 19.02 59.66 17.04 60 15 C63.12390012 17.44054697 63.9381042 18.5589924 64.5 22.5625 C64 26 64 26 62.4375 27.8125 C60 29 60 29 56.625 29.625 C52.09582001 31.34296482 51.21691508 33.1323772 48.8046875 37.16796875 C46.56723486 40.67912279 43.99550849 43.83308204 41.375 47.0625 C37.55050111 51.82445741 34.38159139 56.3295443 32 62 C31.67 62 31.34 62 31 62 C30.0641911 51.47214988 35.97374975 41.45508767 40 32 C39.01 32.66 38.02 33.32 37 34 C34.0625 34.4375 34.0625 34.4375 31 34 C29.65080468 32.34614767 28.31866272 30.678298 27 29 C23.37526891 27.64164329 23.37526891 27.64164329 20 27 C21.98 31.29 23.96 35.58 26 40 C18.88885015 37.15554006 14.92582428 33.14161025 11.5 26.3125 C9.07369633 21.60355538 6.72802948 20.27958564 2 18 C-1.05730856 15.75797372 -2.88829364 14.16755954 -5 11 C-5.4375 7.5625 -5.4375 7.5625 -5 4 C-2.5 1.5625 -2.5 1.5625 0 0 Z " fill="#31AECE" transform="translate(23,175)"/>
  <path d="M0 0 C1.12148437 -0.01675781 2.24296875 -0.03351563 3.3984375 -0.05078125 C8.14254922 0.48336208 11.58168149 2.66051779 14.625 6.3125 C15.86615911 10.03597734 16.1670862 13.44464172 15.625 17.3125 C13.09079412 21.9439797 10.69402315 25.62282562 5.625 27.3125 C3.50430439 27.48316284 1.37704902 27.5787598 -0.75 27.625 C-1.87148437 27.66238281 -2.99296875 27.69976562 -4.1484375 27.73828125 C-8.07560536 27.22004723 -9.61007699 26.10184812 -12.375 23.3125 C-15.57337897 18.6364505 -15.11549442 12.7255142 -14.375 7.3125 C-10.3776878 1.91072675 -6.61788758 0.02271586 0 0 Z " fill="#4F63A0" transform="translate(144.375,175.6875)"/>
  <path d="M0 0 C7.62959702 3.4601347 13.73293079 9.51909487 17.203125 17.125 C18.73965754 22.66856836 18.36917297 28.30653247 18 34 C15.24921116 34.91692961 13.64051087 35.10886083 10.8125 35.0625 C9.554375 35.041875 8.29625 35.02125 7 35 C7 33.35 7 31.7 7 30 C-0.92 30.33 -8.84 30.66 -17 31 C-17.33 29.68 -17.66 28.36 -18 27 C-14.88248002 26.06285078 -12.25850091 25.94313105 -9.015625 26.12109375 C-7.61376953 26.19360352 -7.61376953 26.19360352 -6.18359375 26.26757812 C-5.21550781 26.32365234 -4.24742188 26.37972656 -3.25 26.4375 C-1.77466797 26.51581055 -1.77466797 26.51581055 -0.26953125 26.59570312 C2.15398849 26.72511437 4.57706864 26.86006905 7 27 C7 25.02 7 23.04 7 21 C-3.89 21.495 -3.89 21.495 -15 22 C-15 20.68 -15 19.36 -15 18 C-12.19655645 18 -9.46452301 18.05917011 -6.671875 18.21875 C-5.47304688 18.28642578 -5.47304688 18.28642578 -4.25 18.35546875 C-3.0125 18.42701172 -3.0125 18.42701172 -1.75 18.5 C-0.90953125 18.54769531 -0.0690625 18.59539062 0.796875 18.64453125 C2.86464056 18.76201793 4.93232818 18.88087487 7 19 C6.67 16.69 6.34 14.38 6 12 C4.96359375 12.0721875 3.9271875 12.144375 2.859375 12.21875 C1.4895882 12.31257101 0.11979626 12.40631708 -1.25 12.5 C-1.93191406 12.54769531 -2.61382812 12.59539062 -3.31640625 12.64453125 C-6.55731503 12.86478719 -9.7493366 13 -13 13 C-13 11.68 -13 10.36 -13 9 C-7.39 9 -1.78 9 4 9 C2.02 5.535 2.02 5.535 0 2 C0 1.34 0 0.68 0 0 Z " fill="#3B90BB" transform="translate(61,162)"/>
  <path d="M0 0 C0.66 0.33 1.32 0.66 2 1 C1.7834375 2.299375 1.7834375 2.299375 1.5625 3.625 C2.11516236 7.88839532 3.3002914 8.92857873 6.609375 11.484375 C13.73908089 16.00451534 21.66002378 19.55654258 30 21 C30.495 20.505 30.495 20.505 31 20 C32.99958364 19.95919217 35.00045254 19.95745644 37 20 C37 20.66 37 21.32 37 22 C36.01 22 35.02 22 34 22 C34 22.66 34 23.32 34 24 C32.0625 26.75 32.0625 26.75 29 29 C25.72700891 28.83032989 23.16773618 27.99287253 20 27 C21.98 31.29 23.96 35.58 26 40 C18.88885015 37.15554006 14.92582428 33.14161025 11.5 26.3125 C9.07369633 21.60355538 6.72802948 20.27958564 2 18 C-1.05730856 15.75797372 -2.88829364 14.16755954 -5 11 C-5.4375 7.5625 -5.4375 7.5625 -5 4 C-2.5 1.5625 -2.5 1.5625 0 0 Z " fill="#33A0C5" transform="translate(23,175)"/>
  <path d="M0 0 C0.33 0 0.66 0 1 0 C0.81673018 8.70342708 -0.89623348 15.00121455 -4.875 22.6875 C-9.45408072 32.05050232 -11.9305839 40.66231105 -13 51 C-16.77948596 49.51911112 -20.3850182 47.84952557 -24 46 C-23.62467085 34.74012554 -18.66044528 26.33629455 -11.02734375 18.29296875 C-6.28105556 12.92481622 -2.48831954 6.71604692 0 0 Z " fill="#3C84B2" transform="translate(54,140)"/>
  <path d="M0 0 C2.72977064 -0.08126109 5.4571017 -0.14061663 8.1875 -0.1875 C9.34088867 -0.22520508 9.34088867 -0.22520508 10.51757812 -0.26367188 C15.2172263 -0.32418237 18.13604564 0.02137887 22 3 C23 4 23 4 23.3125 7.3125 C23 11 23 11 21.1875 13.375 C17.21809727 16.32369917 13.79730071 16.09051511 9 16 C9 18.97 9 21.94 9 25 C9.99 25 10.98 25 12 25 C12 25.66 12 26.32 12 27 C8.04 27 4.08 27 0 27 C0 26.34 0 25.68 0 25 C0.99 25 1.98 25 3 25 C3 17.41 3 9.82 3 2 C2.01 1.67 1.02 1.34 0 1 C0 0.67 0 0.34 0 0 Z " fill="#527CAC" transform="translate(166,176)"/>
  <path d="M0 0 C2.56278699 -0.05420701 5.12441483 -0.09377007 7.6875 -0.125 C8.40873047 -0.14175781 9.12996094 -0.15851563 9.87304688 -0.17578125 C14.04191118 -0.21385307 17.29316168 0.0331062 21 2 C23 4 23 4 23.375 6.8125 C22.91533028 10.7196926 21.75388032 12.24611968 19 15 C15.52674819 16.1577506 12.63932552 16.06866652 9 16 C9 18.97 9 21.94 9 25 C9.99 25 10.98 25 12 25 C12 25.66 12 26.32 12 27 C8.04 27 4.08 27 0 27 C0 26.34 0 25.68 0 25 C0.99 25 1.98 25 3 25 C3 17.41 3 9.82 3 2 C2.01 1.67 1.02 1.34 0 1 C0 0.67 0 0.34 0 0 Z " fill="#5274A9" transform="translate(194,176)"/>
  <path d="M0 0 C3.96 0 7.92 0 12 0 C11.01 0.495 11.01 0.495 10 1 C10.33 4.63 10.66 8.26 11 12 C12.36877116 10.76600937 13.71969166 9.51219377 15.0625 8.25 C15.81660156 7.55390625 16.57070312 6.8578125 17.34765625 6.140625 C18.16556641 5.08101562 18.16556641 5.08101562 19 4 C18.67 2.68 18.34 1.36 18 0 C21.3 0 24.6 0 28 0 C28 0.66 28 1.32 28 2 C27.29875 2.20625 26.5975 2.4125 25.875 2.625 C22.28268153 4.34306535 19.16512097 6.59766705 17 10 C17.2488463 13.61958261 19.28212467 16.21204182 21.3125 19.125 C21.90675781 19.99382812 22.50101563 20.86265625 23.11328125 21.7578125 C24.98686384 23.98438891 26.3234064 24.94827007 29 26 C29 26.33 29 26.66 29 27 C25.42484369 27.79122312 22.5424011 28.02358332 19 27 C15.66876447 23.36011965 13.313574 19.34279811 11 15 C10.67 18.3 10.34 21.6 10 25 C10.66 25 11.32 25 12 25 C12 25.66 12 26.32 12 27 C8.04 27 4.08 27 0 27 C0.33 26.34 0.66 25.68 1 25 C1.99 25 2.98 25 4 25 C4 17.41 4 9.82 4 2 C2.68 1.67 1.36 1.34 0 1 C0 0.67 0 0.34 0 0 Z " fill="#5482B1" transform="translate(99,176)"/>
  <path d="M0 0 C3.42037748 3.42037748 4.26740403 6.30109894 4.4375 11 C4.25867643 15.56000101 3.3515068 19.6484932 0 23 C-7.29411765 23.47058824 -7.29411765 23.47058824 -9.875 21.75 C-13.4020119 16.26353705 -13.80418901 11.46223309 -13 5 C-9.45230689 -0.91282185 -6.62509377 -1.71338632 0 0 Z " fill="#F7F8FA" transform="translate(149,178)"/>
  <path d="M0 0 C4.29 0 8.58 0 13 0 C13 0.66 13 1.32 13 2 C12.34 2 11.68 2 11 2 C11.495 2.78375 11.99 3.5675 12.5 4.375 C14 7 14 7 14 9 C16.52588702 6.63707344 17.88820837 5.33537489 19 2 C18.67 1.34 18.34 0.68 18 0 C20.97 0 23.94 0 27 0 C26.2575 0.721875 25.515 1.44375 24.75 2.1875 C19.93279355 6.53195908 19.93279355 6.53195908 17.875 12.3125 C19.31111218 15.74321244 21.38572897 18.35467353 23.72265625 21.23046875 C25 23 25 23 25 25 C26.32 25 27.64 25 29 25 C29 25.66 29 26.32 29 27 C24.38 27 19.76 27 15 27 C15 26.34 15 25.68 15 25 C15.99 25 16.98 25 18 25 C16.35 22.36 14.7 19.72 13 17 C10.37886292 19.62113708 8.80357333 21.82227557 7 25 C7.66 25 8.32 25 9 25 C9 25.66 9 26.32 9 27 C6.03 27 3.06 27 0 27 C0 26.34 0 25.68 0 25 C0.721875 24.608125 1.44375 24.21625 2.1875 23.8125 C5.79766484 21.48594932 8.15891457 18.89928 10 15 C9.29728258 9.51880409 3.84665071 3.84665071 0 0 Z " fill="#4E6BA5" transform="translate(247,176)"/>
  <path d="M0 0 C6.6 0 13.2 0 20 0 C19.67 2.31 19.34 4.62 19 7 C18.34 7 17.68 7 17 7 C17 5.35 17 3.7 17 2 C14.36 2 11.72 2 9 2 C9 5.3 9 8.6 9 12 C10.65 12 12.3 12 14 12 C14.33 11.01 14.66 10.02 15 9 C15.33 9 15.66 9 16 9 C16 11.64 16 14.28 16 17 C15.34 16.34 14.68 15.68 14 15 C12.35 14.67 10.7 14.34 9 14 C9 17.63 9 21.26 9 25 C11.64 25 14.28 25 17 25 C17.66 23.35 18.32 21.7 19 20 C19.33 20 19.66 20 20 20 C20 22.31 20 24.62 20 27 C13.4 27 6.8 27 0 27 C0 26.34 0 25.68 0 25 C0.99 25 1.98 25 3 25 C3 17.41 3 9.82 3 2 C2.01 1.67 1.02 1.34 0 1 C0 0.67 0 0.34 0 0 Z " fill="#466EA5" transform="translate(222,176)"/>
  <path d="M0 0 C2.33944736 0.28730055 4.6739143 0.61936779 7 1 C7 1.66 7 2.32 7 3 C7.99 2.34 8.98 1.68 10 1 C12.6875 0.875 12.6875 0.875 15 1 C15 1.66 15 2.32 15 3 C13.68 2.67 12.36 2.34 11 2 C12.0209375 2.86625 12.0209375 2.86625 13.0625 3.75 C13.701875 4.4925 14.34125 5.235 15 6 C14.75 8.25 14.75 8.25 14 10 C12.35 10.33 10.7 10.66 9 11 C9 10.34 9 9.68 9 9 C8.34 9 7.68 9 7 9 C7 9.66 7 10.32 7 11 C4.89646505 11.0810206 2.79204048 11.13919907 0.6875 11.1875 C-1.07013672 11.23970703 -1.07013672 11.23970703 -2.86328125 11.29296875 C-6 11 -6 11 -7.8984375 9.6484375 C-9.4499323 7.32669706 -9.35001162 5.73009061 -9 3 C-7 1 -7 1 -3.9375 0.9375 C-2.4834375 0.9684375 -2.4834375 0.9684375 -1 1 C-0.67 0.67 -0.34 0.34 0 0 Z " fill="#EDECF3" transform="translate(208,208)"/>
  <path d="M0 0 C0.33 0 0.66 0 1 0 C1.66 2.97 2.32 5.94 3 9 C10.92 9 18.84 9 27 9 C27 10.65 27 12.3 27 14 C30.63 13.67 34.26 13.34 38 13 C38 10.36 38 7.72 38 5 C38.33 5 38.66 5 39 5 C39 7.97 39 10.94 39 14 C35.3341862 15.67294412 32.40018697 16.295867 28.375 16.3125 C27.43398437 16.32925781 26.49296875 16.34601563 25.5234375 16.36328125 C22.55371676 15.93575179 21.9741706 15.13589644 20 13 C16.27013478 12.73358106 13.55353929 12.8154869 10 14 C2.69910309 11.81272719 -4.2751335 8.56022344 -11 5 C-10.34 4.34 -9.68 3.68 -9 3 C-6.03 4.65 -3.06 6.3 0 8 C0 5.36 0 2.72 0 0 Z " fill="#EEF6F9" transform="translate(41,183)"/>
  <path d="M0 0 C2.46936566 3.70404849 2.67553682 6.70260915 2 11 C-0.53420588 15.6314797 -2.93097685 19.31032562 -8 21 C-19.1835967 22.03278597 -19.1835967 22.03278597 -22.96484375 19.8828125 C-24.3125 18.5 -24.3125 18.5 -26 16 C-24.02 15.34 -22.04 14.68 -20 14 C-19.67 15.32 -19.34 16.64 -19 18 C-15.7 18 -12.4 18 -9 18 C-5.82307843 12.75117306 -5.34302035 7.98511371 -5 2 C-3.35 2 -1.7 2 0 2 C0 1.34 0 0.68 0 0 Z " fill="#4F70A7" transform="translate(158,182)"/>
  <path d="M0 0 C2.72977064 -0.08126109 5.4571017 -0.14061663 8.1875 -0.1875 C9.34088867 -0.22520508 9.34088867 -0.22520508 10.51757812 -0.26367188 C15.2172263 -0.32418237 18.13604564 0.02137887 22 3 C23 4 23 4 23.0625 7.0625 C23.041875 8.031875 23.02125 9.00125 23 10 C22.01 10 21.02 10 20 10 C19.34 11.32 18.68 12.64 18 14 C17.01 14 16.02 14 15 14 C15.14308594 13.06027344 15.14308594 13.06027344 15.2890625 12.1015625 C15.45535156 10.87566406 15.45535156 10.87566406 15.625 9.625 C15.74101562 8.81289062 15.85703125 8.00078125 15.9765625 7.1640625 C15.98429688 6.44992188 15.99203125 5.73578125 16 5 C13.86132495 2.49152482 13.86132495 2.49152482 9 2 C9 5.96 9 9.92 9 14 C8.67 13.34 8.34 12.68 8 12 C7.01 11.67 6.02 11.34 5 11 C3.29466783 7.67908998 3 5.81507216 3 2 C2.01 1.67 1.02 1.34 0 1 C0 0.67 0 0.34 0 0 Z " fill="#5E5F9B" transform="translate(166,176)"/>
  <path d="M0 0 C0.33 0 0.66 0 1 0 C1.13129907 10.24132745 -2.08238643 17.32034785 -7 26 C-7.66 26 -8.32 26 -9 26 C-9.33 26.66 -9.66 27.32 -10 28 C-10 26.68 -10 25.36 -10 24 C-11.32 24 -12.64 24 -14 24 C-12.63985977 20.0457779 -10.85300159 17.40006975 -8.125 14.25 C-4.43209693 9.7782301 -1.99298307 5.42825651 0 0 Z " fill="#4670A4" transform="translate(54,140)"/>
  <path d="M0 0 C1.76949095 -0.10815225 3.54087487 -0.18566083 5.3125 -0.25 C6.29863281 -0.29640625 7.28476563 -0.3428125 8.30078125 -0.390625 C11 0 11 0 12.85546875 2.015625 C13.23316406 2.67046875 13.61085937 3.3253125 14 4 C14.33 2.68 14.66 1.36 15 0 C15.66 0 16.32 0 17 0 C17 2.97 17 5.94 17 9 C13 7 13 7 11 4 C11 5.98 11 7.96 11 10 C10.360625 9.814375 9.72125 9.62875 9.0625 9.4375 C8.0415625 9.2209375 8.0415625 9.2209375 7 9 C6.67 9.33 6.34 9.66 6 10 C4.00041636 10.04080783 1.99954746 10.04254356 0 10 C0 6.7 0 3.4 0 0 Z " fill="#DCDBE8" transform="translate(180,209)"/>
  <path d="M0 0 C2.56278699 -0.05420701 5.12441483 -0.09377007 7.6875 -0.125 C8.40873047 -0.14175781 9.12996094 -0.15851563 9.87304688 -0.17578125 C14.04191118 -0.21385307 17.29316168 0.0331062 21 2 C23 4 23 4 23.125 7.125 C23.08375 8.07375 23.0425 9.0225 23 10 C21 10 19 10 17 10 C16.814375 9.05125 16.62875 8.1025 16.4375 7.125 C15.26599195 3.61628301 15.26599195 3.61628301 11.375 2.625 C10.26125 2.41875 9.1475 2.2125 8 2 C8 4.97 8 7.94 8 11 C7.34 11 6.68 11 6 11 C5.875 3.25 5.875 3.25 7 1 C5.02 1.33 3.04 1.66 1 2 C0.67 1.34 0.34 0.68 0 0 Z " fill="#565D9A" transform="translate(194,176)"/>
  <path d="M0 0 C0.33 0 0.66 0 1 0 C1.76173392 4.3164922 2.16063604 7.74433453 1 12 C0.67 11.01 0.34 10.02 0 9 C-7.92 9.33 -15.84 9.66 -24 10 C-24.33 8.68 -24.66 7.36 -25 6 C-21.88248002 5.06285078 -19.25850091 4.94313105 -16.015625 5.12109375 C-14.61376953 5.19360352 -14.61376953 5.19360352 -13.18359375 5.26757812 C-12.21550781 5.32365234 -11.24742188 5.37972656 -10.25 5.4375 C-8.77466797 5.51581055 -8.77466797 5.51581055 -7.26953125 5.59570312 C-4.84601151 5.72511437 -2.42293136 5.86006905 0 6 C0 4.02 0 2.04 0 0 Z " fill="#6CB4D1" transform="translate(68,183)"/>
  <path d="M0 0 C3.625 -0.1875 3.625 -0.1875 7 0 C7.33 0.66 7.66 1.32 8 2 C7.34 2 6.68 2 6 2 C6.99 3.485 6.99 3.485 8 5 C7.75 7.125 7.75 7.125 7 9 C4.20129973 10.39935013 2.09501208 10.25265405 -1 10 C-2.875 8.5 -2.875 8.5 -4 7 C-2.79618552 4.50638429 -1.54571278 2.31856917 0 0 Z " fill="#3DB0CF" transform="translate(55,199)"/>
  <path d="M0 0 C0.66 0.33 1.32 0.66 2 1 C1.67 4.3 1.34 7.6 1 11 C-5.40818182 11.36272727 -5.40818182 11.36272727 -7.9375 9.8125 C-9.36405327 7.37896796 -9.35571424 5.77457104 -9 3 C-7 1 -7 1 -3.9375 0.9375 C-2.4834375 0.9684375 -2.4834375 0.9684375 -1 1 C-0.67 0.67 -0.34 0.34 0 0 Z " fill="#F8F8FB" transform="translate(208,208)"/>
  <path d="M0 0 C2.31 0.33 4.62 0.66 7 1 C6.67 1.66 6.34 2.32 6 3 C5.01 2.67 4.02 2.34 3 2 C3 2.99 3 3.98 3 5 C3.99 5 4.98 5 6 5 C5.34 6.98 4.68 8.96 4 11 C1.03 11 -1.94 11 -5 11 C-5 7.7 -5 4.4 -5 1 C-3.68 1.33 -2.36 1.66 -1 2 C-0.67 1.34 -0.34 0.68 0 0 Z " fill="#B7B4D0" transform="translate(137,208)"/>
  <path d="M0 0 C5 0 5 0 6.8125 1.125 C8.55198782 3.87155972 8.39769128 5.81846974 8 9 C6.8125 10.875 6.8125 10.875 5 12 C3.35 12 1.7 12 0 12 C0 8.04 0 4.08 0 0 Z " fill="#F3F4F8" transform="translate(175,178)"/>
  <path d="M0 0 C6.6 0 13.2 0 20 0 C19.67 2.31 19.34 4.62 19 7 C18.34 7 17.68 7 17 7 C17 5.35 17 3.7 17 2 C14.03 2 11.06 2 8 2 C7.67 3.65 7.34 5.3 7 7 C6.34 7 5.68 7 5 7 C5.33 7.99 5.66 8.98 6 10 C5.01 10 4.02 10 3 10 C3 7.36 3 4.72 3 2 C2.01 1.67 1.02 1.34 0 1 C0 0.67 0 0.34 0 0 Z " fill="#5D5F9D" transform="translate(222,176)"/>
  <path d="M0 0 C3.96 0 7.92 0 12 0 C11.34 0.66 10.68 1.32 10 2 C9.53513282 5.12196336 9.53513282 5.12196336 9.375 8.625 C9.30023438 9.81351563 9.22546875 11.00203125 9.1484375 12.2265625 C9.09945312 13.14179688 9.05046875 14.05703125 9 15 C7.0625 14.625 7.0625 14.625 5 14 C3.73762269 11.47524538 3.90143596 9.68799534 3.9375 6.875 C3.94652344 5.96492187 3.95554687 5.05484375 3.96484375 4.1171875 C3.97644531 3.41851562 3.98804687 2.71984375 4 2 C2.68 1.67 1.36 1.34 0 1 C0 0.67 0 0.34 0 0 Z " fill="#525D9C" transform="translate(99,176)"/>
  <path d="M0 0 C1.65 0 3.3 0 5 0 C7 2 7 2 7.265625 3.875 C7.26046875 4.57625 7.2553125 5.2775 7.25 6 C7.25515625 6.70125 7.2603125 7.4025 7.265625 8.125 C7 10 7 10 5 12 C3.35 12 1.7 12 0 12 C0 8.04 0 4.08 0 0 Z " fill="#F7F8FA" transform="translate(203,178)"/>
  <path d="M0 0 C0.66 0.33 1.32 0.66 2 1 C1.979375 1.928125 1.95875 2.85625 1.9375 3.8125 C1.84230396 7.02286011 1.84230396 7.02286011 3 10 C2.34 10 1.68 10 1 10 C1 10.99 1 11.98 1 13 C-3.875 12.125 -3.875 12.125 -5 11 C-5.375 7.6875 -5.375 7.6875 -5 4 C-2.5 1.5625 -2.5 1.5625 0 0 Z " fill="#3E90B9" transform="translate(23,175)"/>
  <path d="M0 0 C4.29 0 8.58 0 13 0 C13 0.66 13 1.32 13 2 C12.34 2 11.68 2 11 2 C11.66 3.98 12.32 5.96 13 8 C10 9 10 9 8.0625 8.375 C5.44244491 6.62829661 3.8811007 4.50813427 2 2 C1.34 1.34 0.68 0.68 0 0 Z " fill="#595C9D" transform="translate(247,176)"/>
  <path d="M0 0 C2.64 0 5.28 0 8 0 C7.01 0.495 7.01 0.495 6 1 C6 4.96 6 8.92 6 13 C5.67 12.34 5.34 11.68 5 11 C4.01 10.67 3.02 10.34 2 10 C0.19733731 6.58442859 -0.218934 3.83134499 0 0 Z " fill="#4E5998" transform="translate(169,177)"/>
  <path d="M0 0 C2.06183633 -0.08150744 4.12461349 -0.1394194 6.1875 -0.1875 C7.33605469 -0.22230469 8.48460937 -0.25710937 9.66796875 -0.29296875 C14.27072382 0.11172835 16.78317409 1.78317409 20 5 C20 5.99 20 6.98 20 8 C17.1875 8.3125 17.1875 8.3125 14 8 C13.525625 7.195625 13.05125 6.39125 12.5625 5.5625 C12.046875 4.716875 11.53125 3.87125 11 3 C7.56007221 2.24666396 7.56007221 2.24666396 4 2 C1.77734375 0.98046875 1.77734375 0.98046875 0 0 Z " fill="#4F5899" transform="translate(138,176)"/>
  <path d="M0 0 C2 1.5625 2 1.5625 4 4 C4.25 7.75 4.25 7.75 4 11 C2.02 11.99 2.02 11.99 0 13 C-0.33 11.68 -0.66 10.36 -1 9 C-1.99 9 -2.98 9 -4 9 C-3.67 8.01 -3.34 7.02 -3 6 C-2.34 6 -1.68 6 -1 6 C-0.67 4.02 -0.34 2.04 0 0 Z " fill="#3AA7C6" transform="translate(83,190)"/>
  <path d="M0 0 C0.33 0 0.66 0 1 0 C1 3.63 1 7.26 1 11 C3.64 11 6.28 11 9 11 C9.66 9.35 10.32 7.7 11 6 C11.33 6 11.66 6 12 6 C12 8.31 12 10.62 12 13 C5.4 13 -1.2 13 -8 13 C-8 12.34 -8 11.68 -8 11 C-5.36 11.33 -2.72 11.66 0 12 C0 8.04 0 4.08 0 0 Z " fill="#5C92BA" transform="translate(230,190)"/>
  <path d="M0 0 C0.99 0.33 1.98 0.66 3 1 C2.34 1 1.68 1 1 1 C2.98 5.29 4.96 9.58 7 14 C2.62173239 12.24869296 1.19838597 11.5629969 -1.8125 8.375 C-2.41707031 7.74335938 -3.02164063 7.11171875 -3.64453125 6.4609375 C-4.31548828 5.73777344 -4.31548828 5.73777344 -5 5 C-3.35 3.35 -1.7 1.7 0 0 Z " fill="#40B4D1" transform="translate(42,201)"/>
  <path d="M0 0 C0.66 1.32 1.32 2.64 2 4 C5.63 4 9.26 4 13 4 C13 4.99 13 5.98 13 7 C1.36143498 7.76681614 1.36143498 7.76681614 -1.9765625 5.88671875 C-3.3125 4.5 -3.3125 4.5 -5 2 C-3.35 1.34 -1.7 0.68 0 0 Z " fill="#5E95BC" transform="translate(137,196)"/>
  <path d="M0 0 C1.37562854 1.28965176 2.70766393 2.62689293 4 4 C4 4.66 4 5.32 4 6 C5.32 6 6.64 6 8 6 C8 6.66 8 7.32 8 8 C3.38 8 -1.24 8 -6 8 C-6 7.34 -6 6.68 -6 6 C-5.195625 5.7525 -4.39125 5.505 -3.5625 5.25 C-0.828919 4.27761141 -0.828919 4.27761141 -0.1875 1.875 C-0.125625 1.25625 -0.06375 0.6375 0 0 Z " fill="#5F96BB" transform="translate(268,195)"/>
  <path d="M0 0 C3.3 0 6.6 0 10 0 C10 0.66 10 1.32 10 2 C9.319375 2.165 8.63875 2.33 7.9375 2.5 C3.60367647 4.71301627 1.02197064 8.25519489 -2 12 C-2.66 11.01 -3.32 10.02 -4 9 C-2.7315625 7.88625 -2.7315625 7.88625 -1.4375 6.75 C-0.633125 5.8425 0.17125 4.935 1 4 C0.67 2.68 0.34 1.36 0 0 Z " fill="#6C6FA6" transform="translate(117,176)"/>
  <path d="M0 0 C1.98 0 3.96 0 6 0 C5.67 0.66 5.34 1.32 5 2 C4.34 1.67 3.68 1.34 3 1 C3 1.99 3 2.98 3 4 C3.66 4 4.32 4 5 4 C4.34 5.32 3.68 6.64 3 8 C4.32 7.67 5.64 7.34 7 7 C6.67 7.99 6.34 8.98 6 10 C4.02 10 2.04 10 0 10 C0 6.7 0 3.4 0 0 Z " fill="#8783B1" transform="translate(146,209)"/>
  <path d="M0 0 C1.98 0 3.96 0 6 0 C6.625 1.875 6.625 1.875 7 4 C6.34 4.66 5.68 5.32 5 6 C4.01 6 3.02 6 2 6 C2 6.99 2 7.98 2 9 C1.34 9 0.68 9 0 9 C0 6.03 0 3.06 0 0 Z " fill="#7D78AC" transform="translate(245,209)"/>
  <path d="M0 0 C4 2 4 2 5 4 C5.33 2.68 5.66 1.36 6 0 C6.66 0 7.32 0 8 0 C8 2.97 8 5.94 8 9 C4 7 4 7 2 4 C2 5.65 2 7.3 2 9 C1.34 9 0.68 9 0 9 C0 6.03 0 3.06 0 0 Z " fill="#736EA5" transform="translate(189,209)"/>
  <path d="M0 0 C0.33 0 0.66 0 1 0 C1.66 2.97 2.32 5.94 3 9 C4.65 9 6.3 9 8 9 C7.01 10.485 7.01 10.485 6 12 C0.00067626 10.1668733 -5.44920563 7.92678249 -11 5 C-10.34 4.34 -9.68 3.68 -9 3 C-6.03 4.65 -3.06 6.3 0 8 C0 5.36 0 2.72 0 0 Z " fill="#E0EDF3" transform="translate(41,183)"/>
  <path d="M0 0 C1.98 0 3.96 0 6 0 C5.67 0.66 5.34 1.32 5 2 C4.01 1.67 3.02 1.34 2 1 C2 1.99 2 2.98 2 4 C2.99 4 3.98 4 5 4 C4.34 5.32 3.68 6.64 3 8 C4.32 7.67 5.64 7.34 7 7 C6.67 7.99 6.34 8.98 6 10 C4.02 10 2.04 10 0 10 C0 6.7 0 3.4 0 0 Z " fill="#847FB0" transform="translate(209,209)"/>
  <path d="M0 0 C0.6875 1.6875 0.6875 1.6875 1 4 C-0.4375 6.75 -0.4375 6.75 -2 9 C-1.34 9 -0.68 9 0 9 C0 9.66 0 10.32 0 11 C-2.97 11 -5.94 11 -9 11 C-9 10.34 -9 9.68 -9 9 C-8.2575 8.5875 -7.515 8.175 -6.75 7.75 C-3.44959074 5.64973956 -1.99378652 3.32297754 0 0 Z " fill="#5B8FB4" transform="translate(256,192)"/>
  <path d="M0 0 C3 1 3 1 5 4 C7.05003955 5.19232613 7.05003955 5.19232613 9 6 C9 6.33 9 6.66 9 7 C5.7 7 2.4 7 -1 7 C-1.66 5.68 -2.32 4.36 -3 3 C-2.01 3 -1.02 3 0 3 C0 2.01 0 1.02 0 0 Z " fill="#548CB7" transform="translate(119,196)"/>
  <path d="M0 0 C0.99 0 1.98 0 3 0 C3 2.64 3 5.28 3 8 C4.32 7.67 5.64 7.34 7 7 C6.67 7.99 6.34 8.98 6 10 C4.02 10 2.04 10 0 10 C0 6.7 0 3.4 0 0 Z " fill="#8A86B1" transform="translate(228,209)"/>
  <path d="M0 0 C0.99 0 1.98 0 3 0 C3 2.64 3 5.28 3 8 C4.32 7.67 5.64 7.34 7 7 C6.67 7.99 6.34 8.98 6 10 C3.69 10 1.38 10 -1 10 C-0.67 6.7 -0.34 3.4 0 0 Z " fill="#8C86B4" transform="translate(124,209)"/>
  <path d="M0 0 C0.94875 0.04125 1.8975 0.0825 2.875 0.125 C2.875 0.785 2.875 1.445 2.875 2.125 C1.555 2.125 0.235 2.125 -1.125 2.125 C-1.455 4.105 -1.785 6.085 -2.125 8.125 C-0.475 8.125 1.175 8.125 2.875 8.125 C2.545 8.785 2.215 9.445 1.875 10.125 C-2.875 9.375 -2.875 9.375 -5.125 7.125 C-5.375 4.625 -5.375 4.625 -5.125 2.125 C-3.125 0.125 -3.125 0.125 0 0 Z " fill="#7D79AD" transform="translate(204.125,208.875)"/>
  <path d="M0 0 C0.33 2.31 0.66 4.62 1 7 C-0.32 7 -1.64 7 -3 7 C-6 3.78571429 -6 3.78571429 -6 1 C-3.92446352 0.4465236 -2.15634036 0 0 0 Z " fill="#467AAC" transform="translate(267,192)"/>
  <path d="M0 0 C-2.05290548 1.02645274 -4.09975903 2.04560413 -6.1875 3 C-8.17201523 3.87144569 -8.17201523 3.87144569 -9 6 C-10.98 6 -12.96 6 -15 6 C-14.67 4.68 -14.34 3.36 -14 2 C-12.66666667 1.66666667 -11.33333333 1.33333333 -10 1 C-9.071875 0.7215625 -9.071875 0.7215625 -8.125 0.4375 C-5.39188876 -0.12519937 -2.78203873 -0.06322815 0 0 Z " fill="#29A4C9" transform="translate(78,199)"/>
  <path d="M0 0 C0.33 0.66 0.66 1.32 1 2 C1.99 1.34 2.98 0.68 4 0 C4.99 0.33 5.98 0.66 7 1 C6.07347299 2.17539996 5.13336613 3.34010577 4.1875 4.5 C3.66542969 5.1496875 3.14335937 5.799375 2.60546875 6.46875 C1 8 1 8 -2 8 C-1.47731534 5.23723823 -0.89130413 2.6739124 0 0 Z " fill="#4C82AF" transform="translate(152,194)"/>
  <path d="M0 0 C1.65 0 3.3 0 5 0 C5 0.66 5 1.32 5 2 C3.68 1.67 2.36 1.34 1 1 C1.680625 1.5775 2.36125 2.155 3.0625 2.75 C3.701875 3.4925 4.34125 4.235 5 5 C4.75 7.25 4.75 7.25 4 9 C2.35 9.33 0.7 9.66 -1 10 C-0.67 9.01 -0.34 8.02 0 7 C0.66 7.33 1.32 7.66 2 8 C2.33 7.34 2.66 6.68 3 6 C1.68 5.34 0.36 4.68 -1 4 C-0.67 2.68 -0.34 1.36 0 0 Z " fill="#6C689B" transform="translate(218,209)"/>
  <path d="M0 0 C1.65 0 3.3 0 5 0 C5 0.66 5 1.32 5 2 C3.68 1.67 2.36 1.34 1 1 C1.680625 1.5775 2.36125 2.155 3.0625 2.75 C3.701875 3.4925 4.34125 4.235 5 5 C4.75 7.25 4.75 7.25 4 9 C2.35 9.33 0.7 9.66 -1 10 C-0.67 9.01 -0.34 8.02 0 7 C0.66 7.33 1.32 7.66 2 8 C2.33 7.34 2.66 6.68 3 6 C1.68 5.34 0.36 4.68 -1 4 C-0.67 2.68 -0.34 1.36 0 0 Z " fill="#6D69A2" transform="translate(158,209)"/>
  <path d="M0 0 C1.32 0 2.64 0 4 0 C4 1.32 4 2.64 4 4 C3.01 4 2.02 4 1 4 C0.34 5.32 -0.32 6.64 -1 8 C-1.99 8 -2.98 8 -4 8 C-2.25 2.25 -2.25 2.25 0 0 Z " fill="#4B5F9D" transform="translate(185,182)"/>
  <path d="M0 0 C1.98 0 3.96 0 6 0 C5.67 0.66 5.34 1.32 5 2 C4.01 1.67 3.02 1.34 2 1 C2 1.99 2 2.98 2 4 C2.99 4 3.98 4 5 4 C4.34 5.98 3.68 7.96 3 10 C2.01 10 1.02 10 0 10 C0 6.7 0 3.4 0 0 Z " fill="#7C77A9" transform="translate(138,209)"/>
  <path d="M0 0 C2.97 0 5.94 0 9 0 C6 3 3 6 0 9 C0 5 0 5 1 2 C0.67 1.34 0.34 0.68 0 0 Z " fill="#636BA3" transform="translate(265,176)"/>
  <path d="M0 0 C0.99 0.33 1.98 0.66 3 1 C2.67 3.31 2.34 5.62 2 8 C3.32 7.67 4.64 7.34 6 7 C5.67 7.99 5.34 8.98 5 10 C3.02 10 1.04 10 -1 10 C-0.67 6.7 -0.34 3.4 0 0 Z " fill="#706B9D" transform="translate(237,209)"/>
  <path d="M0 0 C0.66 0 1.32 0 2 0 C3.0625 2.375 3.0625 2.375 4 5 C3.67 5.66 3.34 6.32 3 7 C1.68 7 0.36 7 -1 7 C-1.625 4.625 -1.625 4.625 -2 2 C-1.34 1.34 -0.68 0.68 0 0 Z " fill="#496BA5" transform="translate(112,186)"/>
  <path d="M0 0 C2.10388569 -0.05402274 4.20816714 -0.09280256 6.3125 -0.125 C8.07013672 -0.15980469 8.07013672 -0.15980469 9.86328125 -0.1953125 C13 0 13 0 16 2 C15.34 2 14.68 2 14 2 C13.67 3.32 13.34 4.64 13 6 C12.484375 5.34 11.96875 4.68 11.4375 4 C8.19403963 1.33869919 6.08938795 1.84854119 2 2 C1.34 1.34 0.68 0.68 0 0 Z " fill="#5E5A9B" transform="translate(138,176)"/>
  <path d="M0 0 C0.99 0 1.98 0 3 0 C3 0.66 3 1.32 3 2 C7.62 2 12.24 2 17 2 C17 2.33 17 2.66 17 3 C14.9168207 3.16858098 12.83344956 3.33479255 10.75 3.5 C9.58984375 3.5928125 8.4296875 3.685625 7.234375 3.78125 C4.82731342 3.94404644 2.41256049 4 0 4 C0 2.68 0 1.36 0 0 Z " fill="#3E81AF" transform="translate(48,171)"/>
  <path d="M0 0 C3.81684226 1.55500981 6.19195732 4.03595495 9 7 C7.35 7.33 5.7 7.66 4 8 C0 2.25 0 2.25 0 0 Z " fill="#5A8AB6" transform="translate(61,162)"/>
  <path d="M0 0 C2.475 0.495 2.475 0.495 5 1 C4.67 2.65 4.34 4.3 4 6 C2.68 5.67 1.36 5.34 0 5 C0 3.35 0 1.7 0 0 Z " fill="#F0F8FA" transform="translate(55,199)"/>
  <path d="M0 0 C1.98 0 3.96 0 6 0 C5.67 0.66 5.34 1.32 5 2 C4.34 1.67 3.68 1.34 3 1 C3 1.99 3 2.98 3 4 C3.66 4.33 4.32 4.66 5 5 C4.34 5 3.68 5 3 5 C3 6.32 3 7.64 3 9 C2.34 9 1.68 9 1 9 C0.67 6.03 0.34 3.06 0 0 Z " fill="#58538F" transform="translate(180,209)"/>
  <path d="M0 0 C4.75 0.875 4.75 0.875 7 2 C6.67 2.99 6.34 3.98 6 5 C4.35 4.67 2.7 4.34 1 4 C0.67 2.68 0.34 1.36 0 0 Z " fill="#4075A8" transform="translate(130,193)"/>
  <path d="M0 0 C2.0625 0.4375 2.0625 0.4375 4 1 C4 1.99 4 2.98 4 4 C2.68 4.33 1.36 4.66 0 5 C-0.5625 3.0625 -0.5625 3.0625 -1 1 C-0.67 0.67 -0.34 0.34 0 0 Z " fill="#3E9DC0" transform="translate(44,188)"/>
  <path d="M0 0 C0.99 0.33 1.98 0.66 3 1 C3.33 1.99 3.66 2.98 4 4 C2.35 4.33 0.7 4.66 -1 5 C-1 1 -1 1 0 0 Z " fill="#4895BD" transform="translate(47,179)"/>
  <path d="M0 0 C0.33 0 0.66 0 1 0 C0.67 3.96 0.34 7.92 0 12 C-0.33 11.01 -0.66 10.02 -1 9 C-1.66 9 -2.32 9 -3 9 C-2.01 6.03 -1.02 3.06 0 0 Z " fill="#6575A9" transform="translate(54,140)"/>
  <path d="M0 0 C1.125 1.75 1.125 1.75 2 4 C1.125 6.25 1.125 6.25 0 8 C-0.99 7.34 -1.98 6.68 -3 6 C-2 4 -1 2 0 0 Z " fill="#47B4D2" transform="translate(54,200)"/>
  <path d="M0 0 C0.33 0.99 0.66 1.98 1 3 C1.66 3.33 2.32 3.66 3 4 C2.01 5.98 1.02 7.96 0 10 C-0.33 10 -0.66 10 -1 10 C-1.125 3.375 -1.125 3.375 0 0 Z " fill="#4EBBD2" transform="translate(55,227)"/>
  <path d="M0 0 C0 1.65 0 3.3 0 5 C-2.4375 4.625 -2.4375 4.625 -5 4 C-5.33 3.34 -5.66 2.68 -6 2 C-1.125 0 -1.125 0 0 0 Z " fill="#5288B6" transform="translate(138,196)"/>
  <path d="M0 0 C0.33 0 0.66 0 1 0 C1 2.64 1 5.28 1 8 C0.34 6.68 -0.32 5.36 -1 4 C-2.65 4 -4.3 4 -6 4 C-6 3.67 -6 3.34 -6 3 C-4.35 3 -2.7 3 -1 3 C-0.67 2.01 -0.34 1.02 0 0 Z " fill="#5876AD" transform="translate(237,185)"/>
  <path d="M0 0 C0 1.65 0 3.3 0 5 C-2.475 4.01 -2.475 4.01 -5 3 C-2.25 0 -2.25 0 0 0 Z " fill="#419BBF" transform="translate(41,186)"/>
  <path d="M0 0 C0.33 0.99 0.66 1.98 1 3 C1.66 3.165 2.32 3.33 3 3.5 C3.66 3.665 4.32 3.83 5 4 C5.33 4.99 5.66 5.98 6 7 C4.02 6.34 2.04 5.68 0 5 C0 3.35 0 1.7 0 0 Z " fill="#57A3C5" transform="translate(30,181)"/>
  <path d="M0 0 C2.97 0 5.94 0 9 0 C7.3125 1.625 7.3125 1.625 5 3 C2.25 2.1875 2.25 2.1875 0 1 C0 0.67 0 0.34 0 0 Z " fill="#5C5D9B" transform="translate(265,176)"/>
</svg>